<?xml version="1.0" standalone="no"?>
<!DOCTYPE svg PUBLIC "-//W3C//DTD SVG 1.1//EN" "http://www.w3.org/Graphics/SVG/1.1/DTD/svg11.dtd" >
<svg>
<metadata>
Created by FontForge 20090622 at Mon Aug 31 19:20:37 2015
 By deploy user
Copyright 1997, 2007 International Typeface Corporation. All rights reserved.
</metadata>
<defs>
<font id="ConduitITCPro-Light" horiz-adv-x="510" >
  <font-face 
    font-family="Conduit ITC Pro Light"
    font-weight="300"
    font-stretch="normal"
    units-per-em="1000"
    panose-1="2 0 5 6 4 0 0 2 0 4"
    ascent="702"
    descent="-298"
    x-height="441"
    cap-height="629"
    bbox="-76 -250 1218 855"
    underline-thickness="47"
    underline-position="-66"
    unicode-range="U+0020-U+FB04"
  />
<missing-glyph horiz-adv-x="500" 
d="M12 0v665h475v-665h-475zM250 375l161 243h-323zM60 91l161 242l-161 242v-484zM440 90v485l-162 -242zM88 48h323l-161 242z" />
    <glyph glyph-name="IJ" unicode="IJ" horiz-adv-x="647" 
d="M139 0h-47q-10 0 -10 10v609q0 10 10 10h47q10 0 10 -10v-609q0 -10 -10 -10zM258 87l36 18q8 4 10 4q5 0 8 -5q17 -26 43 -41.5t52 -15.5q43 0 75 31.5t32 75.5v465q0 10 10 10h48q10 0 10 -10v-455q0 -72 -51 -123t-124 -51t-134 61q-22 20 -22 28q0 5 7 8z" />
    <glyph glyph-name="ij" unicode="ij" horiz-adv-x="418" 
d="M149 596q0 -18 -13.5 -31.5t-31.5 -13.5q-19 0 -31 13t-12 32q0 17 13 30.5t30 13.5q19 0 32 -12.5t13 -31.5zM129 0h-48q-10 0 -10 10v422q0 10 10 10h48q10 0 10 -10v-422q0 -10 -10 -10zM358 596q0 -18 -13.5 -31.5t-31.5 -13.5q-19 0 -31 13t-12 32q0 17 13 30.5
t30 13.5q19 0 32 -12.5t13 -31.5zM187 -225v38q0 8 8 10q39 9 62 37.5t23 66.5v505q0 10 10 10h48q10 0 10 -10v-494q0 -53 -29 -96t-78 -64q-28 -13 -45 -13q-9 0 -9 10z" />
    <glyph glyph-name="napostrophe" unicode="&#x22;n" horiz-adv-x="490" 
d="M129 0h-48q-10 0 -10 10v422q0 10 10 10h37q10 0 10 -10v-40q0 -11 9 -11q5 0 9 5q45 56 99 56q79 0 127 -45.5t48 -117.5v-269q0 -10 -10 -10h-48q-10 0 -10 10v269q0 43 -31.5 74.5t-75.5 31.5t-75 -31t-31 -75v-269q0 -10 -10 -10zM1 496l-11 12q-2 2 -2 7t2 7
q34 40 34 128v23q0 10 8 10h45q7 0 7 -10v-24q0 -113 -66 -158q-4 -2 -7 -2t-10 7z" />
    <glyph glyph-name="f_f.sc" unicode="&#xe012;&#xe012;" horiz-adv-x="840" 
d="M150 0h-50q-8 0 -8 7v456q0 7 8 7h270q8 0 8 -7v-39q0 -7 -8 -7h-204q-8 0 -8 -9v-135q0 -7 8 -7h170q7 0 7 -7v-39q0 -8 -7 -8h-170q-8 0 -8 -8v-197q0 -7 -8 -7zM570 0h-50q-8 0 -8 7v456q0 7 8 7h270q8 0 8 -7v-39q0 -7 -8 -7h-204q-8 0 -8 -9v-135q0 -7 8 -7h170
q7 0 7 -7v-39q0 -8 -7 -8h-170q-8 0 -8 -8v-197q0 -7 -8 -7z" />
    <glyph glyph-name="f_f_i.sc" unicode="&#xe012;&#xe012;&#xe015;" horiz-adv-x="1091" 
d="M150 0h-50q-8 0 -8 7v456q0 7 8 7h270q8 0 8 -7v-39q0 -7 -8 -7h-204q-8 0 -8 -9v-135q0 -7 8 -7h170q7 0 7 -7v-39q0 -8 -7 -8h-170q-8 0 -8 -8v-197q0 -7 -8 -7zM570 0h-50q-8 0 -8 7v456q0 7 8 7h270q8 0 8 -7v-39q0 -7 -8 -7h-204q-8 0 -8 -9v-135q0 -7 8 -7h170
q7 0 7 -7v-39q0 -8 -7 -8h-170q-8 0 -8 -8v-197q0 -7 -8 -7zM990 0h-50q-8 0 -8 7v456q0 7 8 7h50q8 0 8 -7v-456q0 -7 -8 -7z" />
    <glyph glyph-name="f_f_l.sc" unicode="&#xe012;&#xe012;&#xe01c;" horiz-adv-x="1241" 
d="M150 0h-50q-8 0 -8 7v456q0 7 8 7h270q8 0 8 -7v-39q0 -7 -8 -7h-204q-8 0 -8 -9v-135q0 -7 8 -7h170q7 0 7 -7v-39q0 -8 -7 -8h-170q-8 0 -8 -8v-197q0 -7 -8 -7zM570 0h-50q-8 0 -8 7v456q0 7 8 7h270q8 0 8 -7v-39q0 -7 -8 -7h-204q-8 0 -8 -9v-135q0 -7 8 -7h170
q7 0 7 -7v-39q0 -8 -7 -8h-170q-8 0 -8 -8v-197q0 -7 -8 -7zM1210 0h-270q-8 0 -8 7v456q0 7 8 7h50q8 0 8 -7v-401q0 -8 8 -8h204q8 0 8 -8v-39q0 -7 -8 -7z" />
    <glyph glyph-name="f_f" unicode="ff" horiz-adv-x="540" 
d="M144 0h-47q-10 0 -10 10v318q0 10 -10 10h-27q-10 0 -10 10v37q0 10 10 10h27q10 0 10 10v61q0 73 50.5 123.5t122.5 50.5q44 0 71.5 -12.5t54.5 -39.5q3 -3 6 -3q1 0 7 4q54 51 125 51q13 0 31 -2q9 -1 9 -10l-13 -40q-2 -7 -9 -7q-2 0 -8 0.5t-10 0.5q-44 0 -75 -30.5
t-31 -75.5v-71q0 -10 10 -10h73q10 0 10 -10v-37q0 -10 -10 -10h-73q-10 0 -10 -10v-318q0 -10 -10 -10h-48q-10 0 -10 10v318q0 10 -10 10h-176q-10 0 -10 -10v-318q0 -10 -10 -10zM164 395h176q10 0 10 10v61q0 15 2 26t4 16.5t2 7.5q0 8 -16 26q-34 40 -82 40
q-44 0 -75 -30.5t-31 -75.5v-71q0 -10 10 -10z" />
    <glyph glyph-name="fi" unicode="fi" horiz-adv-x="485" 
d="M425 596q0 -18 -13.5 -31.5t-31.5 -13.5q-19 0 -31 13t-12 32q0 17 13 30.5t30 13.5q19 0 32 -12.5t13 -31.5zM405 0h-48q-10 0 -10 10v422q0 10 10 10h48q10 0 10 -10v-422q0 -10 -10 -10zM144 0h-47q-10 0 -10 10v318q0 10 -10 10h-27q-10 0 -10 10v37q0 10 10 10h27
q10 0 10 10v61q0 51 26.5 92.5t72.5 63.5q35 16 53 16q9 0 9 -10v-38q0 -8 -8 -10q-39 -9 -62.5 -37.5t-23.5 -66.5v-71q0 -10 10 -10h74q10 0 10 -10v-37q0 -10 -10 -10h-74q-10 0 -10 -10v-318q0 -10 -10 -10z" />
    <glyph glyph-name="fl" unicode="fl" horiz-adv-x="488" 
d="M144 0h-47q-10 0 -10 10v318q0 10 -10 10h-27q-10 0 -10 10v37q0 10 10 10h27q10 0 10 10v51q0 72 50.5 122.5t122.5 50.5h148q10 0 10 -10v-609q0 -10 -10 -10h-48q-10 0 -10 10v552q0 10 -10 10h-80q-44 0 -75 -31t-31 -75v-61q0 -10 10 -10h74q10 0 10 -10v-37
q0 -10 -10 -10h-74q-10 0 -10 -10v-318q0 -10 -10 -10z" />
    <glyph glyph-name="f_f_i" unicode="ffi" horiz-adv-x="741" 
d="M689 596q0 -18 -13.5 -31.5t-31.5 -13.5q-19 0 -31.5 13t-12.5 32t12.5 31.5t31.5 12.5t32 -12.5t13 -31.5zM668 0h-47q-10 0 -10 10v422q0 10 10 10h47q10 0 10 -10v-422q0 -10 -10 -10zM144 0h-47q-10 0 -10 10v318q0 10 -10 10h-27q-10 0 -10 10v37q0 10 10 10h27
q10 0 10 10v61q0 73 50.5 123.5t122.5 50.5q68 0 111 -38q19 -17 21 -17q3 0 6.5 3t8 7.5t7.5 6.5q19 14 48 25t41 11q8 0 8 -10v-39q0 -8 -8 -10q-39 -8 -62 -36.5t-23 -66.5v-71q0 -10 10 -10h73q10 0 10 -10v-37q0 -10 -10 -10h-73q-10 0 -10 -10v-318q0 -10 -10 -10h-48
q-10 0 -10 10v318q0 10 -10 10h-176q-10 0 -10 -10v-318q0 -10 -10 -10zM164 395h176q10 0 10 10v61q0 15 2 26t4 16.5t2 7.5q0 8 -16 26q-34 40 -82 40q-44 0 -75 -30.5t-31 -75.5v-71q0 -10 10 -10z" />
    <glyph glyph-name="f_f_l" unicode="ffl" horiz-adv-x="751" 
d="M144 0h-47q-10 0 -10 10v318q0 10 -10 10h-27q-10 0 -10 10v37q0 10 10 10h27q10 0 10 10v61q0 73 50.5 123.5t122.5 50.5q48 0 75.5 -14t55.5 -43q4 -4 6 -4q1 0 7 4q52 46 120 46h147q10 0 10 -10v-609q0 -10 -10 -10h-47q-10 0 -10 10v552q0 10 -10 10h-80
q-44 0 -75 -31t-31 -75v-61q0 -10 10 -10h73q10 0 10 -10v-37q0 -10 -10 -10h-73q-10 0 -10 -10v-318q0 -10 -10 -10h-48q-10 0 -10 10v318q0 10 -10 10h-176q-10 0 -10 -10v-318q0 -10 -10 -10zM164 395h176q10 0 10 10v61q0 15 2 26t4 16.5t2 7.5q0 8 -16 26
q-34 40 -82 40q-44 0 -75 -30.5t-31 -75.5v-71q0 -10 10 -10z" />
    <glyph glyph-name=".notdef" horiz-adv-x="500" 
d="M12 0v665h475v-665h-475zM250 375l161 243h-323zM60 91l161 242l-161 242v-484zM440 90v485l-162 -242zM88 48h323l-161 242z" />
    <glyph glyph-name=".null" horiz-adv-x="0" 
 />
    <glyph glyph-name="nonmarkingreturn" horiz-adv-x="333" 
 />
    <glyph glyph-name="space" unicode=" " horiz-adv-x="174" 
 />
    <glyph glyph-name="exclam" unicode="!" horiz-adv-x="291" 
d="M149 187h-5q-8 0 -10 9l-22 169v254q0 10 10 10h48q10 0 10 -10v-253l-21 -170q-1 -9 -10 -9zM196 34q0 -21 -14.5 -35t-35.5 -14q-20 0 -34.5 14.5t-14.5 34.5t14.5 34.5t34.5 14.5q21 0 35.5 -14t14.5 -35z" />
    <glyph glyph-name="quotedbl" unicode="&#x22;" horiz-adv-x="282" 
d="M212 463h-14q-8 0 -10 9l-21 151q0 11 10 11h54q10 0 10 -11l-19 -151q-2 -9 -10 -9zM87 463h-15q-8 0 -10 9l-21 151q0 11 10 11h55q10 0 10 -11l-19 -151q-1 -9 -10 -9z" />
    <glyph glyph-name="numbersign" unicode="#" horiz-adv-x="563" 
d="M111 0h-33q-11 0 -11 9l47 170q0 8 -11 8h-51q-8 0 -8 6l11 41q3 10 13 10h57q8 0 10 8l36 125q0 8 -11 8h-60q-8 0 -8 6l11 41q3 10 13 10h66q8 0 10 8l50 173q1 7 10 7h33q11 0 11 -9l-48 -170q0 -9 11 -9h122q8 0 10 8l50 173q1 7 10 7h33q11 0 11 -9l-48 -170
q0 -9 11 -9h53q8 0 8 -6l-11 -41q-3 -10 -13 -10h-59q-9 0 -10 -6l-35 -126q0 -9 11 -9h62q8 0 8 -6l-11 -41q-3 -10 -13 -10h-69q-9 0 -10 -6l-49 -174q-1 -7 -10 -7h-33q-11 0 -11 9l48 170q0 8 -11 8h-122q-9 0 -10 -6l-50 -174q-1 -7 -10 -7zM203 244h122q8 0 10 8
l35 125q0 8 -11 8h-122q-9 0 -10 -6l-35 -126q0 -9 11 -9z" />
    <glyph glyph-name="dollar" unicode="$" 
d="M274 -62h-27q-10 0 -10 10v32q0 10 -9 10q-88 0 -134 54q-20 24 -20 33q0 6 6 9l38 19q1 0 4 1.5t4 1.5q5 0 8 -5q37 -56 94 -56q9 0 9 10v228q0 6 -6 9q-35 16 -57 29.5t-45.5 35t-35 50.5t-11.5 67q0 65 38.5 108t108.5 55q8 2 8 10v33q0 10 10 10h27q10 0 10 -10v-32
q0 -9 8 -10q73 -9 114 -55q21 -23 21 -31q0 -6 -7 -9l-38 -19q-4 -3 -9 -3q-4 0 -7 4q-22 30 -51 44q-14 8 -23 8q-8 0 -8 -11v-210q0 -6 6 -9q36 -16 59.5 -30t48 -37t37 -55t12.5 -73q0 -66 -41.5 -109.5t-113.5 -53.5q-8 -1 -8 -10v-33q0 -10 -10 -10zM237 390v176
q0 11 -9 11q-5 0 -25 -10q-54 -30 -54 -91q0 -46 53 -83q22 -14 27 -14q8 0 8 11zM284 252v-190q0 -11 7 -11q11 0 27 9q28 13 44.5 38.5t16.5 55.5q0 54 -58 93q-24 16 -29 16q-8 0 -8 -11z" />
    <glyph glyph-name="percent" unicode="%" horiz-adv-x="490" 
d="M43 445v100q0 38 24.5 61.5t65.5 23.5t65.5 -23.5t24.5 -61.5v-100q0 -38 -24.5 -61.5t-65.5 -23.5t-65.5 23.5t-24.5 61.5zM127 0h-24q-11 0 -11 8l263 616q3 6 9 6h24q11 0 11 -8l-263 -616q-3 -6 -9 -6zM268 85v100q0 38 24.5 61.5t65.5 23.5t65.5 -23.5t24.5 -61.5
v-100q0 -38 -24.5 -61.5t-65.5 -23.5t-65.5 23.5t-24.5 61.5zM173 445v100q0 16 -12 28t-28 12t-28 -12t-12 -28v-100q0 -16 12 -28t28 -12t28 12t12 28zM398 85v100q0 16 -12 28t-28 12t-28 -12t-12 -28v-100q0 -16 12 -28t28 -12t28 12t12 28z" />
    <glyph glyph-name="ampersand" unicode="&#x26;" horiz-adv-x="625" 
d="M271 -10h-31q-80 0 -127 46.5t-47 125.5v26q0 32 21.5 67.5t57.5 51.5q7 3 7 8t-5 9q-43 35 -62.5 66.5t-19.5 73.5q0 81 47 128.5t128 47.5q80 0 127 -47t47 -127v-21q0 -33 -26 -69t-79 -55q-8 -3 -8 -9q0 -5 5 -9q36 -25 95 -87q5 -5 9 -5q5 0 8 9q38 128 167 128h7
q10 0 10 -10v-47q0 -10 -10 -10h-15q-77 0 -107 -106l-5 -18q-3 -7 4 -14q65 -65 126 -83q7 -1 7 -10v-49q0 -10 -9 -10h-2q-83 12 -153 80q-3 3 -7 3t-7 -5q-52 -79 -153 -79zM347 456v20q0 45 -31.5 75.5t-75.5 30.5q-45 0 -75.5 -30.5t-30.5 -75.5q0 -64 91 -126
q5 -4 12 -4q33 0 71.5 31t38.5 79zM240 47h31q26 0 52 15t44 41q13 17 13 26q0 3 -14 20q-51 62 -84 87q-13 10 -58 38q-18 11 -21 11q-5 0 -24 -14q-45 -34 -45 -86v-31q0 -44 30.5 -75.5t75.5 -31.5z" />
    <glyph glyph-name="quotesingle" unicode="'" horiz-adv-x="157" 
d="M87 463h-15q-8 0 -10 9l-21 151q0 11 10 11h55q10 0 10 -11l-19 -151q-1 -9 -10 -9z" />
    <glyph glyph-name="parenleft" unicode="(" horiz-adv-x="387" 
d="M291 -137v-39q0 -10 -9 -10q-24 0 -62 18q-90 46 -90 156v572q0 111 92 155q37 17 60 17q9 0 9 -10v-39q0 -8 -8 -10q-39 -8 -62 -36.5t-23 -66.5v-593q0 -38 23 -66.5t62 -37.5q8 -2 8 -10z" />
    <glyph glyph-name="parenright" unicode=")" horiz-adv-x="387" 
d="M97 -176v39q0 8 8 10q39 9 62 37.5t23 66.5v593q0 38 -23 66.5t-62 36.5q-8 2 -8 10v39q0 10 9 10q23 0 60 -17q92 -44 92 -155v-572q0 -110 -90 -156q-38 -18 -62 -18q-9 0 -9 10z" />
    <glyph glyph-name="asterisk" unicode="*" horiz-adv-x="384" 
d="M212 356h-39q-10 0 -10 9l14 118q0 10 -8 10q-3 0 -8 -3l-91 -65q-5 -3 -7 -3q-5 0 -8 6l-19 33q-2 4 -2 6q0 5 7 8l103 44q8 3 8 9t-8 9l-103 47q-7 3 -7 8q0 2 2 6l19 32q3 6 8 6q3 0 7 -3l89 -67q5 -3 8 -3q8 0 8 10l-12 116q0 9 10 9h38q10 0 10 -9l-13 -116
q0 -10 8 -10q4 0 8 3l94 67q3 3 7 3q5 0 8 -6l19 -32q2 -4 2 -6q0 -5 -7 -8l-107 -47q-7 -3 -7 -9t7 -9l107 -45q7 -3 7 -8q0 -2 -2 -6l-19 -32q-3 -6 -8 -6q-4 0 -7 3l-94 65q-4 3 -8 3q-8 0 -8 -10l14 -118q0 -9 -10 -9z" />
    <glyph glyph-name="plus" unicode="+" 
d="M269 26h-26q-10 0 -10 10v167q0 10 -10 10h-168q-10 0 -10 10v27q0 10 10 10h168q10 0 10 10v167q0 10 10 10h26q10 0 10 -10v-167q0 -10 10 -10h167q10 0 10 -10v-27q0 -10 -10 -10h-167q-10 0 -10 -10v-167q0 -10 -10 -10z" />
    <glyph glyph-name="comma" unicode="," horiz-adv-x="209" 
d="M59 -130l-10 16q-2 4 -2 7t3 6q40 33 40 103q0 10 -10 10h-14q-10 0 -10 10v59q0 10 10 10h78q10 0 10 -10v-56q0 -97 -63 -146q-17 -14 -24 -14q-5 0 -8 5z" />
    <glyph glyph-name="hyphen" unicode="-" horiz-adv-x="261" 
d="M202 187h-142q-10 0 -10 10v48q0 10 10 10h142q10 0 10 -10v-48q0 -10 -10 -10z" />
    <glyph glyph-name="period" unicode="." horiz-adv-x="209" 
d="M154 34q0 -21 -14.5 -35t-35.5 -14q-19 0 -33.5 14.5t-14.5 34.5t14.5 34.5t33.5 14.5q21 0 35.5 -14t14.5 -35z" />
    <glyph glyph-name="slash" unicode="/" horiz-adv-x="305" 
d="M39 0h-34q-11 0 -11 8q0 1 19 45l244 571q3 6 9 6h34q10 0 10 -8q0 -3 -20 -51l-242 -565q-3 -6 -9 -6z" />
    <glyph glyph-name="zero" unicode="0" 
d="M270 -10h-31q-79 0 -126.5 45.5t-47.5 118.5v322q0 73 47.5 118.5t126.5 45.5h31q79 0 127 -45.5t48 -118.5v-322q0 -73 -48 -118.5t-127 -45.5zM239 47h31q44 0 75.5 31.5t31.5 75.5v322q0 45 -31.5 75.5t-75.5 30.5h-31q-45 0 -75.5 -30.5t-30.5 -75.5v-322
q0 -44 30.5 -75.5t75.5 -31.5z" />
    <glyph glyph-name="one" unicode="1" 
d="M423 0h-297q-10 0 -10 10v37q0 10 10 10h105q10 0 10 10v423q0 11 -8 11q-5 0 -9 -4l-66 -66q-4 -4 -7 -4q-4 0 -7 4l-25 28q-3 3 -3 7t3 7l153 153q3 3 7 3h19q10 0 10 -10v-552q0 -10 10 -10h105q10 0 10 -10v-37q0 -10 -10 -10z" />
    <glyph glyph-name="two" unicode="2" 
d="M420 0h-328q-10 0 -10 10v98q0 42 12 76t36 60t45.5 42.5t55.5 37.5q82 51 105 74q35 36 35 78q0 45 -31.5 75.5t-75.5 30.5h-40q-56 0 -93 -54q-3 -5 -8 -5q-4 0 -10 4l-36 18q-6 3 -6 9q0 9 19 32q44 54 134 54h40q79 0 127 -45.5t48 -118.5q0 -39 -12 -70.5t-37 -55.5
t-46 -39t-54 -35q-8 -5 -12 -7q-63 -38 -95.5 -72.5t-32.5 -88.5v-41q0 -10 10 -10h260q10 0 10 -10v-37q0 -10 -10 -10z" />
    <glyph glyph-name="three" unicode="3" 
d="M255 -10h-31q-88 0 -133 53q-21 25 -21 34q0 6 6 9l38 19q4 3 8 3q5 0 8 -5q37 -56 94 -56h31q43 0 75 31.5t32 75.5v36q0 43 -31.5 74.5t-75.5 31.5h-70q-10 0 -10 10v37q0 10 10 10h70q45 0 76 31.5t31 76.5v15q0 45 -31.5 75.5t-75.5 30.5h-31q-57 0 -94 -55
q-3 -5 -8 -5q-4 0 -9 3l-38 20q-6 3 -6 8q0 11 21 34q45 53 134 53h31q80 0 127.5 -47.5t47.5 -126.5v-16q0 -44 -29.5 -78.5t-65.5 -44.5v-4q32 -10 63.5 -46.5t31.5 -83.5v-31q0 -79 -47.5 -125.5t-127.5 -46.5z" />
    <glyph glyph-name="four" unicode="4" 
d="M373 0h-47q-10 0 -10 10v131q0 10 -10 10h-261q-10 0 -10 9l2 58l268 407q4 4 8 4h60q10 0 10 -10v-401q0 -10 10 -10h74q10 0 10 -10v-37q0 -10 -10 -10h-74q-10 0 -10 -10v-131q0 -10 -10 -10zM110 208h196q10 0 10 10v295q0 12 -9 12q-5 0 -9 -6l-196 -295
q-3 -4 -3 -8q0 -8 11 -8z" />
    <glyph glyph-name="five" unicode="5" 
d="M272 -10h-31q-83 0 -127 46q-28 30 -28 41q0 5 6 8l36 19q8 4 11 4q5 0 8 -5q37 -56 94 -56h31q44 0 75.5 31.5t31.5 75.5v36q0 43 -31.5 74.5t-75.5 31.5h-153q-10 0 -10 10v313q0 10 10 10h307q10 0 10 -10v-37q0 -10 -10 -10h-240q-10 0 -10 -10v-199q0 -10 10 -10h86
q80 0 127.5 -46t47.5 -125v-20q0 -79 -47.5 -125.5t-127.5 -46.5z" />
    <glyph glyph-name="six" unicode="6" 
d="M278 -10h-30q-79 0 -126 45.5t-47 118.5v322q0 73 47 118.5t126 45.5h30q86 0 132 -51q24 -28 24 -35q0 -6 -7 -9l-34 -17q-10 -5 -12 -5q-5 0 -8 5q-37 54 -95 54h-30q-44 0 -75 -30.5t-31 -75.5v-167q0 -11 9 -11q5 0 9 5q45 56 99 56h30q69 0 116.5 -46t47.5 -117v-42
q0 -73 -48 -118.5t-127 -45.5zM248 47h30q44 0 75.5 31.5t31.5 75.5v42q0 43 -31.5 74.5t-75.5 31.5h-30q-44 0 -75 -31t-31 -75v-42q0 -44 31.5 -75.5t74.5 -31.5z" />
    <glyph glyph-name="seven" unicode="7" 
d="M163 0h-48q-10 0 -10 10v144q0 72 32.5 114.5t93.5 82.5q38 25 51.5 35.5t38.5 33.5t34.5 47.5t9.5 54.5v40q0 10 -10 10h-261q-10 0 -10 10v37q0 10 10 10h329q10 0 10 -10v-97q0 -37 -10.5 -68.5t-22.5 -52t-37 -43.5t-38.5 -32.5l-43.5 -29.5q-54 -36 -81 -67t-27 -75
v-144q0 -10 -10 -10z" />
    <glyph glyph-name="eight" unicode="8" 
d="M271 -10h-31q-80 0 -127 46.5t-47 125.5v26q0 46 28 80t70 48v5q-34 9 -66 42.5t-32 81.5v21q0 80 47 127t127 47h31q80 0 127.5 -47.5t47.5 -126.5v-21q0 -44 -30 -78.5t-65 -44.5v-4q32 -10 63.5 -46.5t31.5 -83.5v-26q0 -79 -47.5 -125.5t-127.5 -46.5zM240 348h31
q45 0 76 31.5t31 76.5v20q0 45 -31.5 75.5t-75.5 30.5h-31q-45 0 -75.5 -30.5t-30.5 -75.5v-20q0 -45 30.5 -76.5t75.5 -31.5zM240 47h31q43 0 75 31.5t32 75.5v31q0 43 -31.5 74.5t-75.5 31.5h-31q-45 0 -75.5 -31t-30.5 -75v-31q0 -44 30.5 -75.5t75.5 -31.5z" />
    <glyph glyph-name="nine" unicode="9" 
d="M260 -10h-30q-90 0 -135 55q-19 22 -19 32q0 6 6 9l38 19q4 3 9 3t8 -5q34 -56 93 -56h30q44 0 75.5 31.5t31.5 75.5v132q0 11 -9 11q-5 0 -9 -5q-45 -58 -99 -58h-30q-70 0 -116.5 46.5t-46.5 117.5v78q0 73 47 118.5t126 45.5h30q79 0 127 -45.5t48 -118.5v-322
q0 -73 -48 -118.5t-127 -45.5zM230 291h30q44 0 75.5 31.5t31.5 75.5v78q0 45 -31.5 75.5t-75.5 30.5h-30q-44 0 -75 -30.5t-31 -75.5v-78q0 -44 31.5 -75.5t74.5 -31.5z" />
    <glyph glyph-name="colon" unicode=":" horiz-adv-x="209" 
d="M154 315q0 -20 -15 -35t-35 -15q-19 0 -33.5 15t-14.5 35t14.5 34.5t33.5 14.5q21 0 35.5 -14t14.5 -35zM154 34q0 -21 -14.5 -35t-35.5 -14q-19 0 -33.5 14.5t-14.5 34.5t14.5 34.5t33.5 14.5q21 0 35.5 -14t14.5 -35z" />
    <glyph glyph-name="semicolon" unicode=";" horiz-adv-x="209" 
d="M154 315q0 -20 -15 -35t-35 -15q-19 0 -33.5 15t-14.5 35t14.5 34.5t33.5 14.5q21 0 35.5 -14t14.5 -35zM59 -130l-10 16q-2 4 -2 7t3 6q40 33 40 103q0 10 -10 10h-14q-10 0 -10 10v59q0 10 10 10h78q10 0 10 -10v-56q0 -97 -63 -146q-17 -14 -24 -14q-5 0 -8 5z" />
    <glyph glyph-name="less" unicode="&#x3c;" 
d="M384 25l-312 179q-5 3 -5 9v51q0 6 5 9l313 181q4 2 6 2q5 0 8 -6l13 -21q2 -4 2 -6q0 -5 -6 -8l-288 -166q-7 -5 -7 -9t7 -9l288 -167q5 -2 5 -8q0 -5 -2 -7l-14 -21q-3 -5 -8 -5q-1 0 -5 2z" />
    <glyph glyph-name="equal" unicode="=" 
d="M456 307h-401q-10 0 -10 10v26q0 10 10 10h401q10 0 10 -10v-26q0 -10 -10 -10zM456 120h-401q-10 0 -10 10v26q0 10 10 10h401q10 0 10 -10v-26q0 -10 -10 -10z" />
    <glyph glyph-name="greater" unicode="&#x3e;" 
d="M113 29l-13 21q-2 4 -2 6q0 5 6 8l287 167q7 5 7 9t-7 9l-287 166q-6 3 -6 8q0 2 2 6l13 21q3 6 8 6q2 0 6 -2l312 -182q5 -3 5 -9v-49q0 -6 -5 -9l-312 -180q-4 -2 -6 -2q-5 0 -8 6z" />
    <glyph glyph-name="question" unicode="?" 
d="M232 187h-48q-10 0 -10 9q-1 17 -1 37q0 16 3.5 30t7 24t13 20.5l14 15.5t19 14t18 11t21 10.5l19.5 9.5q42 21 64 44t22 64q0 45 -31.5 75.5t-75.5 30.5h-40q-57 0 -94 -55q-3 -5 -8 -5q-3 0 -7 2l-40 21q-6 3 -6 8q0 9 22 35q45 52 133 52h40q79 0 126.5 -45.5
t47.5 -118.5q0 -37 -9 -64.5t-27.5 -44.5t-34 -26.5t-38.5 -20.5q-6 -3 -9 -4q-42 -20 -62 -40t-20 -58q0 -4 0.5 -11.5t0.5 -10.5q0 -9 -10 -9zM274 34q0 -21 -14.5 -35t-35.5 -14q-20 0 -34.5 14.5t-14.5 34.5t14.5 34.5t34.5 14.5q21 0 35.5 -14t14.5 -35z" />
    <glyph glyph-name="at" unicode="@" horiz-adv-x="704" 
d="M527 0h-260q-83 0 -132.5 48t-49.5 124v286q0 76 49.5 124t132.5 48h178q82 0 131.5 -47.5t49.5 -124.5v-212q0 -39 -25.5 -63.5t-67.5 -24.5h-12q-46 0 -73 30q-7 9 -17 1q-15 -13 -37.5 -22t-38.5 -9q-57 0 -91.5 33t-34.5 86v82q0 53 34.5 85t91.5 32q27 0 60 -20
q15 -9 15 7v4q0 9 10 9h31q10 0 10 -10v-215q0 -18 11.5 -29.5t29.5 -11.5h11q17 0 29 12t12 29v207q0 54 -35 87t-94 33h-178q-59 0 -94.5 -33t-35.5 -87v-286q0 -54 35.5 -87t94.5 -33h260q10 0 10 -10v-32q0 -10 -10 -10zM430 284v67q0 31 -22 52t-53 21q-30 0 -52 -21.5
t-22 -51.5v-67q0 -31 21.5 -52.5t52.5 -21.5q30 0 52.5 22t22.5 52z" />
    <glyph glyph-name="A" unicode="A" horiz-adv-x="448" 
d="M71 0h-51q-11 0 -11 8q0 4 7 25l179 589q1 7 10 7h38q9 0 10 -7l177 -583q9 -27 9 -31q0 -8 -11 -8h-51q-9 0 -10 7l-39 138q-1 6 -10 6h-188q-9 0 -10 -6l-39 -138q-1 -7 -10 -7zM151 208h144q11 0 11 9l-68 261q-1 3 -5.5 19t-5.5 20h-4q-6 -24 -11 -39l-72 -261
q0 -9 11 -9z" />
    <glyph glyph-name="B" unicode="B" horiz-adv-x="521" 
d="M286 0h-194q-10 0 -10 10v609q0 10 10 10h194q80 0 127.5 -47t47.5 -126v-11q0 -30 -21.5 -65.5t-52.5 -50.5q-8 -5 -8 -10t6 -8q30 -15 53 -48.5t23 -74.5v-15q0 -79 -47.5 -126t-127.5 -47zM159 348h127q45 0 76.5 31.5t31.5 76.5v10q0 44 -31.5 75t-76.5 31h-127
q-10 0 -10 -10v-204q0 -10 10 -10zM159 57h127q45 0 76.5 31t31.5 76v21q0 44 -31.5 75t-76.5 31h-127q-10 0 -10 -10v-214q0 -10 10 -10z" />
    <glyph glyph-name="C" unicode="C" horiz-adv-x="464" 
d="M271 -10h-31q-79 0 -126.5 45.5t-47.5 118.5v322q0 73 47.5 118.5t126.5 45.5h31q86 0 134 -53q22 -24 22 -33q0 -6 -7 -9l-38 -19q-4 -3 -9 -3q-4 0 -7 4q-40 55 -95 55h-31q-45 0 -75.5 -30.5t-30.5 -75.5v-322q0 -44 30.5 -75.5t75.5 -31.5h31q56 0 95 57q3 4 7 4
q5 0 9 -3l38 -19q7 -4 7 -9q0 -9 -23 -34q-46 -53 -133 -53z" />
    <glyph glyph-name="D" unicode="D" horiz-adv-x="526" 
d="M286 0h-194q-10 0 -10 10v609q0 10 10 10h194q80 0 127.5 -47t47.5 -126v-281q0 -80 -47.5 -127.5t-127.5 -47.5zM159 57h127q45 0 76.5 31t31.5 76v302q0 44 -31.5 75t-76.5 31h-127q-10 0 -10 -10v-495q0 -10 10 -10z" />
    <glyph glyph-name="E" unicode="E" horiz-adv-x="479" 
d="M420 0h-328q-10 0 -10 10v609q0 10 10 10h328q10 0 10 -10v-37q0 -10 -10 -10h-261q-10 0 -10 -10v-204q0 -10 10 -10h214q10 0 10 -10v-37q0 -10 -10 -10h-214q-10 0 -10 -10v-214q0 -10 10 -10h261q10 0 10 -10v-37q0 -10 -10 -10z" />
    <glyph glyph-name="F" unicode="F" horiz-adv-x="453" 
d="M139 0h-47q-10 0 -10 10v609q0 10 10 10h328q10 0 10 -10v-37q0 -10 -10 -10h-261q-10 0 -10 -10v-204q0 -10 10 -10h214q10 0 10 -10v-37q0 -10 -10 -10h-214q-10 0 -10 -10v-271q0 -10 -10 -10z" />
    <glyph glyph-name="G" unicode="G" 
d="M271 -10h-31q-79 0 -126.5 45.5t-47.5 118.5v322q0 73 47.5 118.5t126.5 45.5h50q88 0 134 -54q21 -25 21 -32q0 -6 -7 -9l-36 -18q-8 -4 -11 -4q-4 0 -7 4q-37 55 -94 55h-50q-45 0 -75.5 -30.5t-30.5 -75.5v-322q0 -44 30.5 -75.5t75.5 -31.5h31q43 0 75 31.5t32 75.5
v80q0 10 -10 10h-105q-10 0 -10 10v38q0 10 10 10h173q10 0 10 -10v-138q0 -73 -48 -118.5t-127 -45.5z" />
    <glyph glyph-name="H" unicode="H" horiz-adv-x="557" 
d="M139 0h-47q-10 0 -10 10v609q0 10 10 10h47q10 0 10 -10v-261q0 -10 10 -10h240q10 0 10 10v261q0 10 10 10h48q10 0 10 -10v-609q0 -10 -10 -10h-48q-10 0 -10 10v271q0 10 -10 10h-240q-10 0 -10 -10v-271q0 -10 -10 -10z" />
    <glyph glyph-name="I" unicode="I" horiz-adv-x="230" 
d="M139 0h-47q-10 0 -10 10v609q0 10 10 10h47q10 0 10 -10v-609q0 -10 -10 -10z" />
    <glyph glyph-name="J" unicode="J" horiz-adv-x="417" 
d="M28 87l36 18q8 4 10 4q5 0 8 -5q17 -26 43 -41.5t52 -15.5q43 0 75 31.5t32 75.5v465q0 10 10 10h48q10 0 10 -10v-455q0 -72 -51 -123t-124 -51t-134 61q-22 20 -22 28q0 5 7 8z" />
    <glyph glyph-name="K" unicode="K" horiz-adv-x="526" 
d="M139 0h-47q-10 0 -10 10v609q0 10 10 10h47q10 0 10 -10v-300q0 -12 9 -12q4 0 9 6l238 312q4 4 8 4h53q11 0 11 -8q0 -3 -3 -8l-185 -228q-5 -5 -5 -9t5 -11l210 -340q8 -14 8 -17q0 -8 -11 -8h-60q-6 0 -9 5l-183 299q-5 7 -9 7q-3 0 -8 -5l-78 -98v-198q0 -10 -10 -10
z" />
    <glyph glyph-name="L" unicode="L" horiz-adv-x="453" 
d="M420 0h-328q-10 0 -10 10v609q0 10 10 10h47q10 0 10 -10v-552q0 -10 10 -10h261q10 0 10 -10v-37q0 -10 -10 -10z" />
    <glyph glyph-name="M" unicode="M" horiz-adv-x="652" 
d="M139 0h-47q-10 0 -10 10v609q0 10 10 10h46q6 0 9 -6l164 -380q10 -22 14 -40h3q2 10 15 39l162 381q3 6 9 6h47q10 0 10 -10v-609q0 -10 -10 -10h-47q-10 0 -10 10v238q0 124 9 232l-4 1q-1 -2 -7 -19l-11.5 -32.5t-7.5 -19.5l-138 -310q-3 -6 -9 -6h-20q-6 0 -9 6
l-137 310q-2 4 -7.5 19.5l-11.5 32.5t-7 19l-4 -1q9 -108 9 -232v-238q0 -10 -10 -10z" />
    <glyph glyph-name="N" unicode="N" horiz-adv-x="557" 
d="M139 0h-47q-10 0 -10 10v609q0 10 10 10h46q6 0 9 -5l243 -445q12 -20 18 -36l4 1q-3 36 -3 232v243q0 10 10 10h48q10 0 10 -10v-609q0 -10 -10 -10h-47q-6 0 -9 5l-243 440q-13 23 -18 36l-4 -1q3 -36 3 -232v-238q0 -10 -10 -10z" />
    <glyph glyph-name="O" unicode="O" 
d="M271 -10h-31q-79 0 -126.5 45.5t-47.5 118.5v322q0 73 47.5 118.5t126.5 45.5h31q79 0 127 -45.5t48 -118.5v-322q0 -73 -48 -118.5t-127 -45.5zM240 47h31q43 0 75 31.5t32 75.5v322q0 45 -31.5 75.5t-75.5 30.5h-31q-45 0 -75.5 -30.5t-30.5 -75.5v-322
q0 -44 30.5 -75.5t75.5 -31.5z" />
    <glyph glyph-name="P" unicode="P" horiz-adv-x="484" 
d="M139 0h-47q-10 0 -10 10v609q0 10 10 10h194q80 0 127.5 -47t47.5 -126q0 -71 -48.5 -118t-126.5 -47h-127q-10 0 -10 -10v-271q0 -10 -10 -10zM159 348h127q45 0 76.5 31.5t31.5 76.5v10q0 44 -31.5 75t-76.5 31h-127q-10 0 -10 -10v-204q0 -10 10 -10z" />
    <glyph glyph-name="Q" unicode="Q" 
d="M274 -94h-37q-10 0 -10 10v65q0 8 -10 10q-72 10 -111.5 54t-39.5 109v322q0 73 47.5 118.5t126.5 45.5h31q79 0 127 -45.5t48 -118.5v-322q0 -64 -41 -108.5t-113 -54.5q-8 -1 -8 -10v-65q0 -10 -10 -10zM227 60v49q0 10 10 10h37q10 0 10 -10v-48q0 -9 7 -9q9 0 33 12
q54 30 54 90v322q0 45 -31.5 75.5t-75.5 30.5h-31q-45 0 -75.5 -30.5t-30.5 -75.5v-322q0 -58 51 -89q24 -15 34 -15q8 0 8 10z" />
    <glyph glyph-name="R" unicode="R" 
d="M139 0h-47q-10 0 -10 10v609q0 10 10 10h194q80 0 127.5 -47t47.5 -126v-11q0 -38 -29 -77.5t-66 -54.5q-6 -3 -6 -7q0 -2 4 -12l90 -261q8 -20 8 -25q0 -8 -10 -8h-54q-7 0 -9 7l-96 278q-1 6 -8 6h-126q-10 0 -10 -10v-271q0 -10 -10 -10zM159 348h127q45 0 76.5 31.5
t31.5 76.5v10q0 44 -31.5 75t-76.5 31h-127q-10 0 -10 -10v-204q0 -10 10 -10z" />
    <glyph glyph-name="S" unicode="S" horiz-adv-x="462" 
d="M243 -10h-43q-89 0 -135 54q-20 24 -20 33q0 5 6 8l38 20q1 0 3 1q4 2 6 2q5 0 8 -5q37 -56 94 -56h43q45 0 76.5 31t31.5 76q0 25 -10 45.5t-32 37t-41 26.5t-52 25l-47.5 22.5t-42 25.5t-39.5 35t-23.5 44.5t-10.5 60.5q0 73 47.5 118.5t126.5 45.5h16q88 0 134 -53
q22 -26 22 -33q0 -6 -7 -9l-34 -17q-10 -5 -13 -5q-4 0 -7 4q-37 55 -95 55h-16q-44 0 -75 -30.5t-31 -75.5q0 -23 10 -41t34.5 -34.5t42.5 -25.5t55 -26q27 -12 45 -22t41 -27.5t36.5 -36.5t23 -47t9.5 -62q0 -73 -47.5 -118.5t-127.5 -45.5z" />
    <glyph glyph-name="T" unicode="T" horiz-adv-x="396" 
d="M222 0h-47q-10 0 -10 10v552q0 10 -10 10h-121q-10 0 -10 10v37q0 10 10 10h329q10 0 10 -10v-37q0 -10 -10 -10h-121q-10 0 -10 -10v-552q0 -10 -10 -10z" />
    <glyph glyph-name="U" unicode="U" 
d="M271 -10h-31q-79 0 -126.5 45.5t-47.5 118.5v465q0 10 10 10h48q10 0 10 -10v-465q0 -44 30.5 -75.5t75.5 -31.5h31q43 0 75 31.5t32 75.5v465q0 10 10 10h48q10 0 10 -10v-465q0 -73 -48 -118.5t-127 -45.5z" />
    <glyph glyph-name="V" unicode="V" horiz-adv-x="448" 
d="M242 0h-36q-9 0 -10 7l-180 589q-1 4 -3 10t-3 9.5t-1 5.5q0 8 11 8h51q9 0 10 -7l133 -469q1 -3 3 -11t4 -17.5t3 -11.5h5q1 2 3 11.5t4 17.5t3 11l128 469q1 7 10 7h51q11 0 11 -8q0 -4 -9 -31l-178 -583q-1 -7 -10 -7z" />
    <glyph glyph-name="W" unicode="W" horiz-adv-x="674" 
d="M195 0h-36q-8 0 -10 8l-128 590q-4 14 -4 23q0 8 10 8h52q8 0 10 -8l84 -428q2 -12 10 -45h5q0 2 3 12.5t5 19.5t3 12l122 432q1 7 10 7h14q9 0 10 -7l119 -433l6 -24t5 -21h5q1 5 5.5 24.5t4.5 21.5l85 429q2 8 10 8h52q10 0 10 -8q0 -6 -7 -36l-126 -577q-2 -8 -10 -8
h-36q-9 0 -10 7l-118 403q-1 3 -5 22.5t-5 21.5h-4q0 -2 -3 -12.5t-5 -19.5t-3 -12l-120 -403q-1 -7 -10 -7z" />
    <glyph glyph-name="X" unicode="X" horiz-adv-x="457" 
d="M97 0h-56q-11 0 -11 8q0 5 13 29l135 266q5 10 5 12q0 3 -5 13l-137 270q-10 18 -10 23q0 8 11 8h55q5 0 9 -6l117 -239q3 -8 9 -8t9 8l110 239q3 6 9 6h55q11 0 11 -8q0 -2 -12 -26l-134 -266l-5 -13q0 -6 5 -13l136 -271q11 -22 11 -24q0 -8 -11 -8h-56q-6 0 -9 6
l-110 238q-3 8 -9 8t-9 -8l-117 -238q-4 -6 -9 -6z" />
    <glyph glyph-name="Y" unicode="Y" horiz-adv-x="448" 
d="M248 0h-49q-10 0 -10 10v281l-155 293q-18 32 -18 37q0 8 11 8h57q5 0 9 -6l123 -252q3 -8 9 -8t9 8l121 252q4 6 9 6h57q11 0 11 -8q0 -4 -20 -41l-154 -289v-281q0 -10 -10 -10z" />
    <glyph glyph-name="Z" unicode="Z" horiz-adv-x="438" 
d="M384 0h-338q-10 0 -10 8q0 3 13 33l221 497q10 25 10 26q0 8 -10 8h-215q-10 0 -10 10v37q0 10 10 10h315q10 0 10 -8q0 -3 -10 -26l-221 -493q-15 -32 -15 -37q0 -8 10 -8h240q10 0 10 -10v-37q0 -10 -10 -10z" />
    <glyph glyph-name="bracketleft" unicode="[" horiz-adv-x="387" 
d="M281 -187h-141q-10 0 -10 10v900q0 10 10 10h141q10 0 10 -10v-37q0 -10 -10 -10h-73q-10 0 -10 -10v-786q0 -10 10 -10h73q10 0 10 -10v-37q0 -10 -10 -10z" />
    <glyph glyph-name="backslash" unicode="\" horiz-adv-x="305" 
d="M300 0h-34q-6 0 -9 6l-242 565q-20 48 -20 51q0 8 10 8h34q6 0 9 -6l244 -571q19 -44 19 -45q0 -8 -11 -8z" />
    <glyph glyph-name="bracketright" unicode="]" horiz-adv-x="387" 
d="M248 -187h-141q-10 0 -10 10v37q0 10 10 10h74q10 0 10 10v786q0 10 -10 10h-74q-10 0 -10 10v37q0 10 10 10h141q10 0 10 -10v-900q0 -10 -10 -10z" />
    <glyph glyph-name="asciicircum" unicode="^" 
d="M56 312l187 328h24l187 -328h-55l-143 262h-2l-143 -262h-55z" />
    <glyph glyph-name="underscore" unicode="_" horiz-adv-x="200" 
d="M205 -225h-210q-10 0 -10 10v25q0 10 10 10h210q10 0 10 -10v-25q0 -10 -10 -10z" />
    <glyph glyph-name="grave" unicode="`" horiz-adv-x="500" 
d="M265 505h-20q-6 0 -11 5l-114 102q-4 4 -4 8q0 9 11 9h66q7 0 11 -6l69 -102q3 -4 3 -8q0 -8 -11 -8z" />
    <glyph glyph-name="a" unicode="a" horiz-adv-x="462" 
d="M222 0h-40q-54 0 -90 32.5t-36 84.5v6q0 52 36 84t90 32h132q10 0 10 9v41q0 44 -31 74t-76 30q-57 0 -94 -55q-3 -5 -8 -5q-3 0 -11 4l-36 19q-6 3 -6 8q0 6 19 30q46 56 136 56q79 0 127 -44t48 -117v-279q0 -10 -10 -10h-37q-10 0 -10 10v43q0 12 -9 12q-4 0 -9 -5
q-23 -26 -49.5 -43t-45.5 -17zM182 57h40q32 0 60.5 26t41.5 61v38q0 10 -10 10h-132q-25 0 -42 -17t-17 -42v-16q0 -24 17.5 -42t41.5 -18z" />
    <glyph glyph-name="b" unicode="b" horiz-adv-x="474" 
d="M118 0h-37q-10 0 -10 10v609q0 10 10 10h48q10 0 10 -10v-226q0 -11 8 -11q4 0 9 5q45 55 99 55q70 0 117.5 -46t47.5 -117v-115q0 -73 -48 -118.5t-127 -45.5q-54 0 -99 57q-4 5 -9 5q-9 0 -9 -11v-41q0 -10 -10 -10zM352 164v115q0 43 -31.5 74.5t-75.5 31.5t-75 -31
t-31 -75v-115q0 -44 31.5 -75.5t74.5 -31.5t75 31.5t32 75.5z" />
    <glyph glyph-name="c" unicode="c" horiz-adv-x="425" 
d="M344 103l34 -17q7 -4 7 -9q0 -6 -22 -33q-46 -54 -134 -54q-79 0 -126 45.5t-47 118.5v135q0 73 47 118t126 45q89 0 134 -52q22 -26 22 -33q0 -5 -7 -9l-36 -18q-8 -4 -11 -4q-4 0 -7 4q-39 55 -95 55q-44 0 -75 -31t-31 -75v-135q0 -44 31.5 -75.5t74.5 -31.5
q56 0 95 57q3 4 7 4q3 0 13 -5z" />
    <glyph glyph-name="d" unicode="d" horiz-adv-x="474" 
d="M394 0h-37q-10 0 -10 10v43q0 11 -9 11q-5 0 -9 -5q-46 -59 -100 -59q-79 0 -126 45.5t-47 118.5v115q0 71 46.5 117t116.5 46q55 0 99 -57q4 -5 9 -5q9 0 9 11v228q0 10 10 10h48q10 0 10 -10v-609q0 -10 -10 -10zM336 164v115q0 43 -31.5 74.5t-75.5 31.5t-75 -31
t-31 -75v-115q0 -44 31.5 -75.5t74.5 -31.5t75 31.5t32 75.5z" />
    <glyph glyph-name="e" unicode="e" horiz-adv-x="458" 
d="M342 104l36 -18q7 -4 7 -9q0 -7 -22 -33q-46 -54 -134 -54q-79 0 -126 45.5t-47 118.5v135q0 62 48.5 112.5t124.5 50.5t125.5 -50.5t49.5 -112.5v-61q0 -10 -10 -10h-261q-10 0 -10 -10v-54q0 -44 31.5 -75.5t74.5 -31.5q56 0 95 57q3 4 7 4q1 0 11 -4zM133 265h193
q10 0 10 10v14q0 43 -31.5 74.5t-75.5 31.5t-75 -31t-31 -75v-14q0 -10 10 -10z" />
    <glyph glyph-name="f" unicode="f" horiz-adv-x="276" 
d="M144 0h-47q-10 0 -10 10v318q0 10 -10 10h-27q-10 0 -10 10v37q0 10 10 10h27q10 0 10 10v61q0 73 50.5 123.5t122.5 50.5q13 0 31 -2q9 -1 9 -10l-13 -40q-2 -7 -9 -7q-2 0 -8 0.5t-10 0.5q-44 0 -75 -30.5t-31 -75.5v-71q0 -10 10 -10h74q10 0 10 -10v-37
q0 -10 -10 -10h-74q-10 0 -10 -10v-318q0 -10 -10 -10z" />
    <glyph glyph-name="g" unicode="g" horiz-adv-x="458" 
d="M323 -225h-141q-54 0 -90 31.5t-36 84.5v6q0 50 62 93q5 2 5 8q0 4 -7 16q-13 23 -13 45q0 26 15 51q10 17 10 18q0 4 -14 16q-58 49 -58 125v10q0 71 49.5 117t123.5 46q54 0 100 -58q4 -5 9 -5q9 0 9 11v42q0 10 10 10h37q10 0 10 -10v-163q0 -71 -50.5 -117.5
t-124.5 -46.5q-14 0 -32 2q-37 -16 -37 -48q0 -16 10.5 -30t25.5 -18h127q55 0 91.5 -31t36.5 -83v-6q0 -53 -37 -84.5t-91 -31.5zM336 269v10q0 43 -31.5 74.5t-75.5 31.5t-75 -31t-31 -75v-10q0 -44 31.5 -75.5t74.5 -31.5t75 32t32 75zM182 -168h141q26 0 43 16.5
t17 42.5v6q0 24 -18 40t-42 16h-141q-25 0 -42 -16t-17 -40v-6q0 -26 16.5 -42.5t42.5 -16.5z" />
    <glyph glyph-name="h" unicode="h" horiz-adv-x="484" 
d="M129 0h-48q-10 0 -10 10v609q0 10 10 10h48q10 0 10 -10v-226q0 -11 8 -11q4 0 9 5q45 55 99 55q70 0 117.5 -46t47.5 -117v-269q0 -10 -10 -10h-48q-10 0 -10 10v269q0 43 -31.5 74.5t-75.5 31.5t-75 -31t-31 -75v-269q0 -10 -10 -10z" />
    <glyph glyph-name="i" unicode="i" horiz-adv-x="209" 
d="M149 596q0 -18 -13.5 -31.5t-31.5 -13.5q-19 0 -31 13t-12 32q0 17 13 30.5t30 13.5q19 0 32 -12.5t13 -31.5zM129 0h-48q-10 0 -10 10v422q0 10 10 10h48q10 0 10 -10v-422q0 -10 -10 -10z" />
    <glyph glyph-name="j" unicode="j" horiz-adv-x="209" 
d="M149 596q0 -18 -13.5 -31.5t-31.5 -13.5q-19 0 -31 13t-12 32q0 17 13 30.5t30 13.5q19 0 32 -12.5t13 -31.5zM-22 -225v38q0 8 8 10q39 9 62 37.5t23 66.5v505q0 10 10 10h48q10 0 10 -10v-494q0 -53 -29 -96t-78 -64q-28 -13 -45 -13q-9 0 -9 10z" />
    <glyph glyph-name="k" unicode="k" horiz-adv-x="447" 
d="M129 0h-48q-10 0 -10 10v609q0 10 10 10h48q10 0 10 -10v-346q0 -11 9 -11q4 0 8 4l155 171q3 5 10 5h50q11 0 11 -8q0 -5 -4 -9l-117 -118q-9 -11 -9 -13q0 -4 7 -15l156 -251q10 -16 10 -20q0 -8 -11 -8h-57q-6 0 -9 5l-138 228q-3 6 -8 6q-4 0 -8 -4l-55 -56v-169
q0 -10 -10 -10z" />
    <glyph glyph-name="l" unicode="l" horiz-adv-x="209" 
d="M129 0h-48q-10 0 -10 10v609q0 10 10 10h48q10 0 10 -10v-609q0 -10 -10 -10z" />
    <glyph glyph-name="m" unicode="m" horiz-adv-x="729" 
d="M129 0h-48q-10 0 -10 10v422q0 10 10 10h37q10 0 10 -10v-40q0 -12 8 -12q4 0 9 5q25 30 53 43.5t47 13.5q70 0 112 -59q3 -5 8 -5q3 0 8 5q45 59 121 59q71 0 118 -46t47 -117v-269q0 -10 -10 -10h-48q-10 0 -10 10v269q0 43 -31 74.5t-66 31.5q-33 0 -64 -32t-31 -74
v-269q0 -10 -10 -10h-48q-10 0 -10 10v269q0 43 -31 74.5t-66 31.5q-34 0 -64.5 -32t-30.5 -74v-269q0 -10 -10 -10z" />
    <glyph glyph-name="n" unicode="n" horiz-adv-x="490" 
d="M129 0h-48q-10 0 -10 10v422q0 10 10 10h37q10 0 10 -10v-40q0 -11 9 -11q5 0 9 5q45 56 99 56q79 0 127 -45.5t48 -117.5v-269q0 -10 -10 -10h-48q-10 0 -10 10v269q0 43 -31.5 74.5t-75.5 31.5t-75 -31t-31 -75v-269q0 -10 -10 -10z" />
    <glyph glyph-name="o" unicode="o" horiz-adv-x="458" 
d="M56 154v135q0 73 47 118t126 45t127 -45t48 -118v-135q0 -73 -48 -118.5t-127 -45.5t-126 45.5t-47 118.5zM336 154v135q0 43 -31.5 74.5t-75.5 31.5t-75 -31t-31 -75v-135q0 -44 31.5 -75.5t74.5 -31.5t75 31.5t32 75.5z" />
    <glyph glyph-name="p" unicode="p" horiz-adv-x="474" 
d="M129 -225h-48q-10 0 -10 10v647q0 10 10 10h37q10 0 10 -10v-40q0 -11 9 -11q5 0 9 5q45 56 99 56q79 0 127 -45.5t48 -117.5v-115q0 -71 -47.5 -117.5t-117.5 -46.5q-51 0 -99 57q-5 5 -9 5q-8 0 -8 -12v-265q0 -10 -10 -10zM352 164v115q0 43 -31.5 74.5t-75.5 31.5
t-75 -31t-31 -75v-115q0 -44 31.5 -75.5t74.5 -31.5t75 31.5t32 75.5z" />
    <glyph glyph-name="q" unicode="q" horiz-adv-x="474" 
d="M394 -225h-48q-10 0 -10 10v267q0 11 -9 11q-5 0 -9 -5q-45 -58 -99 -58q-70 0 -116.5 46.5t-46.5 117.5v115q0 73 47 118t126 45q54 0 100 -58q4 -5 9 -5q9 0 9 11v42q0 10 10 10h37q10 0 10 -10v-647q0 -10 -10 -10zM336 164v115q0 43 -31.5 74.5t-75.5 31.5t-75 -31
t-31 -75v-115q0 -44 31.5 -75.5t74.5 -31.5t75 31.5t32 75.5z" />
    <glyph glyph-name="r" unicode="r" horiz-adv-x="298" 
d="M129 0h-48q-10 0 -10 10v422q0 10 10 10h37q10 0 10 -10v-50q0 -11 9 -11q5 0 9 5q25 32 52 49t47 17h17q10 0 10 -10v-49q0 -10 -12 -10h-15q-45 0 -75.5 -30t-30.5 -74v-259q0 -10 -10 -10z" />
    <glyph glyph-name="s" unicode="s" horiz-adv-x="438" 
d="M231 -10h-31q-86 0 -134 55q-20 24 -20 31q0 5 7 8l35 17q4 3 9 3t8 -5q34 -56 95 -56h31q44 0 68 22.5t24 54.5q0 14 -8 25.5t-20 19t-33 14t-38 10.5t-44 9q-24 5 -39.5 9t-35.5 12.5t-31 20t-19.5 30t-8.5 43.5q0 64 44 101.5t110 37.5h31q84 0 131 -51q22 -24 22 -32
q0 -5 -7 -9l-30 -15q-2 -1 -4.5 -2t-4.5 -2t-3 -1q-5 0 -8 5q-37 54 -96 54h-31q-89 0 -89 -69q0 -13 4.5 -23t16.5 -18t21.5 -13.5t30.5 -11t31.5 -8t36.5 -7.5q30 -6 50 -12t42.5 -18.5t34 -33.5t11.5 -51q0 -62 -42 -103t-117 -41z" />
    <glyph glyph-name="t" unicode="t" horiz-adv-x="308" 
d="M253 40v-39q0 -10 -9 -10q-14 0 -41 9q-53 17 -82 57.5t-29 96.5v221q0 10 -10 10h-58q-10 0 -10 10v19l109 115q7 7 12 7h15q10 0 10 -10v-74q0 -10 10 -10h73q10 0 10 -10v-37q0 -10 -10 -10h-73q-10 0 -10 -10v-221q0 -38 23 -66.5t62 -37.5q8 -2 8 -10z" />
    <glyph glyph-name="u" unicode="u" horiz-adv-x="479" 
d="M399 0h-37q-10 0 -10 10v43q0 11 -9 11q-5 0 -9 -5q-46 -59 -100 -59q-79 0 -126 45.5t-47 118.5v268q0 10 10 10h47q10 0 10 -10v-268q0 -44 31.5 -75.5t74.5 -31.5q45 0 76.5 31t31.5 76v268q0 10 10 10h47q10 0 10 -10v-422q0 -10 -10 -10z" />
    <glyph glyph-name="v" unicode="v" horiz-adv-x="427" 
d="M234 0h-40q-6 0 -9 6l-163 402q-9 23 -9 26q0 8 10 8h49q6 0 9 -6l120 -303q9 -23 11 -39h4q2 16 11 39l119 303q3 6 9 6h50q10 0 10 -8q0 -1 -9 -26l-163 -402q-3 -6 -9 -6z" />
    <glyph glyph-name="w" unicode="w" horiz-adv-x="611" 
d="M195 0h-36q-9 0 -10 7l-123 402q-1 3 -2.5 9t-3 10t-1.5 6q0 8 11 8h52q9 0 10 -7l73 -283q1 -5 4.5 -18l5.5 -21h4l5.5 21t4.5 18l79 283q1 7 10 7h56q9 0 10 -7l78 -283q7 -23 10 -39h4l5.5 21t4.5 18l73 283q1 7 10 7h52q11 0 11 -8q0 -4 -8 -28l-122 -399
q-1 -7 -10 -7h-36q-9 0 -10 7l-88 298q-5 17 -10 39h-4q-5 -22 -10 -39l-89 -298q-1 -7 -10 -7z" />
    <glyph glyph-name="x" unicode="x" horiz-adv-x="404" 
d="M85 0h-56q-10 0 -10 8q0 5 11 21l119 183q5 7 5 12q0 4 -5 11l-118 180q-10 16 -10 19q0 8 10 8h54q5 0 8 -5l101 -161q2 -5 9 -5q5 0 8 5l100 161q3 5 8 5h54q10 0 10 -8q0 -4 -15 -27l-113 -173q-5 -8 -5 -11t5 -11l118 -183q11 -18 11 -21q0 -8 -10 -8h-55q-6 0 -9 5
l-100 162q-2 5 -8 5t-8 -5l-101 -162q-3 -5 -8 -5z" />
    <glyph glyph-name="y" unicode="y" horiz-adv-x="479" 
d="M86 -139l36 18q8 4 10 4q5 0 8 -5q37 -56 94 -56q45 0 76.5 31t31.5 76v119q0 11 -9 11q-5 0 -9 -5q-41 -54 -90 -54q-79 0 -126 45.5t-47 118.5v268q0 10 10 10h47q10 0 10 -10v-268q0 -44 31.5 -75.5t74.5 -31.5q51 0 79.5 34t28.5 73v268q0 10 10 10h47q10 0 10 -10
v-492q0 -79 -45.5 -127t-129.5 -48q-86 0 -132 53q-23 28 -23 34t7 9z" />
    <glyph glyph-name="z" unicode="z" horiz-adv-x="427" 
d="M377 0h-322q-11 0 -11 8q0 6 9 19l198 342q2 3 2 7q0 8 -11 8h-192q-10 0 -10 10v37q0 10 10 10h303q11 0 11 -8q0 -3 -9 -19l-200 -342q-2 -3 -2 -7q0 -8 11 -8h213q10 0 10 -10v-37q0 -10 -10 -10z" />
    <glyph glyph-name="braceleft" unicode="{" horiz-adv-x="440" 
d="M344 -137v-39q0 -10 -9 -10q-27 0 -65 20q-87 46 -87 154v150q0 38 -23 66t-62 37q-8 2 -8 10v44q0 8 8 10q39 9 62 37.5t23 66.5v151q0 55 25.5 96.5t72.5 61.5q32 14 54 14q9 0 9 -10v-39q0 -8 -8 -10q-39 -8 -62 -36.5t-23 -66.5v-172q0 -32 -24 -69.5t-58 -51.5v-4
q33 -13 57.5 -56t24.5 -76v-164q0 -38 23 -66.5t62 -37.5q8 -2 8 -10z" />
    <glyph glyph-name="bar" unicode="|" horiz-adv-x="240" 
d="M97 -250v1000h46v-1000h-46z" />
    <glyph glyph-name="braceright" unicode="}" horiz-adv-x="440" 
d="M96 -176v39q0 8 8 10q39 9 62 37.5t23 66.5v164q0 33 24.5 76t57.5 56v4q-34 14 -58 51.5t-24 69.5v172q0 38 -23 66.5t-62 36.5q-8 2 -8 10v39q0 10 9 10q22 0 54 -14q47 -20 72.5 -61.5t25.5 -96.5v-151q0 -38 23 -66.5t62 -37.5q8 -2 8 -10v-44q0 -8 -8 -10
q-39 -9 -62 -37t-23 -66v-150q0 -108 -87 -154q-38 -20 -65 -20q-9 0 -9 10z" />
    <glyph glyph-name="asciitilde" unicode="~" 
d="M84 183l-30 32q47 75 113 75q48 0 95 -31q48 -31 80 -31q48 0 83 62l30 -32q-47 -75 -112 -75q-48 0 -96 31t-81 31q-47 0 -82 -62z" />
    <glyph glyph-name="uni00A0" unicode="&#xa0;" 
 />
    <glyph glyph-name="exclamdown" unicode="&#xa1;" horiz-adv-x="289" 
d="M195 409q0 -20 -15 -35t-35 -15q-21 0 -35 14.5t-14 35.5q0 19 14.5 33.5t34.5 14.5t35 -14.5t15 -33.5zM169 -187h-49q-10 0 -10 10v257l21 166q1 9 10 9h6q9 0 10 -9l22 -165v-258q0 -10 -10 -10z" />
    <glyph glyph-name="cent" unicode="&#xa2;" 
d="M271 -75h-25q-10 0 -10 10v66q0 8 -8 10q-69 13 -106 55.5t-37 106.5v135q0 63 37 106t106 56q8 2 8 10v65q0 10 10 10h25q10 0 10 -10v-65q0 -9 7 -10q70 -11 108 -57q18 -22 18 -28q0 -5 -6 -8l-35 -19q-10 -5 -11 -5q-5 0 -8 5q-15 22 -37 37q-17 12 -28 12
q-8 0 -8 -12v-313q0 -9 7 -9q9 0 24 10q22 13 41 40q3 5 8 5q3 0 11 -5l36 -19q6 -3 6 -8q0 -10 -26 -38q-37 -39 -100 -48q-7 -1 -7 -10v-65q0 -10 -10 -10zM236 82v315q0 10 -9 10q-11 0 -32 -15q-42 -30 -42 -84v-135q0 -56 49 -89q17 -12 26 -12q8 0 8 10z" />
    <glyph glyph-name="sterling" unicode="&#xa3;" 
d="M436 0h-422q-10 0 -10 10v37q0 10 10 10h37q40 7 66.5 37t26.5 70v117q0 10 -10 10h-27q-10 0 -10 10v37q0 10 10 10h27q10 0 10 10v108q0 73 50.5 123.5t123.5 50.5q88 0 134 -54q21 -25 21 -32q0 -6 -7 -9l-36 -18q-8 -4 -11 -4q-4 0 -7 4q-37 55 -94 55
q-45 0 -75.5 -30.5t-30.5 -75.5v-118q0 -10 10 -10h73q10 0 10 -10v-37q0 -10 -10 -10h-73q-10 0 -10 -10v-127q0 -25 -17.5 -55.5t-17.5 -32.5q0 -9 11 -9h248q10 0 10 -10v-37q0 -10 -10 -10z" />
    <glyph glyph-name="currency" unicode="&#xa4;" horiz-adv-x="616" 
d="M525 174l-36 -38l-67 67q-50 -41 -117 -41q-68 0 -117 41l-67 -67q-12 12 -36 38l67 64q-39 54 -39 116q0 69 39 116l-67 65q24 26 36 38l67 -67q53 40 117 40q69 0 116 -40l68 67l36 -38l-67 -65q39 -51 39 -116q0 -63 -39 -116zM446 355q0 60 -43 100t-97 40
q-60 0 -101 -41.5t-41 -98.5t41.5 -99t99.5 -42t99.5 41.5t41.5 99.5z" />
    <glyph glyph-name="yen" unicode="&#xa5;" 
d="M280 0h-48q-10 0 -10 10v74q0 10 -10 10h-157q-10 0 -10 10v36q0 10 10 10h157q10 0 10 10v90q0 10 -10 10h-157q-10 0 -10 10v37q0 10 10 10h135q11 0 11 8q0 3 -5 13l-140 263q-9 18 -9 20q0 8 11 8h57q5 0 9 -6l123 -252q3 -8 9 -8t9 8l121 252q4 6 9 6h57q11 0 11 -8
q0 -6 -13 -28l-136 -255q-5 -10 -5 -13q0 -8 11 -8h136q10 0 10 -10v-37q0 -10 -10 -10h-156q-10 0 -10 -10v-90q0 -10 10 -10h156q10 0 10 -10v-36q0 -10 -10 -10h-156q-10 0 -10 -10v-74q0 -10 -10 -10z" />
    <glyph glyph-name="brokenbar" unicode="&#xa6;" horiz-adv-x="240" 
d="M97 365v368h46v-368h-46zM97 -187v368h46v-368h-46z" />
    <glyph glyph-name="section" unicode="&#xa7;" 
d="M272 -234h-44q-89 0 -135 56q-20 24 -20 31q0 5 7 9l34 17q10 5 12 5q5 0 8 -5q37 -56 94 -56h44q44 0 75.5 31.5t31.5 75.5q0 34 -22 59.5t-55 40t-71.5 34t-71.5 40t-55 59t-22 90.5q0 55 27 95l10 17q0 2 -2 5.5t-5.5 7.5t-4.5 6q-25 38 -25 92q0 73 47 118.5
t126 45.5h17q87 0 134 -54q22 -27 22 -32q0 -6 -7 -9l-36 -18q-6 -4 -11 -4q-4 0 -7 4q-40 55 -95 55h-17q-44 0 -75 -30.5t-31 -75.5q0 -26 16.5 -46t42.5 -34t58 -27.5t64 -31t58 -40t42.5 -59.5t16.5 -84q0 -48 -23 -85q-1 -1 -4.5 -6t-6 -9t-2.5 -7q0 -2 12 -22
q24 -44 24 -95q0 -73 -48 -118.5t-127 -45.5zM379 154q0 17 -4.5 31.5t-15.5 27t-20 21.5t-29 20l-31 17t-37.5 18.5l-37.5 17.5q-24 13 -27 13q-5 0 -8 -5q-20 -30 -20 -62q0 -21 9 -38t29.5 -32.5t37.5 -25t52 -26t53 -26.5q19 -11 24 -11q6 0 9 6q16 29 16 54z" />
    <glyph glyph-name="dieresis" unicode="&#xa8;" horiz-adv-x="500" 
d="M375 559q0 -18 -13.5 -31.5t-31.5 -13.5q-19 0 -31 13t-12 32t12 31t31 12t32 -12t13 -31zM212 559q0 -19 -12.5 -32t-31.5 -13t-31.5 13t-12.5 32t12.5 31t31.5 12t31.5 -12t12.5 -31z" />
    <glyph glyph-name="copyright" unicode="&#xa9;" horiz-adv-x="700" 
d="M440 -75h-180q-82 0 -131 47t-49 123v290q0 76 49 123t131 47h180q82 0 131 -47t49 -123v-290q0 -76 -49 -123t-131 -47zM260 -30h180q61 0 98 34.5t37 90.5v290q0 56 -37 90.5t-98 34.5h-180q-61 0 -98 -34.5t-37 -90.5v-290q0 -56 37 -90.5t98 -34.5zM433 162l24 -13
q6 -3 6 -8q0 -8 -15 -25q-34 -39 -99 -39q-57 0 -92 33t-35 87v99q0 53 34.5 85.5t92.5 32.5q61 0 93 -34q19 -21 19 -29q0 -5 -5 -7l-23 -12q-8 -4 -11 -4q-5 0 -8 4q-27 37 -65 37q-31 0 -52.5 -21t-21.5 -52v-99q0 -30 22 -52t52 -22q38 0 65 39q3 5 8 5q1 0 11 -5z" />
    <glyph glyph-name="ordfeminine" unicode="&#xaa;" horiz-adv-x="318" 
d="M150 315h-28q-40 0 -66.5 24t-26.5 63v4q0 39 26.5 62.5t66.5 23.5h87q7 0 7 8v22q0 29 -20 48.5t-49 19.5q-41 0 -63 -35q-5 -7 -9 -7q-2 0 -10 4l-25 13q-7 3 -7 10q0 9 16 27q35 38 97 38q58 0 93 -32.5t35 -85.5v-195q0 -12 -12 -12h-26q-12 0 -12 12v26q0 7 -4 7
t-7 -5q-33 -40 -63 -40zM122 365h28q21 0 39.5 17.5t26.5 39.5v20q0 7 -7 7h-87q-15 0 -26 -10.5t-11 -25.5v-11q0 -15 11 -26t26 -11z" />
    <glyph glyph-name="guillemotleft" unicode="&#xab;" horiz-adv-x="556" 
d="M474 106l-191 136q-4 4 -4 8v55q0 4 4 8l191 135q4 3 8 3q8 0 8 -11v-42q0 -4 -4 -8l-145 -104q-5 -5 -5 -8t5 -8l145 -105q4 -4 4 -8v-43q0 -11 -8 -11q-4 0 -8 3zM249 107l-189 135q-4 4 -4 8v55q0 4 4 8l189 135q5 3 8 3q8 0 8 -11v-42q0 -4 -4 -8l-145 -104
q-5 -5 -5 -8t5 -8l145 -105q4 -4 4 -8v-42q0 -11 -8 -11q-3 0 -8 3z" />
    <glyph glyph-name="logicalnot" unicode="&#xac;" 
d="M456 120h-30q-10 0 -10 10v167q0 10 -10 10h-351q-10 0 -10 10v26q0 10 10 10h401q10 0 10 -10v-213q0 -10 -10 -10z" />
    <glyph glyph-name="uni00AD" unicode="&#xad;" horiz-adv-x="261" 
d="M202 187h-142q-10 0 -10 10v48q0 10 10 10h142q10 0 10 -10v-48q0 -10 -10 -10z" />
    <glyph glyph-name="registered" unicode="&#xae;" horiz-adv-x="420" 
d="M212 270h-4q-82 0 -131 47t-49 123v20q0 76 49 123t131 47h4q82 0 131 -47t49 -123v-20q0 -76 -49 -123t-131 -47zM208 300h4q68 0 109 38.5t41 101.5v20q0 63 -41 101.5t-109 38.5h-4q-68 0 -109 -38.5t-41 -101.5v-20q0 -63 41 -101.5t109 -38.5zM169 360h-11
q-10 0 -10 10v168q0 10 10 10h63q29 0 46 -17t17 -46v-4q0 -25 -26 -45q-4 -3 -4 -7l3 -9l21 -42q4 -6 4 -10q0 -8 -11 -8h-16q-6 0 -9 6l-23 53q-3 6 -9 6h-25q-10 0 -10 -10v-45q0 -10 -10 -10zM189 453h32q13 0 22 9t9 23v3q0 14 -9 23t-22 9h-32q-10 0 -10 -10v-47
q0 -10 10 -10z" />
    <glyph glyph-name="macron" unicode="&#xaf;" horiz-adv-x="500" 
d="M347 523h-194q-10 0 -10 10v37q0 10 10 10h194q10 0 10 -10v-37q0 -10 -10 -10z" />
    <glyph glyph-name="degree" unicode="&#xb0;" horiz-adv-x="266" 
d="M43 455v100q0 38 24.5 61.5t65.5 23.5t65.5 -23.5t24.5 -61.5v-100q0 -38 -24.5 -61.5t-65.5 -23.5t-65.5 23.5t-24.5 61.5zM173 455v100q0 16 -12 28t-28 12t-28 -12t-12 -28v-100q0 -16 12 -28t28 -12t28 12t12 28z" />
    <glyph glyph-name="plusminus" unicode="&#xb1;" 
d="M269 94h-26q-10 0 -10 10v167q0 10 -10 10h-168q-10 0 -10 10v27q0 10 10 10h168q10 0 10 10v167q0 10 10 10h26q10 0 10 -10v-167q0 -10 10 -10h167q10 0 10 -10v-27q0 -10 -10 -10h-167q-10 0 -10 -10v-167q0 -10 -10 -10zM456 0h-401q-10 0 -10 10v27q0 10 10 10h401
q10 0 10 -10v-27q0 -10 -10 -10z" />
    <glyph glyph-name="two.superior" unicode="&#xb2;" horiz-adv-x="337" 
d="M279 380h-224q-6 0 -6 5v41q0 27 8.5 46.5t25.5 32.5t31 19.5t37 14.5q7 3 20 7t18.5 6t14.5 6t13 7.5t8.5 8t6 10.5t1.5 14q0 24 -15.5 39t-45.5 15h-26q-35 0 -58 -36q-3 -3 -5 -3q-3 0 -15 6l-26 12q-5 3 -5 7q0 8 20 28q32 35 89 35h26q55 0 85.5 -29t30.5 -76
q0 -17 -5.5 -30.5t-11 -21.5t-20.5 -16.5t-21 -11t-27 -10t-24 -8.5q-53 -21 -63 -33q-10 -10 -10 -25v-7q0 -5 7 -5h166q6 0 6 -5v-38q0 -5 -6 -5z" />
    <glyph glyph-name="three.superior" unicode="&#xb3;" horiz-adv-x="337" 
d="M168 375h-20q-57 0 -89 27q-17 14 -17 28q0 6 11 10l21 9q1 0 3 1q4 2 6 2q3 0 9 -6q23 -23 56 -23h20q26 0 44.5 11.5t18.5 27.5v17q0 16 -18.5 27.5t-44.5 11.5h-45q-12 0 -12 8v31q0 10 12 10h45q27 0 45 11.5t18 28.5v7q0 16 -18.5 27.5t-44.5 11.5h-20
q-36 0 -56 -23q-6 -6 -9 -6q-4 0 -14 5l-23 10q-5 2 -5 7q0 12 17 27q31 28 90 28h20q54 0 86.5 -25t32.5 -67v-7q0 -35 -41 -60q41 -23 41 -61v-15q0 -42 -32.5 -66.5t-86.5 -24.5z" />
    <glyph glyph-name="acute" unicode="&#xb4;" horiz-adv-x="500" 
d="M255 505h-20q-11 0 -11 8q0 3 3 8l69 102q4 6 11 6h66q11 0 11 -9q0 -4 -4 -8l-114 -102q-5 -5 -11 -5z" />
    <glyph glyph-name="mu" unicode="&#xb5;" horiz-adv-x="479" 
d="M118 -160h-47q-10 0 -10 10v582q0 10 10 10h47q10 0 10 -10v-268q0 -44 31.5 -75.5t74.5 -31.5q45 0 76.5 31t31.5 76v268q0 10 10 10h47q10 0 10 -10v-422q0 -10 -10 -10h-37q-10 0 -10 10v43q0 11 -9 11q-5 0 -9 -5q-46 -59 -100 -59q-53 0 -94 22q-5 3 -8.5 1t-3.5 -7
v-166q0 -10 -10 -10z" />
    <glyph glyph-name="paragraph" unicode="&#xb6;" horiz-adv-x="620" 
d="M342 -225h-48q-10 0 -10 10v299q0 10 -10 10h-34q-78 0 -126 46t-48 118v198q0 79 47.5 126t126.5 47h289q10 0 10 -10v-834q0 -10 -10 -10h-47q-10 0 -10 10v777q0 10 -10 10h-100q-10 0 -10 -10v-777q0 -10 -10 -10z" />
    <glyph glyph-name="periodcentered" unicode="&#xb7;" 
d="M304 237q0 -20 -15 -35t-35 -15q-19 0 -33.5 15t-14.5 35t14.5 34.5t33.5 14.5q21 0 35.5 -14t14.5 -35z" />
    <glyph glyph-name="cedilla" unicode="&#xb8;" horiz-adv-x="500" 
d="M226 -234h-36q-10 0 -10 10v16q0 10 10 10h36q20 0 34 14t14 34v9q0 34 -51 48q-7 1 -7 8q0 4 6 16l40 85q3 6 9 6l22 -4q9 -2 9 -8q0 -2 -1 -4l-2.5 -5l-2.5 -5l-23 -48q-5 -8 -5 -13t6 -8q45 -21 45 -63v-14q0 -37 -27 -60.5t-66 -23.5z" />
    <glyph glyph-name="one.superior" unicode="&#xb9;" horiz-adv-x="337" 
d="M283 380h-204q-6 0 -6 6v36q0 6 6 6h67q8 0 8 7v159q0 7 -6 7q-2 0 -5 -3l-37 -36q-2 -2 -5 -2q-2 0 -10 8l-15 15q-6 6 -6 8q0 3 2 5l105 103q4 2 5 2h21q6 0 6 -7v-259q0 -7 7 -7h67q6 0 6 -6v-36q0 -6 -6 -6z" />
    <glyph glyph-name="ordmasculine" unicode="&#xba;" horiz-adv-x="321" 
d="M34 427v94q0 54 34.5 86.5t91.5 32.5q58 0 93 -33t35 -86v-94q0 -53 -35 -86.5t-93 -33.5q-57 0 -91.5 33t-34.5 87zM230 427v94q0 28 -20.5 48.5t-49.5 20.5t-49 -20t-20 -49v-94q0 -28 20.5 -49t48.5 -21t49 20.5t21 49.5z" />
    <glyph glyph-name="guillemotright" unicode="&#xbb;" horiz-adv-x="556" 
d="M292 115v42q0 4 4 8l145 105q5 5 5 8t-5 8l-145 104q-4 4 -4 8v42q0 11 8 11q4 0 8 -3l189 -135q4 -4 4 -8v-55q0 -4 -4 -8l-189 -135q-4 -3 -8 -3q-8 0 -8 11zM67 115v42q0 4 4 8l145 105q5 5 5 8t-5 8l-145 104q-4 4 -4 8v42q0 11 8 11q3 0 8 -3l191 -135q4 -4 4 -8
v-55q0 -4 -4 -8l-191 -135q-5 -3 -8 -3q-8 0 -8 11z" />
    <glyph glyph-name="onequarter" unicode="&#xbc;" horiz-adv-x="825" 
d="M283 308h-204q-6 0 -6 6v36q0 6 6 6h67q8 0 8 7v159q0 7 -6 7q-2 0 -5 -3l-37 -36q-2 -2 -5 -2q-2 0 -10 8l-15 15q-6 6 -6 8q0 3 2 5l105 103q4 2 5 2h21q6 0 6 -7v-259q0 -7 7 -7h67q6 0 6 -6v-36q0 -6 -6 -6zM722 0h-30q-8 0 -10 1.5t-2 7.5v54q0 7 -7 7h-142
q-7 0 -9 2t-2 8v38l156 196q4 2 8 2h43q8 0 8 -9v-179q0 -7 2 -8.5t8 -1.5h38q12 0 12 -6v-35q0 -7 -12 -7h-39q-9 0 -9 -11v-50q0 -9 -13 -9zM585 118h88q7 0 7 9v111q0 6 -2 6q-3 0 -6 -5l-87 -109q-6 -8 -6 -9q0 -3 6 -3zM319 0h-24q-11 0 -11 8q0 1 19 45l244 571
q3 6 9 6h24q10 0 10 -8q0 -3 -20 -51l-242 -565q-3 -6 -9 -6z" />
    <glyph glyph-name="onehalf" unicode="&#xbd;" horiz-adv-x="825" 
d="M283 308h-204q-6 0 -6 6v36q0 6 6 6h67q8 0 8 7v159q0 7 -6 7q-2 0 -5 -3l-37 -36q-2 -2 -5 -2q-2 0 -10 8l-15 15q-6 6 -6 8q0 3 2 5l105 103q4 2 5 2h21q6 0 6 -7v-259q0 -7 7 -7h67q6 0 6 -6v-36q0 -6 -6 -6zM294 0h-24q-11 0 -11 8q0 1 19 45l244 571q3 6 9 6h24
q10 0 10 -8q0 -3 -20 -51l-242 -565q-3 -6 -9 -6zM767 0h-224q-6 0 -6 5v41q0 27 8.5 46.5t25.5 32.5t31 19.5t37 14.5q7 3 20 7t18.5 6t14.5 6t13 7.5t8.5 8t6 10.5t1.5 14q0 24 -15.5 39t-45.5 15h-26q-35 0 -58 -36q-3 -3 -5 -3q-3 0 -15 6l-26 12q-5 3 -5 7q0 8 20 28
q32 35 89 35h26q55 0 85.5 -29t30.5 -76q0 -17 -5.5 -30.5t-11 -21.5t-20.5 -16.5t-21 -11t-27 -10t-24 -8.5q-53 -21 -63 -33q-10 -10 -10 -25v-7q0 -5 7 -5h166q6 0 6 -5v-38q0 -5 -6 -5z" />
    <glyph glyph-name="threequarters" unicode="&#xbe;" horiz-adv-x="825" 
d="M168 303h-20q-57 0 -89 27q-17 14 -17 28q0 6 11 10l21 9q1 0 3 1q4 2 6 2q3 0 9 -6q23 -23 56 -23h20q26 0 44.5 11.5t18.5 27.5v17q0 16 -18.5 27.5t-44.5 11.5h-45q-12 0 -12 8v31q0 10 12 10h45q27 0 45 11.5t18 28.5v7q0 16 -18.5 27.5t-44.5 11.5h-20
q-36 0 -56 -23q-6 -6 -9 -6q-4 0 -14 5l-23 10q-5 2 -5 7q0 12 17 27q31 28 90 28h20q54 0 86.5 -25t32.5 -67v-7q0 -35 -41 -60q41 -23 41 -61v-15q0 -42 -32.5 -66.5t-86.5 -24.5zM306 0h-24q-11 0 -11 8q0 1 19 45l244 571q3 6 9 6h24q10 0 10 -8q0 -3 -20 -51l-242 -565
q-3 -6 -9 -6zM722 0h-30q-8 0 -10 1.5t-2 7.5v54q0 7 -7 7h-142q-7 0 -9 2t-2 8v38l156 196q4 2 8 2h43q8 0 8 -9v-179q0 -7 2 -8.5t8 -1.5h38q12 0 12 -6v-35q0 -7 -12 -7h-39q-9 0 -9 -11v-50q0 -9 -13 -9zM585 118h88q7 0 7 9v111q0 6 -2 6q-3 0 -6 -5l-87 -109
q-6 -8 -6 -9q0 -3 6 -3z" />
    <glyph glyph-name="questiondown" unicode="&#xbf;" 
d="M336 408q0 -20 -15 -34.5t-34 -14.5q-21 0 -35.5 14t-14.5 35t14.5 35t35.5 14q19 0 34 -14.5t15 -34.5zM284 -198h-40q-79 0 -126.5 45.5t-47.5 118.5q0 37 9 64.5t27.5 44.5t34 26.5t38.5 20.5q6 3 9 4q42 20 62 40t20 58q0 4 -0.5 11.5t-0.5 10.5q0 9 10 9h48
q10 0 10 -9q1 -17 1 -37q0 -16 -3.5 -30t-7 -24t-13 -20.5l-14 -15.5t-19 -14t-18 -11t-21 -10.5l-19.5 -9.5q-42 -21 -64 -44t-22 -64q0 -45 31.5 -75.5t75.5 -30.5h40q57 0 94 55q3 5 8 5q3 0 7 -2l40 -21q6 -3 6 -8q0 -9 -22 -35q-45 -52 -133 -52z" />
    <glyph glyph-name="Agrave" unicode="&#xc0;" horiz-adv-x="448" 
d="M71 0h-51q-11 0 -11 8q0 4 7 25l179 589q1 7 10 7h38q9 0 10 -7l177 -583q9 -27 9 -31q0 -8 -11 -8h-51q-9 0 -10 7l-39 138q-1 6 -10 6h-188q-9 0 -10 -6l-39 -138q-1 -7 -10 -7zM151 208h144q11 0 11 9l-68 261q-1 3 -5.5 19t-5.5 20h-4q-6 -24 -11 -39l-72 -261
q0 -9 11 -9zM246 693h-27q-7 0 -14 5l-115 84q-4 3 -4 6q0 7 8 7h79q9 0 13 -6l65 -86q2 -4 2 -5q0 -5 -7 -5z" />
    <glyph glyph-name="Aacute" unicode="&#xc1;" horiz-adv-x="448" 
d="M71 0h-51q-11 0 -11 8q0 4 7 25l179 589q1 7 10 7h38q9 0 10 -7l177 -583q9 -27 9 -31q0 -8 -11 -8h-51q-9 0 -10 7l-39 138q-1 6 -10 6h-188q-9 0 -10 -6l-39 -138q-1 -7 -10 -7zM151 208h144q11 0 11 9l-68 261q-1 3 -5.5 19t-5.5 20h-4q-6 -24 -11 -39l-72 -261
q0 -9 11 -9zM229 693h-27q-7 0 -7 5q0 1 2 5l65 86q4 6 13 6h79q8 0 8 -7q0 -3 -4 -6l-115 -84q-7 -5 -14 -5z" />
    <glyph glyph-name="Acircumflex" unicode="&#xc2;" horiz-adv-x="448" 
d="M71 0h-51q-11 0 -11 8q0 4 7 25l179 589q1 7 10 7h38q9 0 10 -7l177 -583q9 -27 9 -31q0 -8 -11 -8h-51q-9 0 -10 7l-39 138q-1 6 -10 6h-188q-9 0 -10 -6l-39 -138q-1 -7 -10 -7zM151 208h144q11 0 11 9l-68 261q-1 3 -5.5 19t-5.5 20h-4q-6 -24 -11 -39l-72 -261
q0 -9 11 -9zM171 693h-42q-7 0 -7 5q0 1 1.5 3l3 4t1.5 3l61 84q4 5 11 5h48q7 0 11 -5l61 -84l3 -4q3 -4 3 -6q0 -5 -7 -5h-43q-6 0 -10 6l-36 55q-3 4 -6 4q-2 0 -6 -4l-36 -55q-4 -6 -11 -6z" />
    <glyph glyph-name="Atilde" unicode="&#xc3;" horiz-adv-x="448" 
d="M71 0h-51q-11 0 -11 8q0 4 7 25l179 589q1 7 10 7h38q9 0 10 -7l177 -583q9 -27 9 -31q0 -8 -11 -8h-51q-9 0 -10 7l-39 138q-1 6 -10 6h-188q-9 0 -10 -6l-39 -138q-1 -7 -10 -7zM151 208h144q11 0 11 9l-68 261q-1 3 -5.5 19t-5.5 20h-4q-6 -24 -11 -39l-72 -261
q0 -9 11 -9zM114 710l-11 9q-6 5 -6 8t14 21q29 37 61 37q22 0 52 -17.5t46 -17.5q23 0 48 28q4 4 7 4t8 -5l12 -10q5 -5 5 -8q0 -2 -13 -20q-31 -42 -65 -42q-22 0 -52 18.5t-46 18.5q-20 0 -44 -24q-4 -4 -8 -4q-2 0 -8 4z" />
    <glyph glyph-name="Adieresis" unicode="&#xc4;" horiz-adv-x="448" 
d="M71 0h-51q-11 0 -11 8q0 4 7 25l179 589q1 7 10 7h38q9 0 10 -7l177 -583q9 -27 9 -31q0 -8 -11 -8h-51q-9 0 -10 7l-39 138q-1 6 -10 6h-188q-9 0 -10 -6l-39 -138q-1 -7 -10 -7zM151 208h144q11 0 11 9l-68 261q-1 3 -5.5 19t-5.5 20h-4q-6 -24 -11 -39l-72 -261
q0 -9 11 -9zM340 741q0 -17 -12.5 -30t-29.5 -13q-18 0 -28.5 12.5t-10.5 30.5q0 16 11.5 28.5t27.5 12.5q18 0 30 -12t12 -29zM189 741q0 -17 -12.5 -30t-29.5 -13q-18 0 -28.5 12.5t-10.5 30.5q0 17 11 29t28 12q18 0 30 -12t12 -29z" />
    <glyph glyph-name="Aring" unicode="&#xc5;" horiz-adv-x="448" 
d="M71 0h-51q-11 0 -11 8q0 4 7 25l165 543q5 15 5 17q0 3 -6 8q-35 21 -35 65v31q0 34 21.5 54.5t58.5 20.5q36 0 58.5 -20.5t22.5 -54.5v-31q0 -44 -37 -65q-7 -4 -7 -9q0 -1 5 -16l163 -537q9 -27 9 -31q0 -8 -11 -8h-51q-9 0 -10 7l-39 138q-1 6 -10 6h-188q-9 0 -10 -6
l-39 -138q-1 -7 -10 -7zM276 666v31q0 21 -14 33t-37 12t-36.5 -12t-13.5 -33v-31q0 -21 13.5 -33.5t36.5 -12.5t37 12.5t14 33.5zM151 208h144q11 0 11 9l-68 261q-1 3 -5.5 19t-5.5 20h-4q-6 -24 -11 -39l-72 -261q0 -9 11 -9z" />
    <glyph glyph-name="AE" unicode="&#xc6;" horiz-adv-x="706" 
d="M8 0h-46q-11 0 -11 8q0 4 2 7l360 609q3 5 9 5h325q10 0 10 -10v-37q0 -10 -10 -10h-261q-10 0 -10 -10v-204q0 -10 10 -10h214q10 0 10 -10v-37q0 -10 -10 -10h-214q-10 0 -10 -10v-214q0 -10 10 -10h261q10 0 10 -10v-37q0 -10 -10 -10h-329q-10 0 -10 10v131
q0 10 -10 10h-192q-8 0 -13 -9l-76 -137q-3 -5 -9 -5zM150 208h148q10 0 10 10v66q0 196 3 232l-4 1q-1 -4 -5 -11.5t-8.5 -15t-4.5 -8.5l-148 -259q-2 -6 -2 -7q0 -8 11 -8z" />
    <glyph glyph-name="Ccedilla" unicode="&#xc7;" horiz-adv-x="464" 
d="M192 -234h-36q-10 0 -10 10v16q0 10 10 10h36q20 0 34 14t14 34v9q0 34 -51 48q-7 1 -7 8q0 4 6 16l17 36q5 10 5 17t-8 9q-63 10 -99.5 53.5t-36.5 107.5v322q0 73 47.5 118.5t126.5 45.5h31q86 0 134 -53q22 -24 22 -33q0 -6 -7 -9l-38 -19q-4 -3 -9 -3q-4 0 -7 4
q-40 55 -95 55h-31q-45 0 -75.5 -30.5t-30.5 -75.5v-322q0 -44 30.5 -75.5t75.5 -31.5h31q56 0 95 57q3 4 7 4q5 0 9 -3l38 -19q7 -4 7 -9q0 -9 -23 -34q-46 -53 -133 -53q-12 0 -17 -10l-15 -32q-5 -12 -5 -13q0 -5 6 -8q45 -21 45 -63v-14q0 -37 -27 -60.5t-66 -23.5z" />
    <glyph glyph-name="Egrave" unicode="&#xc8;" horiz-adv-x="479" 
d="M420 0h-328q-10 0 -10 10v609q0 10 10 10h328q10 0 10 -10v-37q0 -10 -10 -10h-261q-10 0 -10 -10v-204q0 -10 10 -10h214q10 0 10 -10v-37q0 -10 -10 -10h-214q-10 0 -10 -10v-214q0 -10 10 -10h261q10 0 10 -10v-37q0 -10 -10 -10zM321 693h-27q-7 0 -14 5l-115 84
q-4 3 -4 6q0 7 8 7h79q8 0 13 -6l65 -86q2 -4 2 -5q0 -5 -7 -5z" />
    <glyph glyph-name="Eacute" unicode="&#xc9;" horiz-adv-x="479" 
d="M420 0h-328q-10 0 -10 10v609q0 10 10 10h328q10 0 10 -10v-37q0 -10 -10 -10h-261q-10 0 -10 -10v-204q0 -10 10 -10h214q10 0 10 -10v-37q0 -10 -10 -10h-214q-10 0 -10 -10v-214q0 -10 10 -10h261q10 0 10 -10v-37q0 -10 -10 -10zM244 693h-27q-7 0 -7 5q0 1 2 5
l65 86q5 6 13 6h79q8 0 8 -7q0 -3 -4 -6l-115 -84q-7 -5 -14 -5z" />
    <glyph glyph-name="Ecircumflex" unicode="&#xca;" horiz-adv-x="479" 
d="M420 0h-328q-10 0 -10 10v609q0 10 10 10h328q10 0 10 -10v-37q0 -10 -10 -10h-261q-10 0 -10 -10v-204q0 -10 10 -10h214q10 0 10 -10v-37q0 -10 -10 -10h-214q-10 0 -10 -10v-214q0 -10 10 -10h261q10 0 10 -10v-37q0 -10 -10 -10zM206 693h-42q-7 0 -7 5q0 1 1.5 3
l3 4t1.5 3l61 84q4 5 11 5h48q7 0 11 -5l61 -84l3 -4q3 -4 3 -6q0 -5 -7 -5h-43q-5 0 -10 6l-36 55q-3 4 -6 4q-2 0 -6 -4l-36 -55q-5 -6 -11 -6z" />
    <glyph glyph-name="Edieresis" unicode="&#xcb;" horiz-adv-x="479" 
d="M420 0h-328q-10 0 -10 10v609q0 10 10 10h328q10 0 10 -10v-37q0 -10 -10 -10h-261q-10 0 -10 -10v-204q0 -10 10 -10h214q10 0 10 -10v-37q0 -10 -10 -10h-214q-10 0 -10 -10v-214q0 -10 10 -10h261q10 0 10 -10v-37q0 -10 -10 -10zM375 741q0 -17 -12.5 -30t-29.5 -13
q-18 0 -28.5 12.5t-10.5 30.5q0 16 11.5 28.5t27.5 12.5q18 0 30 -12t12 -29zM224 741q0 -17 -12.5 -30t-29.5 -13q-18 0 -28.5 12.5t-10.5 30.5q0 17 11 29t28 12q18 0 30 -12t12 -29z" />
    <glyph glyph-name="Igrave" unicode="&#xcc;" horiz-adv-x="230" 
d="M139 0h-47q-10 0 -10 10v609q0 10 10 10h47q10 0 10 -10v-609q0 -10 -10 -10zM137 693h-27q-7 0 -14 5l-115 84q-4 3 -4 6q0 7 8 7h79q8 0 13 -6l65 -86q2 -4 2 -5q0 -5 -7 -5z" />
    <glyph glyph-name="Iacute" unicode="&#xcd;" horiz-adv-x="230" 
d="M139 0h-47q-10 0 -10 10v609q0 10 10 10h47q10 0 10 -10v-609q0 -10 -10 -10zM120 693h-27q-7 0 -7 5q0 1 2 5l65 86q5 6 13 6h79q8 0 8 -7q0 -3 -4 -6l-115 -84q-7 -5 -14 -5z" />
    <glyph glyph-name="Icircumflex" unicode="&#xce;" horiz-adv-x="230" 
d="M139 0h-47q-10 0 -10 10v609q0 10 10 10h47q10 0 10 -10v-609q0 -10 -10 -10zM62 693h-42q-7 0 -7 5q0 1 1.5 3l3 4t1.5 3l61 84q4 5 11 5h48q7 0 11 -5l61 -84l3 -4q3 -4 3 -6q0 -5 -7 -5h-43q-5 0 -10 6l-36 55q-3 4 -6 4q-2 0 -6 -4l-36 -55q-5 -6 -11 -6z" />
    <glyph glyph-name="Idieresis" unicode="&#xcf;" horiz-adv-x="230" 
d="M139 0h-47q-10 0 -10 10v609q0 10 10 10h47q10 0 10 -10v-609q0 -10 -10 -10zM231 741q0 -17 -12.5 -30t-29.5 -13q-18 0 -28.5 12.5t-10.5 30.5q0 16 11.5 28.5t27.5 12.5q18 0 30 -12t12 -29zM80 741q0 -17 -12.5 -30t-29.5 -13q-18 0 -28.5 12.5t-10.5 30.5
q0 17 11 29t28 12q18 0 30 -12t12 -29z" />
    <glyph glyph-name="Eth" unicode="&#xd0;" horiz-adv-x="526" 
d="M286 0h-194q-10 0 -10 10v266q0 9 -8 9h-43q-10 0 -10 10v38q0 10 10 10h42q9 0 9 9v267q0 10 10 10h194q80 0 127.5 -47t47.5 -126v-281q0 -80 -47.5 -127.5t-127.5 -47.5zM159 57h127q45 0 76.5 31t31.5 76v302q0 44 -31.5 75t-76.5 31h-127q-10 0 -10 -10v-210
q0 -9 9 -9h78q10 0 10 -10v-38q0 -10 -10 -10h-79q-8 0 -8 -8v-210q0 -10 10 -10z" />
    <glyph glyph-name="Ntilde" unicode="&#xd1;" horiz-adv-x="557" 
d="M139 0h-47q-10 0 -10 10v609q0 10 10 10h46q6 0 9 -5l243 -445q12 -20 18 -36l4 1q-3 36 -3 232v243q0 10 10 10h48q10 0 10 -10v-609q0 -10 -10 -10h-47q-6 0 -9 5l-243 440q-13 23 -18 36l-4 -1q3 -36 3 -232v-238q0 -10 -10 -10zM168 710l-11 9q-6 5 -6 8t14 21
q29 37 61 37q22 0 52 -17.5t46 -17.5q23 0 48 28q4 4 7 4t8 -5l12 -10q5 -5 5 -8q0 -2 -13 -20q-31 -42 -65 -42q-22 0 -52 18.5t-46 18.5q-20 0 -44 -24q-4 -4 -8 -4q-2 0 -8 4z" />
    <glyph glyph-name="Ograve" unicode="&#xd2;" 
d="M271 -10h-31q-79 0 -126.5 45.5t-47.5 118.5v322q0 73 47.5 118.5t126.5 45.5h31q79 0 127 -45.5t48 -118.5v-322q0 -73 -48 -118.5t-127 -45.5zM240 47h31q43 0 75 31.5t32 75.5v322q0 45 -31.5 75.5t-75.5 30.5h-31q-45 0 -75.5 -30.5t-30.5 -75.5v-322
q0 -44 30.5 -75.5t75.5 -31.5zM317 693h-27q-7 0 -14 5l-115 84q-4 3 -4 6q0 7 8 7h79q9 0 13 -6l65 -86q2 -4 2 -5q0 -5 -7 -5z" />
    <glyph glyph-name="Oacute" unicode="&#xd3;" 
d="M271 -10h-31q-79 0 -126.5 45.5t-47.5 118.5v322q0 73 47.5 118.5t126.5 45.5h31q79 0 127 -45.5t48 -118.5v-322q0 -73 -48 -118.5t-127 -45.5zM240 47h31q43 0 75 31.5t32 75.5v322q0 45 -31.5 75.5t-75.5 30.5h-31q-45 0 -75.5 -30.5t-30.5 -75.5v-322
q0 -44 30.5 -75.5t75.5 -31.5zM230 693h-27q-7 0 -7 5q0 1 2 5l65 86q5 6 13 6h79q8 0 8 -7q0 -3 -4 -6l-115 -84q-7 -5 -14 -5z" />
    <glyph glyph-name="Ocircumflex" unicode="&#xd4;" 
d="M271 -10h-31q-79 0 -126.5 45.5t-47.5 118.5v322q0 73 47.5 118.5t126.5 45.5h31q79 0 127 -45.5t48 -118.5v-322q0 -73 -48 -118.5t-127 -45.5zM240 47h31q43 0 75 31.5t32 75.5v322q0 45 -31.5 75.5t-75.5 30.5h-31q-45 0 -75.5 -30.5t-30.5 -75.5v-322
q0 -44 30.5 -75.5t75.5 -31.5zM202 693h-42q-7 0 -7 5q0 1 1.5 3l3 4t1.5 3l61 84q4 5 11 5h48q7 0 11 -5l61 -84l3 -4q3 -4 3 -6q0 -5 -7 -5h-43q-5 0 -10 6l-36 55q-3 4 -6 4q-2 0 -6 -4l-36 -55q-5 -6 -11 -6z" />
    <glyph glyph-name="Otilde" unicode="&#xd5;" 
d="M271 -10h-31q-79 0 -126.5 45.5t-47.5 118.5v322q0 73 47.5 118.5t126.5 45.5h31q79 0 127 -45.5t48 -118.5v-322q0 -73 -48 -118.5t-127 -45.5zM240 47h31q43 0 75 31.5t32 75.5v322q0 45 -31.5 75.5t-75.5 30.5h-31q-45 0 -75.5 -30.5t-30.5 -75.5v-322
q0 -44 30.5 -75.5t75.5 -31.5zM145 710l-11 9q-6 5 -6 8t14 21q29 37 61 37q22 0 52 -17.5t46 -17.5q23 0 48 28q4 4 7 4t8 -5l12 -10q5 -5 5 -8q0 -2 -13 -20q-31 -42 -65 -42q-22 0 -52 18.5t-46 18.5q-20 0 -44 -24q-4 -4 -8 -4q-2 0 -8 4z" />
    <glyph glyph-name="Odieresis" unicode="&#xd6;" 
d="M271 -10h-31q-79 0 -126.5 45.5t-47.5 118.5v322q0 73 47.5 118.5t126.5 45.5h31q79 0 127 -45.5t48 -118.5v-322q0 -73 -48 -118.5t-127 -45.5zM240 47h31q43 0 75 31.5t32 75.5v322q0 45 -31.5 75.5t-75.5 30.5h-31q-45 0 -75.5 -30.5t-30.5 -75.5v-322
q0 -44 30.5 -75.5t75.5 -31.5zM371 741q0 -17 -12.5 -30t-29.5 -13q-18 0 -28.5 12.5t-10.5 30.5q0 16 11.5 28.5t27.5 12.5q18 0 30 -12t12 -29zM220 741q0 -17 -12.5 -30t-29.5 -13q-18 0 -28.5 12.5t-10.5 30.5q0 17 11 29t28 12q18 0 30 -12t12 -29z" />
    <glyph glyph-name="multiply" unicode="&#xd7;" 
d="M102 64l-19 19q-4 3 -4 7q0 3 4 7l132 132q4 4 4 7q0 2 -4 8l-132 132q-4 3 -4 7q0 3 4 7l19 19q4 4 7 4q1 0 7 -4l132 -132q3 -4 7 -4t8 4l132 132q4 4 7 4q1 0 7 -4l19 -19q4 -6 4 -7q0 -3 -4 -7l-132 -132q-4 -4 -4 -8t4 -7l132 -132q4 -6 4 -7q0 -3 -4 -7l-19 -19
q-4 -4 -7 -4q-4 0 -7 4l-132 132q-6 4 -8 4q-3 0 -7 -4l-132 -132q-4 -4 -7 -4q-4 0 -7 4z" />
    <glyph glyph-name="Oslash" unicode="&#xd8;" 
d="M271 -10h-31q-79 0 -126.5 45.5t-47.5 118.5v322q0 73 47.5 118.5t126.5 45.5h31q79 0 127 -45.5t48 -118.5v-322q0 -73 -48 -118.5t-127 -45.5zM154 136l180 417q1 1 1 4q0 5 -5 8q-25 17 -59 17h-31q-45 0 -75.5 -30.5t-30.5 -75.5v-322q0 -12 1 -16q3 -10 10 -10
q6 0 9 8zM240 47h31q43 0 75 31.5t32 75.5v322q0 8 -2 22q-2 10 -9 10t-10 -8l-181 -421q-1 -2 -1 -5q0 -4 3 -7q27 -20 62 -20z" />
    <glyph glyph-name="Ugrave" unicode="&#xd9;" 
d="M271 -10h-31q-79 0 -126.5 45.5t-47.5 118.5v465q0 10 10 10h48q10 0 10 -10v-465q0 -44 30.5 -75.5t75.5 -31.5h31q43 0 75 31.5t32 75.5v465q0 10 10 10h48q10 0 10 -10v-465q0 -73 -48 -118.5t-127 -45.5zM307 693h-27q-7 0 -14 5l-115 84q-4 3 -4 6q0 7 8 7h79
q8 0 13 -6l65 -86q2 -4 2 -5q0 -5 -7 -5z" />
    <glyph glyph-name="Uacute" unicode="&#xda;" 
d="M271 -10h-31q-79 0 -126.5 45.5t-47.5 118.5v465q0 10 10 10h48q10 0 10 -10v-465q0 -44 30.5 -75.5t75.5 -31.5h31q43 0 75 31.5t32 75.5v465q0 10 10 10h48q10 0 10 -10v-465q0 -73 -48 -118.5t-127 -45.5zM230 693h-27q-7 0 -7 5q0 1 2 5l65 86q5 6 13 6h79q8 0 8 -7
q0 -3 -4 -6l-115 -84q-7 -5 -14 -5z" />
    <glyph glyph-name="Ucircumflex" unicode="&#xdb;" 
d="M271 -10h-31q-79 0 -126.5 45.5t-47.5 118.5v465q0 10 10 10h48q10 0 10 -10v-465q0 -44 30.5 -75.5t75.5 -31.5h31q43 0 75 31.5t32 75.5v465q0 10 10 10h48q10 0 10 -10v-465q0 -73 -48 -118.5t-127 -45.5zM202 693h-42q-7 0 -7 5q0 1 1.5 3l3 4t1.5 3l61 84q4 5 11 5
h48q7 0 11 -5l61 -84l3 -4q3 -4 3 -6q0 -5 -7 -5h-43q-5 0 -10 6l-36 55q-3 4 -6 4q-2 0 -6 -4l-36 -55q-5 -6 -11 -6z" />
    <glyph glyph-name="Udieresis" unicode="&#xdc;" 
d="M271 -10h-31q-79 0 -126.5 45.5t-47.5 118.5v465q0 10 10 10h48q10 0 10 -10v-465q0 -44 30.5 -75.5t75.5 -31.5h31q43 0 75 31.5t32 75.5v465q0 10 10 10h48q10 0 10 -10v-465q0 -73 -48 -118.5t-127 -45.5zM371 741q0 -17 -12.5 -30t-29.5 -13q-18 0 -28.5 12.5
t-10.5 30.5q0 16 11.5 28.5t27.5 12.5q18 0 30 -12t12 -29zM220 741q0 -17 -12.5 -30t-29.5 -13q-18 0 -28.5 12.5t-10.5 30.5q0 17 11 29t28 12q18 0 30 -12t12 -29z" />
    <glyph glyph-name="Yacute" unicode="&#xdd;" horiz-adv-x="448" 
d="M248 0h-49q-10 0 -10 10v281l-155 293q-18 32 -18 37q0 8 11 8h57q5 0 9 -6l123 -252q3 -8 9 -8t9 8l121 252q4 6 9 6h57q11 0 11 -8q0 -4 -20 -41l-154 -289v-281q0 -10 -10 -10zM199 693h-27q-7 0 -7 5q0 1 2 5l65 86q4 6 13 6h79q8 0 8 -7q0 -3 -4 -6l-115 -84
q-7 -5 -14 -5z" />
    <glyph glyph-name="Thorn" unicode="&#xde;" horiz-adv-x="484" 
d="M139 0h-47q-10 0 -10 10v609q0 10 10 10h47q10 0 10 -10v-100q0 -10 11 -10h126q80 0 127.5 -47t47.5 -126q0 -71 -48.5 -118t-126.5 -47h-127q-10 0 -10 -10v-151q0 -10 -10 -10zM159 228h127q45 0 76.5 31.5t31.5 76.5v10q0 44 -31.5 75t-76.5 31h-127q-10 0 -10 -10
v-204q0 -10 10 -10z" />
    <glyph glyph-name="germandbls" unicode="&#xdf;" horiz-adv-x="487" 
d="M145 0h-48q-10 0 -10 10v318q0 10 -10 10h-27q-10 0 -10 10v37q0 10 10 10h27q10 0 10 10v61q0 73 50.5 123.5t123.5 50.5q80 0 127.5 -47.5t47.5 -126.5v-21q0 -34 -22 -67t-54 -49q-8 -3 -8 -9q0 -4 8 -9q33 -16 54.5 -51.5t21.5 -71.5v-26q0 -58 -27 -99t-77 -60
q-32 -12 -49 -12q-9 0 -9 10v39q0 8 8 10q39 9 62.5 37.5t23.5 66.5v31q0 38 -23.5 66t-62.5 37q-8 2 -8 10v43q0 8 8 10q40 10 63 38.5t23 66.5v20q0 45 -31.5 75.5t-75.5 30.5q-47 0 -76.5 -30t-29.5 -76v-466q0 -10 -10 -10z" />
    <glyph glyph-name="agrave" unicode="&#xe0;" horiz-adv-x="462" 
d="M222 0h-40q-54 0 -90 32.5t-36 84.5v6q0 52 36 84t90 32h132q10 0 10 9v41q0 44 -31 74t-76 30q-57 0 -94 -55q-3 -5 -8 -5q-3 0 -11 4l-36 19q-6 3 -6 8q0 6 19 30q46 56 136 56q79 0 127 -44t48 -117v-279q0 -10 -10 -10h-37q-10 0 -10 10v43q0 12 -9 12q-4 0 -9 -5
q-23 -26 -49.5 -43t-45.5 -17zM182 57h40q32 0 60.5 26t41.5 61v38q0 10 -10 10h-132q-25 0 -42 -17t-17 -42v-16q0 -24 17.5 -42t41.5 -18zM276 505h-20q-6 0 -11 5l-114 102q-4 4 -4 8q0 9 11 9h66q7 0 11 -6l69 -102q3 -4 3 -8q0 -8 -11 -8z" />
    <glyph glyph-name="aacute" unicode="&#xe1;" horiz-adv-x="462" 
d="M222 0h-40q-54 0 -90 32.5t-36 84.5v6q0 52 36 84t90 32h132q10 0 10 9v41q0 44 -31 74t-76 30q-57 0 -94 -55q-3 -5 -8 -5q-3 0 -11 4l-36 19q-6 3 -6 8q0 6 19 30q46 56 136 56q79 0 127 -44t48 -117v-279q0 -10 -10 -10h-37q-10 0 -10 10v43q0 12 -9 12q-4 0 -9 -5
q-23 -26 -49.5 -43t-45.5 -17zM182 57h40q32 0 60.5 26t41.5 61v38q0 10 -10 10h-132q-25 0 -42 -17t-17 -42v-16q0 -24 17.5 -42t41.5 -18zM196 505h-20q-11 0 -11 8q0 3 3 8l69 102q4 6 11 6h66q11 0 11 -9q0 -4 -4 -8l-114 -102q-5 -5 -11 -5z" />
    <glyph glyph-name="acircumflex" unicode="&#xe2;" horiz-adv-x="462" 
d="M222 0h-40q-54 0 -90 32.5t-36 84.5v6q0 52 36 84t90 32h132q10 0 10 9v41q0 44 -31 74t-76 30q-57 0 -94 -55q-3 -5 -8 -5q-3 0 -11 4l-36 19q-6 3 -6 8q0 6 19 30q46 56 136 56q79 0 127 -44t48 -117v-279q0 -10 -10 -10h-37q-10 0 -10 10v43q0 12 -9 12q-4 0 -9 -5
q-23 -26 -49.5 -43t-45.5 -17zM182 57h40q32 0 60.5 26t41.5 61v38q0 10 -10 10h-132q-25 0 -42 -17t-17 -42v-16q0 -24 17.5 -42t41.5 -18zM169 505h-34q-11 0 -11 8q0 3 3 8l80 105q4 4 8 4h31q4 0 8 -4l81 -105q3 -4 3 -8q0 -8 -11 -8h-35q-4 0 -8 4l-44 62q-3 5 -8 5
q-3 0 -8 -5l-47 -62q-4 -4 -8 -4z" />
    <glyph glyph-name="atilde" unicode="&#xe3;" horiz-adv-x="462" 
d="M222 0h-40q-54 0 -90 32.5t-36 84.5v6q0 52 36 84t90 32h132q10 0 10 9v41q0 44 -31 74t-76 30q-57 0 -94 -55q-3 -5 -8 -5q-3 0 -11 4l-36 19q-6 3 -6 8q0 6 19 30q46 56 136 56q79 0 127 -44t48 -117v-279q0 -10 -10 -10h-37q-10 0 -10 10v43q0 12 -9 12q-4 0 -9 -5
q-23 -26 -49.5 -43t-45.5 -17zM182 57h40q32 0 60.5 26t41.5 61v38q0 10 -10 10h-132q-25 0 -42 -17t-17 -42v-16q0 -24 17.5 -42t41.5 -18zM231 536l-20 13q-23 15 -42 15q-26 0 -52 -26q-3 -3 -7 -3t-6 2l-10 7q-5 3 -5 8q0 4 14 24q29 40 66 40q29 0 59 -23l21 -16
q18 -15 44 -15q27 0 54 27q4 4 7 4t6 -3l9 -7q5 -3 5 -8q0 -3 -18 -28q-30 -37 -63 -37q-22 0 -62 26z" />
    <glyph glyph-name="adieresis" unicode="&#xe4;" horiz-adv-x="462" 
d="M222 0h-40q-54 0 -90 32.5t-36 84.5v6q0 52 36 84t90 32h132q10 0 10 9v41q0 44 -31 74t-76 30q-57 0 -94 -55q-3 -5 -8 -5q-3 0 -11 4l-36 19q-6 3 -6 8q0 6 19 30q46 56 136 56q79 0 127 -44t48 -117v-279q0 -10 -10 -10h-37q-10 0 -10 10v43q0 12 -9 12q-4 0 -9 -5
q-23 -26 -49.5 -43t-45.5 -17zM182 57h40q32 0 60.5 26t41.5 61v38q0 10 -10 10h-132q-25 0 -42 -17t-17 -42v-16q0 -24 17.5 -42t41.5 -18zM356 559q0 -18 -13.5 -31.5t-31.5 -13.5q-19 0 -31 13t-12 32t12 31t31 12t32 -12t13 -31zM193 559q0 -19 -12.5 -32t-31.5 -13
t-31.5 13t-12.5 32t12.5 31t31.5 12t31.5 -12t12.5 -31z" />
    <glyph glyph-name="aring" unicode="&#xe5;" horiz-adv-x="462" 
d="M222 0h-40q-54 0 -90 32.5t-36 84.5v6q0 52 36 84t90 32h132q10 0 10 9v41q0 44 -31 74t-76 30q-57 0 -94 -55q-3 -5 -8 -5q-3 0 -11 4l-36 19q-6 3 -6 8q0 6 19 30q46 56 136 56q79 0 127 -44t48 -117v-279q0 -10 -10 -10h-37q-10 0 -10 10v43q0 12 -9 12q-4 0 -9 -5
q-23 -26 -49.5 -43t-45.5 -17zM182 57h40q32 0 60.5 26t41.5 61v38q0 10 -10 10h-132q-25 0 -42 -17t-17 -42v-16q0 -24 17.5 -42t41.5 -18zM151 567v31q0 34 21.5 54.5t58.5 20.5q36 0 58.5 -20.5t22.5 -54.5v-31q0 -34 -22.5 -55t-58.5 -21t-58 21t-22 55zM282 567v31
q0 21 -14 33t-37 12t-36.5 -12t-13.5 -33v-31q0 -21 13.5 -33.5t36.5 -12.5t37 12.5t14 33.5z" />
    <glyph glyph-name="ae" unicode="&#xe6;" horiz-adv-x="739" 
d="M234 -10h-52q-54 0 -90 32.5t-36 84.5v31q0 51 35.5 78.5t90.5 27.5h144q10 0 10 10v33q0 43 -31.5 74.5t-75.5 31.5q-57 0 -94 -55q-3 -5 -8 -5q-3 0 -13 5l-34 18q-6 3 -6 8q0 7 17 28q46 58 138 58q83 0 138 -54q6 -4 7 -4q4 0 7 4q54 56 129 56q76 0 125.5 -50.5
t49.5 -112.5v-61q0 -10 -10 -10h-261q-10 0 -10 -10v-54q0 -44 31.5 -75.5t74.5 -31.5q56 0 95 57q3 4 7 4l9 -3l38 -19q7 -4 7 -9q0 -8 -21 -32q-46 -55 -135 -55q-93 0 -147 73q-4 5 -8 5q-6 0 -9 -6q-21 -35 -53.5 -53.5t-58.5 -18.5zM414 265h193q10 0 10 10v14
q0 43 -31.5 74.5t-75.5 31.5t-75 -31t-31 -75v-14q0 -10 10 -10zM182 47h52q32 0 60.5 26.5t41.5 61.5v52q0 10 -10 10h-144q-25 0 -42 -17t-17 -42v-31q0 -24 17.5 -42t41.5 -18z" />
    <glyph glyph-name="ccedilla" unicode="&#xe7;" horiz-adv-x="425" 
d="M171 -234h-36q-10 0 -10 10v16q0 10 10 10h36q20 0 34 14t14 34v9q0 34 -51 48q-7 1 -7 8q0 4 6 16l19 40q5 10 5 15q0 7 -9 9q-59 13 -92.5 55.5t-33.5 103.5v135q0 73 47 118t126 45q89 0 134 -52q22 -26 22 -33q0 -5 -7 -9l-36 -18q-8 -4 -11 -4q-4 0 -7 4
q-39 55 -95 55q-44 0 -75 -31t-31 -75v-135q0 -44 31.5 -75.5t74.5 -31.5q56 0 95 57q3 4 7 4q3 0 13 -5l34 -17q7 -4 7 -9q0 -6 -22 -33q-46 -53 -115 -53q-10 0 -14 -9l-16 -34l-5 -13q0 -5 6 -8q45 -21 45 -63v-14q0 -37 -27 -60.5t-66 -23.5z" />
    <glyph glyph-name="egrave" unicode="&#xe8;" horiz-adv-x="458" 
d="M342 104l36 -18q7 -4 7 -9q0 -7 -22 -33q-46 -54 -134 -54q-79 0 -126 45.5t-47 118.5v135q0 62 48.5 112.5t124.5 50.5t125.5 -50.5t49.5 -112.5v-61q0 -10 -10 -10h-261q-10 0 -10 -10v-54q0 -44 31.5 -75.5t74.5 -31.5q56 0 95 57q3 4 7 4q1 0 11 -4zM133 265h193
q10 0 10 10v14q0 43 -31.5 74.5t-75.5 31.5t-75 -31t-31 -75v-14q0 -10 10 -10zM274 505h-20q-6 0 -11 5l-114 102q-4 4 -4 8q0 9 11 9h66q7 0 11 -6l69 -102q3 -4 3 -8q0 -8 -11 -8z" />
    <glyph glyph-name="eacute" unicode="&#xe9;" horiz-adv-x="458" 
d="M342 104l36 -18q7 -4 7 -9q0 -7 -22 -33q-46 -54 -134 -54q-79 0 -126 45.5t-47 118.5v135q0 62 48.5 112.5t124.5 50.5t125.5 -50.5t49.5 -112.5v-61q0 -10 -10 -10h-261q-10 0 -10 -10v-54q0 -44 31.5 -75.5t74.5 -31.5q56 0 95 57q3 4 7 4q1 0 11 -4zM133 265h193
q10 0 10 10v14q0 43 -31.5 74.5t-75.5 31.5t-75 -31t-31 -75v-14q0 -10 10 -10zM194 505h-20q-11 0 -11 8q0 3 3 8l69 102q4 6 11 6h66q11 0 11 -9q0 -4 -4 -8l-114 -102q-5 -5 -11 -5z" />
    <glyph glyph-name="ecircumflex" unicode="&#xea;" horiz-adv-x="458" 
d="M342 104l36 -18q7 -4 7 -9q0 -7 -22 -33q-46 -54 -134 -54q-79 0 -126 45.5t-47 118.5v135q0 62 48.5 112.5t124.5 50.5t125.5 -50.5t49.5 -112.5v-61q0 -10 -10 -10h-261q-10 0 -10 -10v-54q0 -44 31.5 -75.5t74.5 -31.5q56 0 95 57q3 4 7 4q1 0 11 -4zM133 265h193
q10 0 10 10v14q0 43 -31.5 74.5t-75.5 31.5t-75 -31t-31 -75v-14q0 -10 10 -10zM167 505h-34q-11 0 -11 8q0 3 3 8l80 105q4 4 8 4h31q4 0 8 -4l81 -105q3 -4 3 -8q0 -8 -11 -8h-35q-4 0 -8 4l-44 62q-3 5 -8 5q-3 0 -8 -5l-47 -62q-4 -4 -8 -4z" />
    <glyph glyph-name="edieresis" unicode="&#xeb;" horiz-adv-x="458" 
d="M342 104l36 -18q7 -4 7 -9q0 -7 -22 -33q-46 -54 -134 -54q-79 0 -126 45.5t-47 118.5v135q0 62 48.5 112.5t124.5 50.5t125.5 -50.5t49.5 -112.5v-61q0 -10 -10 -10h-261q-10 0 -10 -10v-54q0 -44 31.5 -75.5t74.5 -31.5q56 0 95 57q3 4 7 4q1 0 11 -4zM133 265h193
q10 0 10 10v14q0 43 -31.5 74.5t-75.5 31.5t-75 -31t-31 -75v-14q0 -10 10 -10zM354 559q0 -18 -13.5 -31.5t-31.5 -13.5q-19 0 -31 13t-12 32t12 31t31 12t32 -12t13 -31zM191 559q0 -19 -12.5 -32t-31.5 -13t-31.5 13t-12.5 32t12.5 31t31.5 12t31.5 -12t12.5 -31z" />
    <glyph glyph-name="igrave" unicode="&#xec;" horiz-adv-x="209" 
d="M129 0h-48q-10 0 -10 10v422q0 10 10 10h48q10 0 10 -10v-422q0 -10 -10 -10zM119 505h-20q-6 0 -11 5l-114 102q-4 4 -4 8q0 9 11 9h66q7 0 11 -6l69 -102q3 -5 3 -8q0 -8 -11 -8z" />
    <glyph glyph-name="iacute" unicode="&#xed;" horiz-adv-x="209" 
d="M129 0h-48q-10 0 -10 10v422q0 10 10 10h48q10 0 10 -10v-422q0 -10 -10 -10zM109 505h-20q-11 0 -11 8q0 3 3 8l69 102q4 6 11 6h66q11 0 11 -9q0 -4 -4 -8l-114 -102q-5 -5 -11 -5z" />
    <glyph glyph-name="icircumflex" unicode="&#xee;" horiz-adv-x="209" 
d="M129 0h-48q-10 0 -10 10v422q0 10 10 10h48q10 0 10 -10v-422q0 -10 -10 -10zM42 505h-34q-11 0 -11 8q0 3 3 8l80 105q4 4 8 4h31q4 0 8 -4l81 -105q3 -4 3 -8q0 -8 -11 -8h-35q-4 0 -8 4l-44 62q-3 5 -8 5q-3 0 -8 -5l-47 -62q-4 -4 -8 -4z" />
    <glyph glyph-name="idieresis" unicode="&#xef;" horiz-adv-x="209" 
d="M129 0h-48q-10 0 -10 10v422q0 10 10 10h48q10 0 10 -10v-422q0 -10 -10 -10zM229 559q0 -18 -13.5 -31.5t-31.5 -13.5q-19 0 -31 13t-12 32t12 31t31 12t32 -12t13 -31zM66 559q0 -19 -12.5 -32t-31.5 -13t-31.5 13t-12.5 32t12.5 31t31.5 12t31.5 -12t12.5 -31z" />
    <glyph glyph-name="eth" unicode="&#xf0;" horiz-adv-x="458" 
d="M56 154v135q0 73 47 118t126 45h1l-57 57l-92 -41q-5 -2 -9.5 -0.5t-4.5 5.5v19q0 14 6 16l70 31l-77 77q-5 5 -1 9t11 4h52q3 0 10 -7l59 -59l101 45q4 2 9 0t5 -6v-22q0 -10 -8 -13l-77 -34l146 -145q31 -40 31 -99v-135q0 -73 -48 -118.5t-127 -45.5t-126 45.5
t-47 118.5zM336 154v135q0 43 -31.5 74.5t-75.5 31.5t-75 -31t-31 -75v-135q0 -44 31.5 -75.5t74.5 -31.5t75 31.5t32 75.5z" />
    <glyph glyph-name="ntilde" unicode="&#xf1;" horiz-adv-x="490" 
d="M129 0h-48q-10 0 -10 10v422q0 10 10 10h37q10 0 10 -10v-40q0 -11 9 -11q5 0 9 5q45 56 99 56q79 0 127 -45.5t48 -117.5v-269q0 -10 -10 -10h-48q-10 0 -10 10v269q0 43 -31.5 74.5t-75.5 31.5t-75 -31t-31 -75v-269q0 -10 -10 -10zM245 536l-20 13q-23 15 -42 15
q-26 0 -52 -26q-3 -3 -7 -3t-6 2l-10 7q-5 3 -5 8q0 4 14 24q29 40 66 40q29 0 59 -23l21 -16q18 -15 44 -15q27 0 54 27q4 4 7 4t6 -3l9 -7q5 -3 5 -8q0 -3 -18 -28q-30 -37 -63 -37q-22 0 -62 26z" />
    <glyph glyph-name="ograve" unicode="&#xf2;" horiz-adv-x="458" 
d="M56 154v135q0 73 47 118t126 45t127 -45t48 -118v-135q0 -73 -48 -118.5t-127 -45.5t-126 45.5t-47 118.5zM336 154v135q0 43 -31.5 74.5t-75.5 31.5t-75 -31t-31 -75v-135q0 -44 31.5 -75.5t74.5 -31.5t75 31.5t32 75.5zM264 505h-20q-6 0 -11 5l-114 102q-4 4 -4 8
q0 9 11 9h66q7 0 11 -6l69 -102q3 -4 3 -8q0 -8 -11 -8z" />
    <glyph glyph-name="oacute" unicode="&#xf3;" horiz-adv-x="458" 
d="M56 154v135q0 73 47 118t126 45t127 -45t48 -118v-135q0 -73 -48 -118.5t-127 -45.5t-126 45.5t-47 118.5zM336 154v135q0 43 -31.5 74.5t-75.5 31.5t-75 -31t-31 -75v-135q0 -44 31.5 -75.5t74.5 -31.5t75 31.5t32 75.5zM204 505h-20q-11 0 -11 8q0 3 3 8l69 102
q4 6 11 6h66q11 0 11 -9q0 -4 -4 -8l-114 -102q-5 -5 -11 -5z" />
    <glyph glyph-name="ocircumflex" unicode="&#xf4;" horiz-adv-x="458" 
d="M56 154v135q0 73 47 118t126 45t127 -45t48 -118v-135q0 -73 -48 -118.5t-127 -45.5t-126 45.5t-47 118.5zM336 154v135q0 43 -31.5 74.5t-75.5 31.5t-75 -31t-31 -75v-135q0 -44 31.5 -75.5t74.5 -31.5t75 31.5t32 75.5zM167 505h-34q-11 0 -11 8q0 3 3 8l80 105
q4 4 8 4h31q4 0 8 -4l81 -105q3 -4 3 -8q0 -8 -11 -8h-35q-4 0 -8 4l-44 62q-3 5 -8 5q-3 0 -8 -5l-47 -62q-4 -4 -8 -4z" />
    <glyph glyph-name="otilde" unicode="&#xf5;" horiz-adv-x="458" 
d="M56 154v135q0 73 47 118t126 45t127 -45t48 -118v-135q0 -73 -48 -118.5t-127 -45.5t-126 45.5t-47 118.5zM336 154v135q0 43 -31.5 74.5t-75.5 31.5t-75 -31t-31 -75v-135q0 -44 31.5 -75.5t74.5 -31.5t75 31.5t32 75.5zM229 536l-20 13q-23 15 -42 15q-26 0 -52 -26
q-3 -3 -7 -3t-6 2l-10 7q-5 3 -5 8q0 4 14 24q29 40 66 40q29 0 59 -23l21 -16q18 -15 44 -15q27 0 54 27q4 4 7 4t6 -3l9 -7q5 -3 5 -8q0 -3 -18 -28q-30 -37 -63 -37q-22 0 -62 26z" />
    <glyph glyph-name="odieresis" unicode="&#xf6;" horiz-adv-x="458" 
d="M56 154v135q0 73 47 118t126 45t127 -45t48 -118v-135q0 -73 -48 -118.5t-127 -45.5t-126 45.5t-47 118.5zM336 154v135q0 43 -31.5 74.5t-75.5 31.5t-75 -31t-31 -75v-135q0 -44 31.5 -75.5t74.5 -31.5t75 31.5t32 75.5zM354 559q0 -18 -13.5 -31.5t-31.5 -13.5
q-19 0 -31 13t-12 32t12 31t31 12t32 -12t13 -31zM191 559q0 -19 -12.5 -32t-31.5 -13t-31.5 13t-12.5 32t12.5 31t31.5 12t31.5 -12t12.5 -31z" />
    <glyph glyph-name="divide" unicode="&#xf7;" 
d="M305 398q0 -20 -15 -35t-35 -15q-19 0 -33.5 15t-14.5 35t14.5 34.5t33.5 14.5q21 0 35.5 -14t14.5 -35zM456 213h-401q-10 0 -10 10v27q0 10 10 10h401q10 0 10 -10v-27q0 -10 -10 -10zM305 76q0 -20 -15 -35t-35 -15q-19 0 -33.5 15t-14.5 35t14.5 34.5t33.5 14.5
q21 0 35.5 -14t14.5 -35z" />
    <glyph glyph-name="oslash" unicode="&#xf8;" horiz-adv-x="458" 
d="M56 154v135q0 73 47 118t126 45t127 -45t48 -118v-135q0 -73 -48 -118.5t-127 -45.5t-126 45.5t-47 118.5zM336 154v135q0 27 -17 57q-3 7 -9 7t-9 -8l-111 -262q-7 -14 -7 -18q0 -5 7 -9q19 -9 39 -9q43 0 75 31.5t32 75.5zM151 110l109 253l7 19q0 7 -8 9q-16 4 -30 4
q-44 0 -75 -31t-31 -75v-135q0 -22 10 -44q3 -7 9 -7t9 7z" />
    <glyph glyph-name="ugrave" unicode="&#xf9;" horiz-adv-x="479" 
d="M399 0h-37q-10 0 -10 10v43q0 11 -9 11q-5 0 -9 -5q-46 -59 -100 -59q-79 0 -126 45.5t-47 118.5v268q0 10 10 10h47q10 0 10 -10v-268q0 -44 31.5 -75.5t74.5 -31.5q45 0 76.5 31t31.5 76v268q0 10 10 10h47q10 0 10 -10v-422q0 -10 -10 -10zM274 505h-20q-6 0 -11 5
l-114 102q-4 4 -4 8q0 9 11 9h66q7 0 11 -6l69 -102q3 -4 3 -8q0 -8 -11 -8z" />
    <glyph glyph-name="uacute" unicode="&#xfa;" horiz-adv-x="479" 
d="M399 0h-37q-10 0 -10 10v43q0 11 -9 11q-5 0 -9 -5q-46 -59 -100 -59q-79 0 -126 45.5t-47 118.5v268q0 10 10 10h47q10 0 10 -10v-268q0 -44 31.5 -75.5t74.5 -31.5q45 0 76.5 31t31.5 76v268q0 10 10 10h47q10 0 10 -10v-422q0 -10 -10 -10zM214 505h-20q-11 0 -11 8
q0 3 3 8l69 102q4 6 11 6h66q11 0 11 -9q0 -4 -4 -8l-114 -102q-5 -5 -11 -5z" />
    <glyph glyph-name="ucircumflex" unicode="&#xfb;" horiz-adv-x="479" 
d="M399 0h-37q-10 0 -10 10v43q0 11 -9 11q-5 0 -9 -5q-46 -59 -100 -59q-79 0 -126 45.5t-47 118.5v268q0 10 10 10h47q10 0 10 -10v-268q0 -44 31.5 -75.5t74.5 -31.5q45 0 76.5 31t31.5 76v268q0 10 10 10h47q10 0 10 -10v-422q0 -10 -10 -10zM177 505h-34q-11 0 -11 8
q0 3 3 8l80 105q4 4 8 4h31q4 0 8 -4l81 -105q3 -4 3 -8q0 -8 -11 -8h-35q-4 0 -8 4l-44 62q-3 5 -8 5q-3 0 -8 -5l-47 -62q-4 -4 -8 -4z" />
    <glyph glyph-name="udieresis" unicode="&#xfc;" horiz-adv-x="479" 
d="M399 0h-37q-10 0 -10 10v43q0 11 -9 11q-5 0 -9 -5q-46 -59 -100 -59q-79 0 -126 45.5t-47 118.5v268q0 10 10 10h47q10 0 10 -10v-268q0 -44 31.5 -75.5t74.5 -31.5q45 0 76.5 31t31.5 76v268q0 10 10 10h47q10 0 10 -10v-422q0 -10 -10 -10zM364 559q0 -18 -13.5 -31.5
t-31.5 -13.5q-19 0 -31 13t-12 32t12 31t31 12t32 -12t13 -31zM201 559q0 -19 -12.5 -32t-31.5 -13t-31.5 13t-12.5 32t12.5 31t31.5 12t31.5 -12t12.5 -31z" />
    <glyph glyph-name="yacute" unicode="&#xfd;" horiz-adv-x="479" 
d="M86 -139l36 18q8 4 10 4q5 0 8 -5q37 -56 94 -56q45 0 76.5 31t31.5 76v119q0 11 -9 11q-5 0 -9 -5q-41 -54 -90 -54q-79 0 -126 45.5t-47 118.5v268q0 10 10 10h47q10 0 10 -10v-268q0 -44 31.5 -75.5t74.5 -31.5q51 0 79.5 34t28.5 73v268q0 10 10 10h47q10 0 10 -10
v-492q0 -79 -45.5 -127t-129.5 -48q-86 0 -132 53q-23 28 -23 34t7 9zM214 505h-20q-11 0 -11 8q0 3 3 8l69 102q4 6 11 6h66q11 0 11 -9q0 -4 -4 -8l-114 -102q-5 -5 -11 -5z" />
    <glyph glyph-name="thorn" unicode="&#xfe;" horiz-adv-x="474" 
d="M129 -225h-48q-10 0 -10 10v834q0 10 10 10h37q10 0 10 -10v-227q0 -11 9 -11q5 0 9 5q45 56 99 56q79 0 127 -45.5t48 -117.5v-115q0 -71 -47.5 -117.5t-117.5 -46.5q-51 0 -99 57q-5 5 -9 5q-8 0 -8 -12v-265q0 -10 -10 -10zM352 164v115q0 43 -31.5 74.5t-75.5 31.5
t-75 -31t-31 -75v-115q0 -44 31.5 -75.5t74.5 -31.5t75 31.5t32 75.5z" />
    <glyph glyph-name="ydieresis" unicode="&#xff;" horiz-adv-x="479" 
d="M86 -139l36 18q8 4 10 4q5 0 8 -5q37 -56 94 -56q45 0 76.5 31t31.5 76v119q0 11 -9 11q-5 0 -9 -5q-41 -54 -90 -54q-79 0 -126 45.5t-47 118.5v268q0 10 10 10h47q10 0 10 -10v-268q0 -44 31.5 -75.5t74.5 -31.5q51 0 79.5 34t28.5 73v268q0 10 10 10h47q10 0 10 -10
v-492q0 -79 -45.5 -127t-129.5 -48q-86 0 -132 53q-23 28 -23 34t7 9zM364 559q0 -18 -13.5 -31.5t-31.5 -13.5q-19 0 -31 13t-12 32t12 31t31 12t32 -12t13 -31zM201 559q0 -19 -12.5 -32t-31.5 -13t-31.5 13t-12.5 32t12.5 31t31.5 12t31.5 -12t12.5 -31z" />
    <glyph glyph-name="Amacron" unicode="&#x100;" horiz-adv-x="448" 
d="M71 0h-51q-11 0 -11 8q0 4 7 25l179 589q1 7 10 7h38q9 0 10 -7l177 -583q9 -27 9 -31q0 -8 -11 -8h-51q-9 0 -10 7l-39 138q-1 6 -10 6h-188q-9 0 -10 -6l-39 -138q-1 -7 -10 -7zM151 208h144q11 0 11 9l-68 261q-1 3 -5.5 19t-5.5 20h-4q-6 -24 -11 -39l-72 -261
q0 -9 11 -9zM321 705h-194q-10 0 -10 10v35q0 10 10 10h194q10 0 10 -10v-35q0 -10 -10 -10z" />
    <glyph glyph-name="amacron" unicode="&#x101;" horiz-adv-x="462" 
d="M222 0h-40q-54 0 -90 32.5t-36 84.5v6q0 52 36 84t90 32h132q10 0 10 9v41q0 44 -31 74t-76 30q-57 0 -94 -55q-3 -5 -8 -5q-3 0 -11 4l-36 19q-6 3 -6 8q0 6 19 30q46 56 136 56q79 0 127 -44t48 -117v-279q0 -10 -10 -10h-37q-10 0 -10 10v43q0 12 -9 12q-4 0 -9 -5
q-23 -26 -49.5 -43t-45.5 -17zM182 57h40q32 0 60.5 26t41.5 61v38q0 10 -10 10h-132q-25 0 -42 -17t-17 -42v-16q0 -24 17.5 -42t41.5 -18zM328 523h-194q-10 0 -10 10v37q0 10 10 10h194q10 0 10 -10v-37q0 -10 -10 -10z" />
    <glyph glyph-name="Abreve" unicode="&#x102;" horiz-adv-x="448" 
d="M71 0h-51q-11 0 -11 8q0 4 7 25l179 589q1 7 10 7h38q9 0 10 -7l177 -583q9 -27 9 -31q0 -8 -11 -8h-51q-9 0 -10 7l-39 138q-1 6 -10 6h-188q-9 0 -10 -6l-39 -138q-1 -7 -10 -7zM151 208h144q11 0 11 9l-68 261q-1 3 -5.5 19t-5.5 20h-4q-6 -24 -11 -39l-72 -261
q0 -9 11 -9zM236 693h-26q-39 0 -62 17t-23 46v33q0 8 10 8h10q10 0 10 -8v-18q0 -14 16 -24t39 -10h26q23 0 39.5 10t16.5 24v18q0 8 10 8h11q10 0 10 -8v-33q0 -28 -24 -45.5t-63 -17.5z" />
    <glyph glyph-name="abreve" unicode="&#x103;" horiz-adv-x="462" 
d="M222 0h-40q-54 0 -90 32.5t-36 84.5v6q0 52 36 84t90 32h132q10 0 10 9v41q0 44 -31 74t-76 30q-57 0 -94 -55q-3 -5 -8 -5q-3 0 -11 4l-36 19q-6 3 -6 8q0 6 19 30q46 56 136 56q79 0 127 -44t48 -117v-279q0 -10 -10 -10h-37q-10 0 -10 10v43q0 12 -9 12q-4 0 -9 -5
q-23 -26 -49.5 -43t-45.5 -17zM182 57h40q32 0 60.5 26t41.5 61v38q0 10 -10 10h-132q-25 0 -42 -17t-17 -42v-16q0 -24 17.5 -42t41.5 -18zM253 505h-46q-39 0 -62 20.5t-23 54.5v40q0 10 10 10h10q10 0 10 -10v-21q0 -20 16 -35t39 -15h46q23 0 39.5 15t16.5 35v21
q0 10 10 10h11q10 0 10 -10v-40q0 -33 -24 -54t-63 -21z" />
    <glyph glyph-name="Aogonek" unicode="&#x104;" horiz-adv-x="448" 
d="M474 -231h-4q-46 11 -74.5 45.5t-28.5 79.5v113l-39 138q-1 6 -10 6h-188q-9 0 -10 -6l-39 -138q-1 -7 -10 -7h-51q-11 0 -11 8q0 4 7 25l179 589q1 7 10 7h38q9 0 10 -7l177 -583q9 -27 9 -31q0 -8 -11 -8h-16v-113q0 -30 16.5 -51.5t46.5 -29.5q7 -1 7 -10v-17
q0 -10 -8 -10zM151 208h144q11 0 11 9l-68 261l-11 39h-4l-11 -39l-72 -261q0 -9 11 -9z" />
    <glyph glyph-name="aogonek" unicode="&#x105;" horiz-adv-x="462" 
d="M442 -231h-4q-46 11 -74.5 45.5t-28.5 79.5v159q0 12 -9 12q-4 0 -9 -5q-23 -26 -49.5 -43t-45.5 -17h-40q-54 0 -90 32.5t-36 84.5v6q0 52 36 84t90 32h132q10 0 10 9v41q0 44 -31 74t-76 30q-57 0 -94 -55q-3 -5 -8 -5q-3 0 -11 4l-36 19q-6 3 -6 8q0 6 19 30
q46 56 136 56q79 0 127 -44t48 -117v-279q0 -10 -10 -10h-2v-113q0 -30 16.5 -51.5t46.5 -29.5q7 -1 7 -10v-17q0 -10 -8 -10zM182 57h40q32 0 60.5 26t41.5 61v38q0 10 -10 10h-132q-25 0 -42 -17t-17 -42v-16q0 -24 17.5 -42t41.5 -18z" />
    <glyph glyph-name="Cacute" unicode="&#x106;" horiz-adv-x="464" 
d="M271 -10h-31q-79 0 -126.5 45.5t-47.5 118.5v322q0 73 47.5 118.5t126.5 45.5h31q86 0 134 -53q22 -24 22 -33q0 -6 -7 -9l-38 -19q-4 -3 -9 -3q-4 0 -7 4q-40 55 -95 55h-31q-45 0 -75.5 -30.5t-30.5 -75.5v-322q0 -44 30.5 -75.5t75.5 -31.5h31q56 0 95 57q3 4 7 4
q5 0 9 -3l38 -19q7 -4 7 -9q0 -9 -23 -34q-46 -53 -133 -53zM227 693h-27q-7 0 -7 5q0 1 2 5l65 86q4 6 13 6h79q8 0 8 -7q0 -3 -4 -6l-115 -84q-7 -5 -14 -5z" />
    <glyph glyph-name="cacute" unicode="&#x107;" horiz-adv-x="425" 
d="M344 103l34 -17q7 -4 7 -9q0 -6 -22 -33q-46 -54 -134 -54q-79 0 -126 45.5t-47 118.5v135q0 73 47 118t126 45q89 0 134 -52q22 -26 22 -33q0 -5 -7 -9l-36 -18q-8 -4 -11 -4q-4 0 -7 4q-39 55 -95 55q-44 0 -75 -31t-31 -75v-135q0 -44 31.5 -75.5t74.5 -31.5
q56 0 95 57q3 4 7 4q3 0 13 -5zM213 505h-20q-11 0 -11 8q0 3 3 8l69 102q4 6 11 6h66q11 0 11 -9q0 -4 -4 -8l-114 -102q-5 -5 -11 -5z" />
    <glyph glyph-name="Ccircumflex" unicode="&#x108;" horiz-adv-x="464" 
d="M271 -10h-31q-79 0 -126.5 45.5t-47.5 118.5v322q0 73 47.5 118.5t126.5 45.5h31q86 0 134 -53q22 -24 22 -33q0 -6 -7 -9l-38 -19q-4 -3 -9 -3q-4 0 -7 4q-40 55 -95 55h-31q-45 0 -75.5 -30.5t-30.5 -75.5v-322q0 -44 30.5 -75.5t75.5 -31.5h31q56 0 95 57q3 4 7 4
q5 0 9 -3l38 -19q7 -4 7 -9q0 -9 -23 -34q-46 -53 -133 -53zM199 693h-42q-7 0 -7 5q0 1 1.5 3l3 4t1.5 3l61 84q4 5 11 5h48q7 0 11 -5l61 -84l3 -4q3 -4 3 -6q0 -5 -7 -5h-43q-6 0 -10 6l-36 55q-3 4 -6 4q-2 0 -6 -4l-36 -55q-4 -6 -11 -6z" />
    <glyph glyph-name="ccircumflex" unicode="&#x109;" horiz-adv-x="425" 
d="M344 103l34 -17q7 -4 7 -9q0 -6 -22 -33q-46 -54 -134 -54q-79 0 -126 45.5t-47 118.5v135q0 73 47 118t126 45q89 0 134 -52q22 -26 22 -33q0 -5 -7 -9l-36 -18q-8 -4 -11 -4q-4 0 -7 4q-39 55 -95 55q-44 0 -75 -31t-31 -75v-135q0 -44 31.5 -75.5t74.5 -31.5
q56 0 95 57q3 4 7 4q3 0 13 -5zM166 505h-34q-11 0 -11 8q0 3 3 8l80 105q4 4 8 4h31q4 0 8 -4l81 -105q3 -4 3 -8q0 -8 -11 -8h-35q-4 0 -8 4l-44 62q-3 5 -8 5q-3 0 -8 -5l-47 -62q-4 -4 -8 -4z" />
    <glyph glyph-name="Cdotaccent" unicode="&#x10a;" horiz-adv-x="464" 
d="M271 -10h-31q-79 0 -126.5 45.5t-47.5 118.5v322q0 73 47.5 118.5t126.5 45.5h31q86 0 134 -53q22 -24 22 -33q0 -6 -7 -9l-38 -19q-4 -3 -9 -3q-4 0 -7 4q-40 55 -95 55h-31q-45 0 -75.5 -30.5t-30.5 -75.5v-322q0 -44 30.5 -75.5t75.5 -31.5h31q56 0 95 57q3 4 7 4
q5 0 9 -3l38 -19q7 -4 7 -9q0 -9 -23 -34q-46 -53 -133 -53zM293 741q0 -17 -12 -30t-29 -13q-18 0 -29.5 12.5t-11.5 30.5q0 16 12 28.5t29 12.5q18 0 29.5 -12t11.5 -29z" />
    <glyph glyph-name="cdotaccent" unicode="&#x10b;" horiz-adv-x="425" 
d="M344 103l34 -17q7 -4 7 -9q0 -6 -22 -33q-46 -54 -134 -54q-79 0 -126 45.5t-47 118.5v135q0 73 47 118t126 45q89 0 134 -52q22 -26 22 -33q0 -5 -7 -9l-36 -18q-8 -4 -11 -4q-4 0 -7 4q-39 55 -95 55q-44 0 -75 -31t-31 -75v-135q0 -44 31.5 -75.5t74.5 -31.5
q56 0 95 57q3 4 7 4q3 0 13 -5zM272 559q0 -19 -12.5 -32t-31.5 -13t-31.5 13t-12.5 32t12.5 31t31.5 12t31.5 -12t12.5 -31z" />
    <glyph glyph-name="Ccaron" unicode="&#x10c;" horiz-adv-x="464" 
d="M271 -10h-31q-79 0 -126.5 45.5t-47.5 118.5v322q0 73 47.5 118.5t126.5 45.5h31q86 0 134 -53q22 -24 22 -33q0 -6 -7 -9l-38 -19q-4 -3 -9 -3q-4 0 -7 4q-40 55 -95 55h-31q-45 0 -75.5 -30.5t-30.5 -75.5v-322q0 -44 30.5 -75.5t75.5 -31.5h31q56 0 95 57q3 4 7 4
q5 0 9 -3l38 -19q7 -4 7 -9q0 -9 -23 -34q-46 -53 -133 -53zM276 693h-48q-7 0 -11 5l-56 77l-5 7q-6 8 -6 10q0 5 7 5h43q6 0 10 -6l36 -55q3 -4 6 -4q2 0 6 4l36 55q4 6 11 6h42q7 0 7 -5q0 -2 -18 -26l-49 -68q-4 -5 -11 -5z" />
    <glyph glyph-name="ccaron" unicode="&#x10d;" horiz-adv-x="425" 
d="M344 103l34 -17q7 -4 7 -9q0 -6 -22 -33q-46 -54 -134 -54q-79 0 -126 45.5t-47 118.5v135q0 73 47 118t126 45q89 0 134 -52q22 -26 22 -33q0 -5 -7 -9l-36 -18q-8 -4 -11 -4q-4 0 -7 4q-39 55 -95 55q-44 0 -75 -31t-31 -75v-135q0 -44 31.5 -75.5t74.5 -31.5
q56 0 95 57q3 4 7 4q3 0 13 -5zM243 505h-31q-4 0 -8 4l-80 105q-3 5 -3 8q0 8 11 8h35q4 0 8 -4l46 -60q5 -5 8 -5q5 0 8 5l43 60q4 4 8 4h36q11 0 11 -8q0 -4 -3 -8l-81 -105q-4 -4 -8 -4z" />
    <glyph glyph-name="Dcaron" unicode="&#x10e;" horiz-adv-x="526" 
d="M286 0h-194q-10 0 -10 10v609q0 10 10 10h194q80 0 127.5 -47t47.5 -126v-281q0 -80 -47.5 -127.5t-127.5 -47.5zM159 57h127q45 0 76.5 31t31.5 76v302q0 44 -31.5 75t-76.5 31h-127q-10 0 -10 -10v-495q0 -10 10 -10zM277 693h-48q-7 0 -11 5l-56 77l-6 7q-5 8 -5 10
q0 5 7 5h43q5 0 10 -6l36 -55q3 -4 6 -4q2 0 6 4l36 55q5 6 11 6h42q7 0 7 -5q0 -2 -18 -26l-49 -68q-4 -5 -11 -5z" />
    <glyph glyph-name="dcaron" unicode="&#x10f;" horiz-adv-x="484" 
d="M394 0h-37q-10 0 -10 10v43q0 11 -9 11q-5 0 -9 -5q-46 -59 -100 -59q-79 0 -126 45.5t-47 118.5v115q0 71 46.5 117t116.5 46q55 0 99 -57q4 -5 9 -5q9 0 9 11v228q0 10 10 10h48q10 0 10 -10v-609q0 -10 -10 -10zM336 164v115q0 43 -31.5 74.5t-75.5 31.5t-75 -31
t-31 -75v-115q0 -44 31.5 -75.5t74.5 -31.5t75 31.5t32 75.5zM447 496l-11 12q-2 2 -2 7t2 7q34 40 34 128v23q0 10 8 10h45q7 0 7 -10v-24q0 -113 -66 -158q-4 -2 -7 -2t-10 7z" />
    <glyph glyph-name="Dcroat" unicode="&#x110;" horiz-adv-x="526" 
d="M286 0h-194q-10 0 -10 10v266q0 9 -8 9h-43q-10 0 -10 10v38q0 10 10 10h42q9 0 9 9v267q0 10 10 10h194q80 0 127.5 -47t47.5 -126v-281q0 -80 -47.5 -127.5t-127.5 -47.5zM159 57h127q45 0 76.5 31t31.5 76v302q0 44 -31.5 75t-76.5 31h-127q-10 0 -10 -10v-210
q0 -9 9 -9h78q10 0 10 -10v-38q0 -10 -10 -10h-79q-8 0 -8 -8v-210q0 -10 10 -10z" />
    <glyph glyph-name="dcroat" unicode="&#x111;" horiz-adv-x="474" 
d="M394 0h-37q-10 0 -10 10v43q0 11 -9 11q-5 0 -9 -5q-46 -59 -100 -59q-79 0 -126 45.5t-47 118.5v115q0 71 46.5 117t116.5 46q55 0 99 -57q4 -5 9 -5q9 0 9 11v108q-1 7 -8 7h-89q-10 0 -10 10v27q0 10 10 10h88q8 0 9 6v60q0 10 10 10h48q10 0 10 -10v-59q0 -7 9 -7h39
q10 0 10 -10v-27q0 -10 -10 -10h-39q-9 0 -9 -8v-488q0 -10 -10 -10zM336 164v115q0 43 -31.5 74.5t-75.5 31.5t-75 -31t-31 -75v-115q0 -44 31.5 -75.5t74.5 -31.5t75 31.5t32 75.5z" />
    <glyph glyph-name="Emacron" unicode="&#x112;" horiz-adv-x="479" 
d="M420 0h-328q-10 0 -10 10v609q0 10 10 10h328q10 0 10 -10v-37q0 -10 -10 -10h-261q-10 0 -10 -10v-204q0 -10 10 -10h214q10 0 10 -10v-37q0 -10 -10 -10h-214q-10 0 -10 -10v-214q0 -10 10 -10h261q10 0 10 -10v-37q0 -10 -10 -10zM356 705h-194q-10 0 -10 10v35
q0 10 10 10h194q10 0 10 -10v-35q0 -10 -10 -10z" />
    <glyph glyph-name="emacron" unicode="&#x113;" horiz-adv-x="458" 
d="M342 104l36 -18q7 -4 7 -9q0 -7 -22 -33q-46 -54 -134 -54q-79 0 -126 45.5t-47 118.5v135q0 62 48.5 112.5t124.5 50.5t125.5 -50.5t49.5 -112.5v-61q0 -10 -10 -10h-261q-10 0 -10 -10v-54q0 -44 31.5 -75.5t74.5 -31.5q56 0 95 57q3 4 7 4q1 0 11 -4zM133 265h193
q10 0 10 10v14q0 43 -31.5 74.5t-75.5 31.5t-75 -31t-31 -75v-14q0 -10 10 -10zM326 523h-194q-10 0 -10 10v37q0 10 10 10h194q10 0 10 -10v-37q0 -10 -10 -10z" />
    <glyph glyph-name="Ebreve" unicode="&#x114;" horiz-adv-x="479" 
d="M420 0h-328q-10 0 -10 10v609q0 10 10 10h328q10 0 10 -10v-37q0 -10 -10 -10h-261q-10 0 -10 -10v-204q0 -10 10 -10h214q10 0 10 -10v-37q0 -10 -10 -10h-214q-10 0 -10 -10v-214q0 -10 10 -10h261q10 0 10 -10v-37q0 -10 -10 -10zM271 693h-26q-39 0 -62 17t-23 46v33
q0 8 10 8h10q10 0 10 -8v-18q0 -14 16 -24t39 -10h26q23 0 39.5 10t16.5 24v18q0 8 10 8h11q10 0 10 -8v-33q0 -28 -24 -45.5t-63 -17.5z" />
    <glyph glyph-name="ebreve" unicode="&#x115;" horiz-adv-x="458" 
d="M342 104l36 -18q7 -4 7 -9q0 -7 -22 -33q-46 -54 -134 -54q-79 0 -126 45.5t-47 118.5v135q0 62 48.5 112.5t124.5 50.5t125.5 -50.5t49.5 -112.5v-61q0 -10 -10 -10h-261q-10 0 -10 -10v-54q0 -44 31.5 -75.5t74.5 -31.5q56 0 95 57q3 4 7 4q1 0 11 -4zM133 265h193
q10 0 10 10v14q0 43 -31.5 74.5t-75.5 31.5t-75 -31t-31 -75v-14q0 -10 10 -10zM251 505h-46q-39 0 -62 20.5t-23 54.5v40q0 10 10 10h10q10 0 10 -10v-21q0 -20 16 -35t39 -15h46q23 0 39.5 15t16.5 35v21q0 10 10 10h11q10 0 10 -10v-40q0 -33 -24 -54t-63 -21z" />
    <glyph glyph-name="Edotaccent" unicode="&#x116;" horiz-adv-x="479" 
d="M420 0h-328q-10 0 -10 10v609q0 10 10 10h328q10 0 10 -10v-37q0 -10 -10 -10h-261q-10 0 -10 -10v-204q0 -10 10 -10h214q10 0 10 -10v-37q0 -10 -10 -10h-214q-10 0 -10 -10v-214q0 -10 10 -10h261q10 0 10 -10v-37q0 -10 -10 -10zM300 741q0 -17 -12 -30t-29 -13
q-18 0 -29.5 12.5t-11.5 30.5q0 16 12 28.5t29 12.5q18 0 29.5 -12t11.5 -29z" />
    <glyph glyph-name="edotaccent" unicode="&#x117;" horiz-adv-x="458" 
d="M342 104l36 -18q7 -4 7 -9q0 -7 -22 -33q-46 -54 -134 -54q-79 0 -126 45.5t-47 118.5v135q0 62 48.5 112.5t124.5 50.5t125.5 -50.5t49.5 -112.5v-61q0 -10 -10 -10h-261q-10 0 -10 -10v-54q0 -44 31.5 -75.5t74.5 -31.5q56 0 95 57q3 4 7 4q1 0 11 -4zM133 265h193
q10 0 10 10v14q0 43 -31.5 74.5t-75.5 31.5t-75 -31t-31 -75v-14q0 -10 10 -10zM273 559q0 -19 -12.5 -32t-31.5 -13t-31.5 13t-12.5 32t12.5 31t31.5 12t31.5 -12t12.5 -31z" />
    <glyph glyph-name="Eogonek" unicode="&#x118;" horiz-adv-x="479" 
d="M420 -204v-17q0 -10 -8 -10h-4q-46 11 -74.5 45.5t-28.5 79.5v106h-213q-10 0 -10 10v609q0 10 10 10h328q10 0 10 -10v-37q0 -10 -10 -10h-261q-10 0 -10 -10v-204q0 -10 10 -10h214q10 0 10 -10v-37q0 -10 -10 -10h-214q-10 0 -10 -10v-214q0 -10 10 -10h261
q10 0 10 -10v-37q0 -10 -10 -10h-70v-113q0 -30 16.5 -51.5t46.5 -29.5q7 -1 7 -10z" />
    <glyph glyph-name="eogonek" unicode="&#x119;" horiz-adv-x="458" 
d="M335 -231h-4q-46 11 -74.5 45.5t-28.5 79.5v96q-79 1 -125.5 46t-46.5 118v135q0 62 48.5 112.5t124.5 50.5t125.5 -50.5t49.5 -112.5v-61q0 -10 -10 -10h-261q-10 0 -10 -10v-54q0 -44 31.5 -75.5t74.5 -31.5q56 0 95 57q3 4 7 4q1 0 11 -4l36 -18q7 -4 7 -9
q0 -7 -22 -33q-34 -40 -90 -50v-107q0 -30 16.5 -51.5t46.5 -29.5q7 -1 7 -10v-17q0 -10 -8 -10zM133 265h193q10 0 10 10v14q0 43 -31.5 74.5t-75.5 31.5t-75 -31t-31 -75v-14q0 -10 10 -10z" />
    <glyph glyph-name="Ecaron" unicode="&#x11a;" horiz-adv-x="479" 
d="M420 0h-328q-10 0 -10 10v609q0 10 10 10h328q10 0 10 -10v-37q0 -10 -10 -10h-261q-10 0 -10 -10v-204q0 -10 10 -10h214q10 0 10 -10v-37q0 -10 -10 -10h-214q-10 0 -10 -10v-214q0 -10 10 -10h261q10 0 10 -10v-37q0 -10 -10 -10zM283 693h-48q-7 0 -11 5l-56 77l-6 7
q-5 8 -5 10q0 5 7 5h43q5 0 10 -6l36 -55q3 -4 6 -4q2 0 6 4l36 55q5 6 11 6h42q7 0 7 -5q0 -2 -18 -26l-49 -68q-4 -5 -11 -5z" />
    <glyph glyph-name="ecaron" unicode="&#x11b;" horiz-adv-x="458" 
d="M342 104l36 -18q7 -4 7 -9q0 -7 -22 -33q-46 -54 -134 -54q-79 0 -126 45.5t-47 118.5v135q0 62 48.5 112.5t124.5 50.5t125.5 -50.5t49.5 -112.5v-61q0 -10 -10 -10h-261q-10 0 -10 -10v-54q0 -44 31.5 -75.5t74.5 -31.5q56 0 95 57q3 4 7 4q1 0 11 -4zM133 265h193
q10 0 10 10v14q0 43 -31.5 74.5t-75.5 31.5t-75 -31t-31 -75v-14q0 -10 10 -10zM244 505h-31q-4 0 -8 4l-80 105q-3 5 -3 8q0 8 11 8h35q4 0 8 -4l46 -60q5 -5 8 -5q5 0 8 5l43 60q4 4 8 4h36q11 0 11 -8q0 -4 -3 -8l-81 -105q-4 -4 -8 -4z" />
    <glyph glyph-name="Gcircumflex" unicode="&#x11c;" 
d="M271 -10h-31q-79 0 -126.5 45.5t-47.5 118.5v322q0 73 47.5 118.5t126.5 45.5h50q88 0 134 -54q21 -25 21 -32q0 -6 -7 -9l-36 -18q-8 -4 -11 -4q-4 0 -7 4q-37 55 -94 55h-50q-45 0 -75.5 -30.5t-30.5 -75.5v-322q0 -44 30.5 -75.5t75.5 -31.5h31q43 0 75 31.5t32 75.5
v80q0 10 -10 10h-105q-10 0 -10 10v38q0 10 10 10h173q10 0 10 -10v-138q0 -73 -48 -118.5t-127 -45.5zM207 693h-42q-7 0 -7 5q0 1 1.5 3l3 4t1.5 3l61 84q4 5 11 5h48q7 0 11 -5l61 -84l3 -4q3 -4 3 -6q0 -5 -7 -5h-43q-6 0 -10 6l-36 55q-3 4 -6 4q-2 0 -6 -4l-36 -55
q-4 -6 -11 -6z" />
    <glyph glyph-name="gcircumflex" unicode="&#x11d;" horiz-adv-x="458" 
d="M323 -225h-141q-54 0 -90 31.5t-36 84.5v6q0 50 62 93q5 2 5 8q0 4 -7 16q-13 23 -13 45q0 26 15 51q10 17 10 18q0 4 -14 16q-58 49 -58 125v10q0 71 49.5 117t123.5 46q54 0 100 -58q4 -5 9 -5q9 0 9 11v42q0 10 10 10h37q10 0 10 -10v-163q0 -71 -50.5 -117.5
t-124.5 -46.5q-14 0 -32 2q-37 -16 -37 -48q0 -16 10.5 -30t25.5 -18h127q55 0 91.5 -31t36.5 -83v-6q0 -53 -37 -84.5t-91 -31.5zM336 269v10q0 43 -31.5 74.5t-75.5 31.5t-75 -31t-31 -75v-10q0 -44 31.5 -75.5t74.5 -31.5t75 32t32 75zM182 -168h141q26 0 43 16.5
t17 42.5v6q0 24 -18 40t-42 16h-141q-25 0 -42 -16t-17 -40v-6q0 -26 16.5 -42.5t42.5 -16.5zM167 505h-34q-11 0 -11 8q0 3 3 8l80 105q4 4 8 4h31q4 0 8 -4l81 -105q3 -4 3 -8q0 -8 -11 -8h-35q-4 0 -8 4l-44 62q-3 5 -8 5q-3 0 -8 -5l-47 -62q-4 -4 -8 -4z" />
    <glyph glyph-name="Gbreve" unicode="&#x11e;" 
d="M271 -10h-31q-79 0 -126.5 45.5t-47.5 118.5v322q0 73 47.5 118.5t126.5 45.5h50q88 0 134 -54q21 -25 21 -32q0 -6 -7 -9l-36 -18q-8 -4 -11 -4q-4 0 -7 4q-37 55 -94 55h-50q-45 0 -75.5 -30.5t-30.5 -75.5v-322q0 -44 30.5 -75.5t75.5 -31.5h31q43 0 75 31.5t32 75.5
v80q0 10 -10 10h-105q-10 0 -10 10v38q0 10 10 10h173q10 0 10 -10v-138q0 -73 -48 -118.5t-127 -45.5zM272 693h-26q-39 0 -62 17t-23 46v33q0 8 10 8h10q10 0 10 -8v-18q0 -14 16 -24t39 -10h26q23 0 39.5 10t16.5 24v18q0 8 10 8h11q10 0 10 -8v-33q0 -28 -24 -45.5
t-63 -17.5z" />
    <glyph glyph-name="gbreve" unicode="&#x11f;" horiz-adv-x="458" 
d="M323 -225h-141q-54 0 -90 31.5t-36 84.5v6q0 50 62 93q5 2 5 8q0 4 -7 16q-13 23 -13 45q0 26 15 51q10 17 10 18q0 4 -14 16q-58 49 -58 125v10q0 71 49.5 117t123.5 46q54 0 100 -58q4 -5 9 -5q9 0 9 11v42q0 10 10 10h37q10 0 10 -10v-163q0 -71 -50.5 -117.5
t-124.5 -46.5q-14 0 -32 2q-37 -16 -37 -48q0 -16 10.5 -30t25.5 -18h127q55 0 91.5 -31t36.5 -83v-6q0 -53 -37 -84.5t-91 -31.5zM336 269v10q0 43 -31.5 74.5t-75.5 31.5t-75 -31t-31 -75v-10q0 -44 31.5 -75.5t74.5 -31.5t75 32t32 75zM182 -168h141q26 0 43 16.5
t17 42.5v6q0 24 -18 40t-42 16h-141q-25 0 -42 -16t-17 -40v-6q0 -26 16.5 -42.5t42.5 -16.5zM251 505h-46q-39 0 -62 20.5t-23 54.5v40q0 10 10 10h10q10 0 10 -10v-21q0 -20 16 -35t39 -15h46q23 0 39.5 15t16.5 35v21q0 10 10 10h11q10 0 10 -10v-40q0 -33 -24 -54
t-63 -21z" />
    <glyph glyph-name="Gdotaccent" unicode="&#x120;" 
d="M271 -10h-31q-79 0 -126.5 45.5t-47.5 118.5v322q0 73 47.5 118.5t126.5 45.5h50q88 0 134 -54q21 -25 21 -32q0 -6 -7 -9l-36 -18q-8 -4 -11 -4q-4 0 -7 4q-37 55 -94 55h-50q-45 0 -75.5 -30.5t-30.5 -75.5v-322q0 -44 30.5 -75.5t75.5 -31.5h31q43 0 75 31.5t32 75.5
v80q0 10 -10 10h-105q-10 0 -10 10v38q0 10 10 10h173q10 0 10 -10v-138q0 -73 -48 -118.5t-127 -45.5zM301 741q0 -17 -12 -30t-29 -13q-18 0 -29.5 12.5t-11.5 30.5q0 16 12 28.5t29 12.5q18 0 29.5 -12t11.5 -29z" />
    <glyph glyph-name="gdotaccent" unicode="&#x121;" horiz-adv-x="458" 
d="M323 -225h-141q-54 0 -90 31.5t-36 84.5v6q0 50 62 93q5 2 5 8q0 4 -7 16q-13 23 -13 45q0 26 15 51q10 17 10 18q0 4 -14 16q-58 49 -58 125v10q0 71 49.5 117t123.5 46q54 0 100 -58q4 -5 9 -5q9 0 9 11v42q0 10 10 10h37q10 0 10 -10v-163q0 -71 -50.5 -117.5
t-124.5 -46.5q-14 0 -32 2q-37 -16 -37 -48q0 -16 10.5 -30t25.5 -18h127q55 0 91.5 -31t36.5 -83v-6q0 -53 -37 -84.5t-91 -31.5zM336 269v10q0 43 -31.5 74.5t-75.5 31.5t-75 -31t-31 -75v-10q0 -44 31.5 -75.5t74.5 -31.5t75 32t32 75zM182 -168h141q26 0 43 16.5
t17 42.5v6q0 24 -18 40t-42 16h-141q-25 0 -42 -16t-17 -40v-6q0 -26 16.5 -42.5t42.5 -16.5zM273 559q0 -19 -12.5 -32t-31.5 -13t-31.5 13t-12.5 32t12.5 31t31.5 12t31.5 -12t12.5 -31z" />
    <glyph glyph-name="Gcommaaccent" unicode="&#x122;" 
d="M271 -10h-31q-79 0 -126.5 45.5t-47.5 118.5v322q0 73 47.5 118.5t126.5 45.5h50q88 0 134 -54q21 -25 21 -32q0 -6 -7 -9l-36 -18q-8 -4 -11 -4q-4 0 -7 4q-37 55 -94 55h-50q-45 0 -75.5 -30.5t-30.5 -75.5v-322q0 -44 30.5 -75.5t75.5 -31.5h31q43 0 75 31.5t32 75.5
v80q0 10 -10 10h-105q-10 0 -10 10v38q0 10 10 10h173q10 0 10 -10v-138q0 -73 -48 -118.5t-127 -45.5zM215 -244l-11 13q-7 9 -7 11q0 5 3 8q35 35 35 127v23q0 10 9 10h47q8 0 8 -10v-24q0 -114 -70 -159q-4 -2 -7 -2q-4 0 -7 3z" />
    <glyph glyph-name="gcommaaccent" unicode="&#x123;" horiz-adv-x="458" 
d="M323 -225h-141q-54 0 -90 31.5t-36 84.5v6q0 50 62 93q5 2 5 8q0 4 -7 16q-13 23 -13 45q0 26 15 51q10 17 10 18q0 4 -14 16q-58 49 -58 125v10q0 71 49.5 117t123.5 46q54 0 100 -58q4 -5 9 -5q9 0 9 11v42q0 10 10 10h37q10 0 10 -10v-163q0 -71 -50.5 -117.5
t-124.5 -46.5q-14 0 -32 2q-37 -16 -37 -48q0 -16 10.5 -30t25.5 -18h127q55 0 91.5 -31t36.5 -83v-6q0 -53 -37 -84.5t-91 -31.5zM336 269v10q0 43 -31.5 74.5t-75.5 31.5t-75 -31t-31 -75v-10q0 -44 31.5 -75.5t74.5 -31.5t75 32t32 75zM182 -168h141q26 0 43 16.5
t17 42.5v6q0 24 -18 40t-42 16h-141q-25 0 -42 -16t-17 -40v-6q0 -26 16.5 -42.5t42.5 -16.5zM233 497h-46q-9 0 -9 9v25q0 113 71 158q4 2 7 2q4 0 14 -11t10 -16t-3 -8q-35 -42 -35 -127v-23q0 -9 -9 -9z" />
    <glyph glyph-name="Hcircumflex" unicode="&#x124;" horiz-adv-x="557" 
d="M139 0h-47q-10 0 -10 10v609q0 10 10 10h47q10 0 10 -10v-261q0 -10 10 -10h240q10 0 10 10v261q0 10 10 10h48q10 0 10 -10v-609q0 -10 -10 -10h-48q-10 0 -10 10v271q0 10 -10 10h-240q-10 0 -10 -10v-271q0 -10 -10 -10zM225 693h-42q-7 0 -7 5q0 1 1.5 3l3 4t1.5 3
l61 84q4 5 11 5h48q7 0 11 -5l61 -84l3 -4q3 -4 3 -6q0 -5 -7 -5h-43q-6 0 -10 6l-36 55q-3 4 -6 4q-2 0 -6 -4l-36 -55q-4 -6 -11 -6z" />
    <glyph glyph-name="hcircumflex" unicode="&#x125;" horiz-adv-x="484" 
d="M129 0h-48q-10 0 -10 10v609q0 10 10 10h48q10 0 10 -10v-226q0 -11 8 -11q4 0 9 5q45 55 99 55q70 0 117.5 -46t47.5 -117v-269q0 -10 -10 -10h-48q-10 0 -10 10v269q0 43 -31.5 74.5t-75.5 31.5t-75 -31t-31 -75v-269q0 -10 -10 -10zM53 693h-42q-7 0 -7 5q0 1 1.5 3
l3 4t1.5 3l61 84q4 5 11 5h48q7 0 11 -5l61 -84l3 -4q3 -4 3 -6q0 -5 -7 -5h-43q-6 0 -10 6l-36 55q-3 4 -6 4q-2 0 -6 -4l-36 -55q-5 -6 -11 -6z" />
    <glyph glyph-name="Hbar" unicode="&#x126;" horiz-adv-x="557" 
d="M139 0h-47q-10 0 -10 10v439q0 7 -9 7h-12q-10 0 -10 10v31q0 10 10 10h12q9 0 9 9v103q0 10 10 10h47q10 0 10 -10v-105q0 -7 9 -7h242q9 0 9 6v106q0 10 10 10h48q10 0 10 -10v-105q0 -7 9 -7h12q9 0 9 -10v-31q0 -10 -9 -10h-12q-9 0 -9 -9v-437q0 -10 -10 -10h-48
q-10 0 -10 10v271q0 10 -10 10h-240q-10 0 -10 -10v-271q0 -10 -10 -10zM159 348h240q10 0 10 10v91q0 7 -9 7h-242q-9 0 -9 -6v-92q0 -10 10 -10z" />
    <glyph glyph-name="hbar" unicode="&#x127;" horiz-adv-x="484" 
d="M129 0h-48q-10 0 -10 10v488q-2 8 -9 8h-39q-10 0 -10 10v27q0 10 10 10h39q9 0 9 10v56q0 10 10 10h48q10 0 10 -10v-60q0 -6 9 -6h88q10 0 10 -10v-27q0 -10 -10 -10h-89q-7 0 -8 -7v-106q0 -11 8 -11q4 0 9 5q45 55 99 55q70 0 117.5 -46t47.5 -117v-269
q0 -10 -10 -10h-48q-10 0 -10 10v269q0 43 -31.5 74.5t-75.5 31.5t-75 -31t-31 -75v-269q0 -10 -10 -10z" />
    <glyph glyph-name="Itilde" unicode="&#x128;" horiz-adv-x="230" 
d="M139 0h-47q-10 0 -10 10v609q0 10 10 10h47q10 0 10 -10v-609q0 -10 -10 -10zM5 710l-11 9q-6 5 -6 8t14 21q29 37 61 37q22 0 52 -17.5t46 -17.5q23 0 48 28q4 4 7 4t8 -5l12 -10q5 -5 5 -8q0 -2 -13 -20q-31 -42 -65 -42q-22 0 -52 18.5t-46 18.5q-20 0 -44 -24
q-4 -4 -8 -4q-2 0 -8 4z" />
    <glyph glyph-name="itilde" unicode="&#x129;" horiz-adv-x="209" 
d="M129 0h-48q-10 0 -10 10v422q0 10 10 10h48q10 0 10 -10v-422q0 -10 -10 -10zM104 536l-20 13q-23 15 -42 15q-26 0 -52 -26q-3 -3 -7 -3t-6 2l-10 7q-5 3 -5 8q0 4 14 24q29 40 66 40q29 0 59 -23l21 -16q18 -15 44 -15q27 0 54 27q4 4 7 4t6 -3l9 -7q5 -3 5 -8
q0 -3 -18 -28q-30 -37 -63 -37q-22 0 -62 26z" />
    <glyph glyph-name="Imacron" unicode="&#x12a;" horiz-adv-x="230" 
d="M139 0h-47q-10 0 -10 10v609q0 10 10 10h47q10 0 10 -10v-609q0 -10 -10 -10zM212 705h-194q-10 0 -10 10v35q0 10 10 10h194q10 0 10 -10v-35q0 -10 -10 -10z" />
    <glyph glyph-name="imacron" unicode="&#x12b;" horiz-adv-x="209" 
d="M129 0h-48q-10 0 -10 10v422q0 10 10 10h48q10 0 10 -10v-422q0 -10 -10 -10zM201 523h-194q-10 0 -10 10v37q0 10 10 10h194q10 0 10 -10v-37q0 -10 -10 -10z" />
    <glyph glyph-name="Ibreve" unicode="&#x12c;" horiz-adv-x="230" 
d="M139 0h-47q-10 0 -10 10v609q0 10 10 10h47q10 0 10 -10v-609q0 -10 -10 -10zM127 693h-26q-39 0 -62 17t-23 46v33q0 8 10 8h10q10 0 10 -8v-18q0 -14 16 -24t39 -10h26q23 0 39.5 10t16.5 24v18q0 8 10 8h11q10 0 10 -8v-33q0 -28 -24 -45.5t-63 -17.5z" />
    <glyph glyph-name="ibreve" unicode="&#x12d;" horiz-adv-x="209" 
d="M129 0h-48q-10 0 -10 10v422q0 10 10 10h48q10 0 10 -10v-422q0 -10 -10 -10zM126 505h-46q-39 0 -62 20.5t-23 54.5v40q0 10 10 10h10q10 0 10 -10v-21q0 -20 16 -35t39 -15h46q23 0 39.5 15t16.5 35v21q0 10 10 10h11q10 0 10 -10v-40q0 -33 -24 -54t-63 -21z" />
    <glyph glyph-name="Iogonek" unicode="&#x12e;" horiz-adv-x="230" 
d="M189 -231h-4q-46 11 -74.5 45.5t-28.5 79.5v725q0 10 10 10h47q10 0 10 -10v-609q0 -10 -10 -10h-12v-113q0 -30 16.5 -51.5t46.5 -29.5q7 -1 7 -10v-17q0 -10 -8 -10z" />
    <glyph glyph-name="iogonek" unicode="&#x12f;" horiz-adv-x="209" 
d="M178 -231h-4q-46 11 -74.5 45.5t-28.5 79.5v538q0 10 10 10h48q10 0 10 -10v-422q0 -10 -10 -10h-13v-113q0 -30 16.5 -51.5t46.5 -29.5q7 -1 7 -10v-17q0 -10 -8 -10zM149 596q0 -18 -13.5 -31.5t-31.5 -13.5q-19 0 -31 13t-12 32q0 17 13 30.5t30 13.5q19 0 32 -12.5
t13 -31.5z" />
    <glyph glyph-name="Idotaccent" unicode="&#x130;" horiz-adv-x="230" 
d="M139 0h-47q-10 0 -10 10v609q0 10 10 10h47q10 0 10 -10v-609q0 -10 -10 -10zM156 741q0 -17 -12 -30t-29 -13q-18 0 -29.5 12.5t-11.5 30.5q0 16 12 28.5t29 12.5q18 0 29.5 -12t11.5 -29z" />
    <glyph glyph-name="dotlessi" unicode="&#x131;" horiz-adv-x="209" 
d="M129 0h-48q-10 0 -10 10v422q0 10 10 10h48q10 0 10 -10v-422q0 -10 -10 -10z" />
    <glyph glyph-name="Jcircumflex" unicode="&#x134;" horiz-adv-x="417" 
d="M28 87l36 18q8 4 10 4q5 0 8 -5q17 -26 43 -41.5t52 -15.5q43 0 75 31.5t32 75.5v465q0 10 10 10h48q10 0 10 -10v-455q0 -72 -51 -123t-124 -51t-134 61q-22 20 -22 28q0 5 7 8zM262 693h-42q-7 0 -7 5q0 1 1.5 3l3 4t1.5 3l61 84q4 5 11 5h48q7 0 11 -5l61 -84l3 -4
q3 -4 3 -6q0 -5 -7 -5h-43q-5 0 -10 6l-36 55q-3 4 -6 4q-2 0 -6 -4l-36 -55q-5 -6 -11 -6z" />
    <glyph glyph-name="jcircumflex" unicode="&#x135;" horiz-adv-x="209" 
d="M-22 -225v38q0 8 8 10q39 9 62 37.5t23 66.5v505q0 10 10 10h48q10 0 10 -10v-494q0 -53 -29 -96t-78 -64q-28 -13 -45 -13q-9 0 -9 10zM42 505h-34q-11 0 -11 8q0 3 3 8l80 105q4 4 8 4h31q4 0 8 -4l81 -105q3 -4 3 -8q0 -8 -11 -8h-35q-4 0 -8 4l-44 62q-3 5 -8 5
q-3 0 -8 -5l-47 -62q-4 -4 -8 -4z" />
    <glyph glyph-name="Kcommaaccent" unicode="&#x136;" horiz-adv-x="526" 
d="M139 0h-47q-10 0 -10 10v609q0 10 10 10h47q10 0 10 -10v-300q0 -12 9 -12q4 0 9 6l238 312q4 4 8 4h53q11 0 11 -8q0 -3 -3 -8l-185 -228q-5 -5 -5 -9t5 -11l210 -340q8 -14 8 -17q0 -8 -11 -8h-60q-6 0 -9 5l-183 299q-5 7 -9 7q-3 0 -8 -5l-78 -98v-198q0 -10 -10 -10
zM228 -244l-11 13q-7 9 -7 11q0 5 3 8q35 35 35 127v23q0 10 9 10h47q8 0 8 -10v-24q0 -114 -70 -159q-4 -2 -7 -2q-4 0 -7 3z" />
    <glyph glyph-name="kcommaaccent" unicode="&#x137;" horiz-adv-x="447" 
d="M129 0h-48q-10 0 -10 10v609q0 10 10 10h48q10 0 10 -10v-346q0 -11 9 -11q4 0 8 4l155 171q3 5 10 5h50q11 0 11 -8q0 -5 -4 -9l-117 -118q-9 -11 -9 -13q0 -4 7 -15l156 -251q10 -16 10 -20q0 -8 -11 -8h-57q-6 0 -9 5l-138 228q-3 6 -8 6q-4 0 -8 -4l-55 -56v-169
q0 -10 -10 -10zM188 -244l-11 13q-7 9 -7 11q0 5 3 8q35 35 35 127v23q0 10 9 10h47q8 0 8 -10v-24q0 -114 -70 -159q-4 -2 -7 -2q-4 0 -7 3z" />
    <glyph glyph-name="kgreenlandic" unicode="&#x138;" horiz-adv-x="447" 
d="M129 0h-48q-10 0 -10 10v422q0 10 10 10h48q10 0 10 -10v-159q0 -11 9 -11q4 0 8 4l155 171q3 5 10 5h50q11 0 11 -8q0 -5 -4 -9l-117 -118q-9 -11 -9 -13q0 -4 7 -15l156 -251q10 -16 10 -20q0 -8 -11 -8h-57q-6 0 -9 5l-138 228q-3 6 -8 6q-4 0 -8 -4l-55 -56v-169
q0 -10 -10 -10z" />
    <glyph glyph-name="Lacute" unicode="&#x139;" horiz-adv-x="453" 
d="M420 0h-328q-10 0 -10 10v609q0 10 10 10h47q10 0 10 -10v-552q0 -10 10 -10h261q10 0 10 -10v-37q0 -10 -10 -10zM131 693h-27q-7 0 -7 5q0 1 2 5l65 86q5 6 13 6h79q8 0 8 -7q0 -3 -4 -6l-115 -84q-7 -5 -14 -5z" />
    <glyph glyph-name="lacute" unicode="&#x13a;" horiz-adv-x="209" 
d="M129 0h-48q-10 0 -10 10v609q0 10 10 10h48q10 0 10 -10v-609q0 -10 -10 -10zM109 693h-27q-7 0 -7 5q0 1 2 5l65 86q5 6 13 6h79q8 0 8 -7q0 -3 -4 -6l-115 -84q-7 -5 -14 -5z" />
    <glyph glyph-name="Lcommaaccent" unicode="&#x13b;" horiz-adv-x="453" 
d="M420 0h-328q-10 0 -10 10v609q0 10 10 10h47q10 0 10 -10v-552q0 -10 10 -10h261q10 0 10 -10v-37q0 -10 -10 -10zM217 -244l-11 13q-7 9 -7 11q0 5 3 8q35 35 35 127v23q0 10 9 10h47q8 0 8 -10v-24q0 -114 -70 -159q-4 -2 -7 -2q-4 0 -7 3z" />
    <glyph glyph-name="lcommaaccent" unicode="&#x13c;" horiz-adv-x="209" 
d="M129 0h-48q-10 0 -10 10v609q0 10 10 10h48q10 0 10 -10v-609q0 -10 -10 -10zM59 -244l-11 13q-7 9 -7 11q0 5 3 8q35 35 35 127v23q0 10 9 10h47q8 0 8 -10v-24q0 -114 -70 -159q-4 -2 -7 -2q-4 0 -7 3z" />
    <glyph glyph-name="Lcaron" unicode="&#x13d;" horiz-adv-x="453" 
d="M420 0h-328q-10 0 -10 10v609q0 10 10 10h47q10 0 10 -10v-552q0 -10 10 -10h261q10 0 10 -10v-37q0 -10 -10 -10zM198 496l-11 12q-2 2 -2 7t2 7q34 40 34 128v23q0 10 8 10h45q7 0 7 -10v-24q0 -113 -66 -158q-4 -2 -7 -2t-10 7z" />
    <glyph glyph-name="lcaron" unicode="&#x13e;" horiz-adv-x="219" 
d="M129 0h-48q-10 0 -10 10v609q0 10 10 10h48q10 0 10 -10v-609q0 -10 -10 -10zM182 496l-11 12q-2 2 -2 7t2 7q34 40 34 128v23q0 10 8 10h45q7 0 7 -10v-24q0 -113 -66 -158q-4 -2 -7 -2t-10 7z" />
    <glyph glyph-name="Ldot" unicode="&#x13f;" horiz-adv-x="453" 
d="M420 0h-328q-10 0 -10 10v609q0 10 10 10h47q10 0 10 -10v-552q0 -10 10 -10h261q10 0 10 -10v-37q0 -10 -10 -10zM287 320q0 -19 -12.5 -32t-31.5 -13t-31.5 13t-12.5 32t12.5 31t31.5 12t31.5 -12t12.5 -31z" />
    <glyph glyph-name="ldot" unicode="&#x140;" horiz-adv-x="214" 
d="M258 320q0 -19 -12.5 -32t-31.5 -13t-31.5 13t-12.5 32t12.5 31t31.5 12t31.5 -12t12.5 -31zM129 0h-48q-10 0 -10 10v609q0 10 10 10h48q10 0 10 -10v-609q0 -10 -10 -10z" />
    <glyph glyph-name="Lslash" unicode="&#x141;" horiz-adv-x="453" 
d="M420 0h-328q-10 0 -10 10v218q0 10 -5 10q-3 0 -6 -3l-23 -23q-3 -3 -7 -3t-7 3l-25 25q-3 3 -3 7t3 7l61 60q12 11 12 34v274q0 10 10 10h47q10 0 10 -10v-212q0 -8 5 -8q4 0 8 4l27 27q3 3 7 3t7 -3l24 -24q3 -3 3 -8q0 -4 -3 -7l-67 -67q-11 -11 -11 -30v-227
q0 -10 10 -10h261q10 0 10 -10v-37q0 -10 -10 -10z" />
    <glyph glyph-name="lslash" unicode="&#x142;" horiz-adv-x="209" 
d="M129 0h-48q-10 0 -10 10v220q0 10 -5 10q-3 0 -6 -3l-25 -25q-3 -3 -7 -3t-7 3l-25 25q-3 3 -3 7t3 7l63 62q12 11 12 34v272q0 10 10 10h48q10 0 10 -10v-210q0 -8 5 -8q4 0 8 4l25 25q3 3 7 3t7 -3l24 -24q3 -3 3 -8q0 -4 -3 -7l-65 -65q-11 -11 -11 -30v-286
q0 -10 -10 -10z" />
    <glyph glyph-name="Nacute" unicode="&#x143;" horiz-adv-x="557" 
d="M139 0h-47q-10 0 -10 10v609q0 10 10 10h46q6 0 9 -5l243 -445q12 -20 18 -36l4 1q-3 36 -3 232v243q0 10 10 10h48q10 0 10 -10v-609q0 -10 -10 -10h-47q-6 0 -9 5l-243 440q-13 23 -18 36l-4 -1q3 -36 3 -232v-238q0 -10 -10 -10zM263 693h-27q-7 0 -7 5q0 1 2 5l65 86
q4 6 13 6h79q8 0 8 -7q0 -3 -4 -6l-115 -84q-7 -5 -14 -5z" />
    <glyph glyph-name="nacute" unicode="&#x144;" horiz-adv-x="490" 
d="M129 0h-48q-10 0 -10 10v422q0 10 10 10h37q10 0 10 -10v-40q0 -11 9 -11q5 0 9 5q45 56 99 56q79 0 127 -45.5t48 -117.5v-269q0 -10 -10 -10h-48q-10 0 -10 10v269q0 43 -31.5 74.5t-75.5 31.5t-75 -31t-31 -75v-269q0 -10 -10 -10zM230 505h-20q-11 0 -11 8q0 3 3 8
l69 102q4 6 11 6h66q11 0 11 -9q0 -4 -4 -8l-114 -102q-5 -5 -11 -5z" />
    <glyph glyph-name="Ncommaaccent" unicode="&#x145;" horiz-adv-x="557" 
d="M139 0h-47q-10 0 -10 10v609q0 10 10 10h46q6 0 9 -5l243 -445q12 -20 18 -36l4 1q-3 36 -3 232v243q0 10 10 10h48q10 0 10 -10v-609q0 -10 -10 -10h-47q-6 0 -9 5l-243 440q-13 23 -18 36l-4 -1q3 -36 3 -232v-238q0 -10 -10 -10zM233 -244l-11 13q-7 9 -7 11q0 5 3 8
q35 35 35 127v23q0 10 9 10h47q8 0 8 -10v-24q0 -114 -70 -159q-4 -2 -7 -2q-4 0 -7 3z" />
    <glyph glyph-name="ncommaaccent" unicode="&#x146;" horiz-adv-x="490" 
d="M129 0h-48q-10 0 -10 10v422q0 10 10 10h37q10 0 10 -10v-40q0 -11 9 -11q5 0 9 5q45 56 99 56q79 0 127 -45.5t48 -117.5v-269q0 -10 -10 -10h-48q-10 0 -10 10v269q0 43 -31.5 74.5t-75.5 31.5t-75 -31t-31 -75v-269q0 -10 -10 -10zM200 -244l-11 13q-7 9 -7 11
q0 5 3 8q35 35 35 127v23q0 10 9 10h47q8 0 8 -10v-24q0 -114 -70 -159q-4 -2 -7 -2q-4 0 -7 3z" />
    <glyph glyph-name="Ncaron" unicode="&#x147;" horiz-adv-x="557" 
d="M139 0h-47q-10 0 -10 10v609q0 10 10 10h46q6 0 9 -5l243 -445q12 -20 18 -36l4 1q-3 36 -3 232v243q0 10 10 10h48q10 0 10 -10v-609q0 -10 -10 -10h-47q-6 0 -9 5l-243 440q-13 23 -18 36l-4 -1q3 -36 3 -232v-238q0 -10 -10 -10zM302 693h-48q-7 0 -11 5l-56 77l-5 7
q-6 8 -6 10q0 5 7 5h43q6 0 10 -6l36 -55q3 -4 6 -4q2 0 6 4l36 55q4 6 11 6h42q7 0 7 -5q0 -2 -18 -26l-49 -68q-4 -5 -11 -5z" />
    <glyph glyph-name="ncaron" unicode="&#x148;" horiz-adv-x="490" 
d="M129 0h-48q-10 0 -10 10v422q0 10 10 10h37q10 0 10 -10v-40q0 -11 9 -11q5 0 9 5q45 56 99 56q79 0 127 -45.5t48 -117.5v-269q0 -10 -10 -10h-48q-10 0 -10 10v269q0 43 -31.5 74.5t-75.5 31.5t-75 -31t-31 -75v-269q0 -10 -10 -10zM260 505h-31q-4 0 -8 4l-80 105
q-3 5 -3 8q0 8 11 8h35q4 0 8 -4l46 -60q5 -5 8 -5q5 0 8 5l43 60q4 4 8 4h36q11 0 11 -8q0 -4 -3 -8l-81 -105q-4 -4 -8 -4z" />
    <glyph glyph-name="Eng" unicode="&#x14a;" horiz-adv-x="557" 
d="M316 -166v38q0 8 8 10q39 9 62 37.5t23 66.5v22l-241 437q-13 23 -18 36l-4 -1q3 -36 3 -232v-238q0 -10 -10 -10h-47q-10 0 -10 10v609q0 10 10 10h46q6 0 9 -5l243 -445q12 -20 18 -36l4 1q-3 36 -3 232v243q0 10 10 10h48q10 0 10 -10v-622q0 -53 -29 -96t-78 -64
q-28 -13 -45 -13q-9 0 -9 10z" />
    <glyph glyph-name="eng" unicode="&#x14b;" horiz-adv-x="490" 
d="M259 -225v38q0 8 8 10q39 9 62 37.5t23 66.5v352q0 43 -31.5 74.5t-75.5 31.5t-75 -31t-31 -75v-269q0 -10 -10 -10h-48q-10 0 -10 10v422q0 10 10 10h37q10 0 10 -10v-40q0 -11 9 -11q5 0 9 5q45 56 99 56q79 0 127 -45.5t48 -117.5v-341q0 -53 -29 -96t-78 -64
q-28 -13 -45 -13q-9 0 -9 10z" />
    <glyph glyph-name="Omacron" unicode="&#x14c;" 
d="M271 -10h-31q-79 0 -126.5 45.5t-47.5 118.5v322q0 73 47.5 118.5t126.5 45.5h31q79 0 127 -45.5t48 -118.5v-322q0 -73 -48 -118.5t-127 -45.5zM240 47h31q43 0 75 31.5t32 75.5v322q0 45 -31.5 75.5t-75.5 30.5h-31q-45 0 -75.5 -30.5t-30.5 -75.5v-322
q0 -44 30.5 -75.5t75.5 -31.5zM352 705h-194q-10 0 -10 10v35q0 10 10 10h194q10 0 10 -10v-35q0 -10 -10 -10z" />
    <glyph glyph-name="omacron" unicode="&#x14d;" horiz-adv-x="458" 
d="M56 154v135q0 73 47 118t126 45t127 -45t48 -118v-135q0 -73 -48 -118.5t-127 -45.5t-126 45.5t-47 118.5zM336 154v135q0 43 -31.5 74.5t-75.5 31.5t-75 -31t-31 -75v-135q0 -44 31.5 -75.5t74.5 -31.5t75 31.5t32 75.5zM326 523h-194q-10 0 -10 10v37q0 10 10 10h194
q10 0 10 -10v-37q0 -10 -10 -10z" />
    <glyph glyph-name="Obreve" unicode="&#x14e;" 
d="M271 -10h-31q-79 0 -126.5 45.5t-47.5 118.5v322q0 73 47.5 118.5t126.5 45.5h31q79 0 127 -45.5t48 -118.5v-322q0 -73 -48 -118.5t-127 -45.5zM240 47h31q43 0 75 31.5t32 75.5v322q0 45 -31.5 75.5t-75.5 30.5h-31q-45 0 -75.5 -30.5t-30.5 -75.5v-322
q0 -44 30.5 -75.5t75.5 -31.5zM267 693h-26q-39 0 -62 17t-23 46v33q0 8 10 8h10q10 0 10 -8v-18q0 -14 16 -24t39 -10h26q23 0 39.5 10t16.5 24v18q0 8 10 8h11q10 0 10 -8v-33q0 -28 -24 -45.5t-63 -17.5z" />
    <glyph glyph-name="obreve" unicode="&#x14f;" horiz-adv-x="458" 
d="M56 154v135q0 73 47 118t126 45t127 -45t48 -118v-135q0 -73 -48 -118.5t-127 -45.5t-126 45.5t-47 118.5zM336 154v135q0 43 -31.5 74.5t-75.5 31.5t-75 -31t-31 -75v-135q0 -44 31.5 -75.5t74.5 -31.5t75 31.5t32 75.5zM251 505h-46q-39 0 -62 20.5t-23 54.5v40
q0 10 10 10h10q10 0 10 -10v-21q0 -20 16 -35t39 -15h46q23 0 39.5 15t16.5 35v21q0 10 10 10h11q10 0 10 -10v-40q0 -33 -24 -54t-63 -21z" />
    <glyph glyph-name="Ohungarumlaut" unicode="&#x150;" 
d="M271 -10h-31q-79 0 -126.5 45.5t-47.5 118.5v322q0 73 47.5 118.5t126.5 45.5h31q79 0 127 -45.5t48 -118.5v-322q0 -73 -48 -118.5t-127 -45.5zM240 47h31q43 0 75 31.5t32 75.5v322q0 45 -31.5 75.5t-75.5 30.5h-31q-45 0 -75.5 -30.5t-30.5 -75.5v-322
q0 -44 30.5 -75.5t75.5 -31.5zM303 693h-6q-10 0 -10 6q0 1 1 3t2 4.5t1 3.5l34 80q2 6 9 6h35q10 0 10 -7q0 -3 -7 -12l-61 -80q-3 -4 -8 -4zM201 693h-6q-10 0 -10 6q0 1 1 3t2 4.5t1 3.5l34 80q2 6 9 6h35q10 0 10 -7q0 -3 -7 -12l-61 -80q-3 -4 -8 -4z" />
    <glyph glyph-name="ohungarumlaut" unicode="&#x151;" horiz-adv-x="458" 
d="M56 154v135q0 73 47 118t126 45t127 -45t48 -118v-135q0 -73 -48 -118.5t-127 -45.5t-126 45.5t-47 118.5zM336 154v135q0 43 -31.5 74.5t-75.5 31.5t-75 -31t-31 -75v-135q0 -44 31.5 -75.5t74.5 -31.5t75 31.5t32 75.5zM277 505h-6q-10 0 -10 8q0 2 2 7t2 6l34 97
q2 7 9 7h35q10 0 10 -8q0 -3 -7 -15l-61 -97q-3 -5 -8 -5zM175 505h-6q-10 0 -10 8q0 2 2 7t2 6l34 97q2 7 9 7h35q10 0 10 -8q0 -3 -7 -15l-61 -97q-3 -5 -8 -5z" />
    <glyph glyph-name="OE" unicode="&#x152;" horiz-adv-x="775" 
d="M271 -10h-31q-79 0 -126.5 45.5t-47.5 118.5v322q0 73 47.5 118.5t126.5 45.5h31q32 0 67 -11h378q10 0 10 -10v-37q0 -10 -10 -10h-282q-10 0 -10 -8q0 -4 5 -16q17 -38 17 -72v-118q0 -10 10 -10h214q10 0 10 -10v-37q0 -10 -10 -10h-214q-10 0 -10 -10v-127
q0 -30 -12 -61q-10 -23 -10 -28q0 -8 10 -8h282q10 0 10 -10v-37q0 -10 -10 -10h-381q-30 -10 -64 -10zM240 47h31q43 0 75 31.5t32 75.5v322q0 45 -31.5 75.5t-75.5 30.5h-31q-45 0 -75.5 -30.5t-30.5 -75.5v-322q0 -44 30.5 -75.5t75.5 -31.5z" />
    <glyph glyph-name="oe" unicode="&#x153;" horiz-adv-x="739" 
d="M623 104l36 -18q7 -4 7 -9q0 -7 -22 -33q-46 -54 -134 -54q-79 0 -133 53q-6 4 -7 4t-7 -4q-54 -53 -134 -53q-79 0 -126 45.5t-47 118.5v135q0 73 47 118t126 45q82 0 138 -53q6 -4 8 -4q4 0 7 3q56 54 128 54q76 0 125.5 -50.5t49.5 -112.5v-61q0 -10 -10 -10h-261
q-10 0 -10 -10v-54q0 -14 -1 -21q15 -35 43 -60.5t64 -25.5q56 0 95 57q3 4 7 4q1 0 11 -4zM414 265h193q10 0 10 10v14q0 43 -31.5 74.5t-75.5 31.5q-40 0 -67 -25.5t-40 -59.5q1 -5 1 -21v-14q0 -10 10 -10zM336 154v135q0 43 -31.5 74.5t-75.5 31.5t-75 -31t-31 -75v-135
q0 -44 31.5 -75.5t74.5 -31.5t75 31.5t32 75.5z" />
    <glyph glyph-name="Racute" unicode="&#x154;" 
d="M139 0h-47q-10 0 -10 10v609q0 10 10 10h194q80 0 127.5 -47t47.5 -126v-11q0 -38 -29 -77.5t-66 -54.5q-6 -3 -6 -7q0 -2 4 -12l90 -261q8 -20 8 -25q0 -8 -10 -8h-54q-7 0 -9 7l-96 278q-1 6 -8 6h-126q-10 0 -10 -10v-271q0 -10 -10 -10zM159 348h127q45 0 76.5 31.5
t31.5 76.5v10q0 44 -31.5 75t-76.5 31h-127q-10 0 -10 -10v-204q0 -10 10 -10zM230 693h-27q-7 0 -7 5q0 1 2 5l65 86q5 6 13 6h79q8 0 8 -7q0 -3 -4 -6l-115 -84q-7 -5 -14 -5z" />
    <glyph glyph-name="racute" unicode="&#x155;" horiz-adv-x="298" 
d="M129 0h-48q-10 0 -10 10v422q0 10 10 10h37q10 0 10 -10v-50q0 -11 9 -11q5 0 9 5q25 32 52 49t47 17h17q10 0 10 -10v-49q0 -10 -12 -10h-15q-45 0 -75.5 -30t-30.5 -74v-259q0 -10 -10 -10zM154 505h-20q-11 0 -11 8q0 3 3 8l69 102q4 6 11 6h66q11 0 11 -9q0 -4 -4 -8
l-114 -102q-5 -5 -11 -5z" />
    <glyph glyph-name="Rcommaaccent" unicode="&#x156;" 
d="M139 0h-47q-10 0 -10 10v609q0 10 10 10h194q80 0 127.5 -47t47.5 -126v-11q0 -38 -29 -77.5t-66 -54.5q-6 -3 -6 -7q0 -2 4 -12l90 -261q8 -20 8 -25q0 -8 -10 -8h-54q-7 0 -9 7l-96 278q-1 6 -8 6h-126q-10 0 -10 -10v-271q0 -10 -10 -10zM159 348h127q45 0 76.5 31.5
t31.5 76.5v10q0 44 -31.5 75t-76.5 31h-127q-10 0 -10 -10v-204q0 -10 10 -10zM220 -244l-11 13q-7 9 -7 11q0 5 3 8q35 35 35 127v23q0 10 9 10h47q8 0 8 -10v-24q0 -114 -70 -159q-4 -2 -7 -2q-4 0 -7 3z" />
    <glyph glyph-name="rcommaaccent" unicode="&#x157;" horiz-adv-x="298" 
d="M129 0h-48q-10 0 -10 10v422q0 10 10 10h37q10 0 10 -10v-50q0 -11 9 -11q5 0 9 5q25 32 52 49t47 17h17q10 0 10 -10v-49q0 -10 -12 -10h-15q-45 0 -75.5 -30t-30.5 -74v-259q0 -10 -10 -10zM57 -244l-11 13q-7 9 -7 11q0 5 3 8q35 35 35 127v23q0 10 9 10h47q8 0 8 -10
v-24q0 -114 -70 -159q-4 -2 -7 -2q-4 0 -7 3z" />
    <glyph glyph-name="Rcaron" unicode="&#x158;" 
d="M139 0h-47q-10 0 -10 10v609q0 10 10 10h194q80 0 127.5 -47t47.5 -126v-11q0 -38 -29 -77.5t-66 -54.5q-6 -3 -6 -7q0 -2 4 -12l90 -261q8 -20 8 -25q0 -8 -10 -8h-54q-7 0 -9 7l-96 278q-1 6 -8 6h-126q-10 0 -10 -10v-271q0 -10 -10 -10zM159 348h127q45 0 76.5 31.5
t31.5 76.5v10q0 44 -31.5 75t-76.5 31h-127q-10 0 -10 -10v-204q0 -10 10 -10zM279 693h-48q-7 0 -11 5l-56 77l-6 7q-5 8 -5 10q0 5 7 5h43q5 0 10 -6l36 -55q3 -4 6 -4q2 0 6 4l36 55q5 6 11 6h42q7 0 7 -5q0 -2 -18 -26l-49 -68q-4 -5 -11 -5z" />
    <glyph glyph-name="rcaron" unicode="&#x159;" horiz-adv-x="298" 
d="M129 0h-48q-10 0 -10 10v422q0 10 10 10h37q10 0 10 -10v-50q0 -11 9 -11q5 0 9 5q25 32 52 49t47 17h17q10 0 10 -10v-49q0 -10 -12 -10h-15q-45 0 -75.5 -30t-30.5 -74v-259q0 -10 -10 -10zM184 505h-31q-4 0 -8 4l-80 105q-3 4 -3 8q0 8 11 8h35q4 0 8 -4l46 -60
q5 -5 8 -5q5 0 8 5l43 60q4 4 8 4h36q11 0 11 -8q0 -4 -3 -8l-81 -105q-4 -4 -8 -4z" />
    <glyph glyph-name="Sacute" unicode="&#x15a;" horiz-adv-x="462" 
d="M243 -10h-43q-89 0 -135 54q-20 24 -20 33q0 5 6 8l38 20q1 0 3 1q4 2 6 2q5 0 8 -5q37 -56 94 -56h43q45 0 76.5 31t31.5 76q0 25 -10 45.5t-32 37t-41 26.5t-52 25l-47.5 22.5t-42 25.5t-39.5 35t-23.5 44.5t-10.5 60.5q0 73 47.5 118.5t126.5 45.5h16q88 0 134 -53
q22 -26 22 -33q0 -6 -7 -9l-34 -17q-10 -5 -13 -5q-4 0 -7 4q-37 55 -95 55h-16q-44 0 -75 -30.5t-31 -75.5q0 -23 10 -41t34.5 -34.5t42.5 -25.5t55 -26q27 -12 45 -22t41 -27.5t36.5 -36.5t23 -47t9.5 -62q0 -73 -47.5 -118.5t-127.5 -45.5zM216 693h-27q-7 0 -7 5
q0 1 2 5l65 86q5 6 13 6h79q8 0 8 -7q0 -3 -4 -6l-115 -84q-7 -5 -14 -5z" />
    <glyph glyph-name="sacute" unicode="&#x15b;" horiz-adv-x="438" 
d="M231 -10h-31q-86 0 -134 55q-20 24 -20 31q0 5 7 8l35 17q4 3 9 3t8 -5q34 -56 95 -56h31q44 0 68 22.5t24 54.5q0 14 -8 25.5t-20 19t-33 14t-38 10.5t-44 9q-24 5 -39.5 9t-35.5 12.5t-31 20t-19.5 30t-8.5 43.5q0 64 44 101.5t110 37.5h31q84 0 131 -51q22 -24 22 -32
q0 -5 -7 -9l-30 -15q-2 -1 -4.5 -2t-4.5 -2t-3 -1q-5 0 -8 5q-37 54 -96 54h-31q-89 0 -89 -69q0 -13 4.5 -23t16.5 -18t21.5 -13.5t30.5 -11t31.5 -8t36.5 -7.5q30 -6 50 -12t42.5 -18.5t34 -33.5t11.5 -51q0 -62 -42 -103t-117 -41zM204 505h-20q-11 0 -11 8q0 3 3 8
l69 102q4 6 11 6h66q11 0 11 -9q0 -4 -4 -8l-114 -102q-5 -5 -11 -5z" />
    <glyph glyph-name="Scircumflex" unicode="&#x15c;" horiz-adv-x="462" 
d="M243 -10h-43q-89 0 -135 54q-20 24 -20 33q0 5 6 8l38 20q1 0 3 1q4 2 6 2q5 0 8 -5q37 -56 94 -56h43q45 0 76.5 31t31.5 76q0 25 -10 45.5t-32 37t-41 26.5t-52 25l-47.5 22.5t-42 25.5t-39.5 35t-23.5 44.5t-10.5 60.5q0 73 47.5 118.5t126.5 45.5h16q88 0 134 -53
q22 -26 22 -33q0 -6 -7 -9l-34 -17q-10 -5 -13 -5q-4 0 -7 4q-37 55 -95 55h-16q-44 0 -75 -30.5t-31 -75.5q0 -23 10 -41t34.5 -34.5t42.5 -25.5t55 -26q27 -12 45 -22t41 -27.5t36.5 -36.5t23 -47t9.5 -62q0 -73 -47.5 -118.5t-127.5 -45.5zM178 693h-42q-7 0 -7 5
q0 1 1.5 3l3 4t1.5 3l61 84q4 5 11 5h48q7 0 11 -5l61 -84l3 -4q3 -4 3 -6q0 -5 -7 -5h-43q-5 0 -10 6l-36 55q-3 4 -6 4q-2 0 -6 -4l-36 -55q-5 -6 -11 -6z" />
    <glyph glyph-name="scircumflex" unicode="&#x15d;" horiz-adv-x="438" 
d="M231 -10h-31q-86 0 -134 55q-20 24 -20 31q0 5 7 8l35 17q4 3 9 3t8 -5q34 -56 95 -56h31q44 0 68 22.5t24 54.5q0 14 -8 25.5t-20 19t-33 14t-38 10.5t-44 9q-24 5 -39.5 9t-35.5 12.5t-31 20t-19.5 30t-8.5 43.5q0 64 44 101.5t110 37.5h31q84 0 131 -51q22 -24 22 -32
q0 -5 -7 -9l-30 -15q-2 -1 -4.5 -2t-4.5 -2t-3 -1q-5 0 -8 5q-37 54 -96 54h-31q-89 0 -89 -69q0 -13 4.5 -23t16.5 -18t21.5 -13.5t30.5 -11t31.5 -8t36.5 -7.5q30 -6 50 -12t42.5 -18.5t34 -33.5t11.5 -51q0 -62 -42 -103t-117 -41zM157 505h-34q-11 0 -11 8q0 3 3 8
l80 105q4 4 8 4h31q4 0 8 -4l81 -105q3 -4 3 -8q0 -8 -11 -8h-35q-4 0 -8 4l-44 62q-3 5 -8 5q-3 0 -8 -5l-47 -62q-4 -4 -8 -4z" />
    <glyph glyph-name="Scedilla" unicode="&#x15e;" horiz-adv-x="462" 
d="M207 -234h-36q-10 0 -10 10v16q0 10 10 10h36q20 0 34 14t14 34v9q0 34 -51 48q-7 1 -7 8q0 4 6 16l28 59h-31q-89 0 -135 54q-20 24 -20 33q0 5 6 8l38 20q1 0 3 1q4 2 6 2q5 0 8 -5q37 -56 94 -56h43q45 0 76.5 31t31.5 76q0 25 -10 45.5t-32 37t-41 26.5t-52 25
l-47.5 22.5t-42 25.5t-39.5 35t-23.5 44.5t-10.5 60.5q0 73 47.5 118.5t126.5 45.5h16q88 0 134 -53q22 -26 22 -33q0 -6 -7 -9l-34 -17q-10 -5 -13 -5q-4 0 -7 4q-37 55 -95 55h-16q-44 0 -75 -30.5t-31 -75.5q0 -23 10 -41t34.5 -34.5t42.5 -25.5t55 -26q27 -12 45 -22
t41 -27.5t36.5 -36.5t23 -47t9.5 -62q0 -65 -38.5 -109t-104.5 -53l-21 -44q-5 -8 -5 -13t6 -8q45 -21 45 -63v-14q0 -37 -27 -60.5t-66 -23.5z" />
    <glyph glyph-name="scedilla" unicode="&#x15f;" horiz-adv-x="438" 
d="M195 -234h-36q-10 0 -10 10v16q0 10 10 10h36q20 0 34 14t14 34v9q0 34 -51 48q-7 1 -7 8q0 4 6 16l28 59h-19q-86 0 -134 55q-20 24 -20 31q0 5 7 8l35 17q4 3 9 3t8 -5q34 -56 95 -56h31q44 0 68 22.5t24 54.5q0 14 -8 25.5t-20 19t-33 14t-38 10.5t-44 9
q-24 5 -39.5 9t-35.5 12.5t-31 20t-19.5 30t-8.5 43.5q0 64 44 101.5t110 37.5h31q84 0 131 -51q22 -24 22 -32q0 -5 -7 -9l-30 -15q-2 -1 -4.5 -2t-4.5 -2t-3 -1q-5 0 -8 5q-37 54 -96 54h-31q-89 0 -89 -69q0 -13 4.5 -23t16.5 -18t21.5 -13.5t30.5 -11t31.5 -8t36.5 -7.5
q30 -6 50 -12t42.5 -18.5t34 -33.5t11.5 -51q0 -54 -33.5 -93t-93.5 -48l-21 -45q-5 -8 -5 -13t6 -8q45 -21 45 -63v-14q0 -37 -27 -60.5t-66 -23.5z" />
    <glyph glyph-name="Scaron" unicode="&#x160;" horiz-adv-x="462" 
d="M243 -10h-43q-89 0 -135 54q-20 24 -20 33q0 5 6 8l38 20q1 0 3 1q4 2 6 2q5 0 8 -5q37 -56 94 -56h43q45 0 76.5 31t31.5 76q0 25 -10 45.5t-32 37t-41 26.5t-52 25l-47.5 22.5t-42 25.5t-39.5 35t-23.5 44.5t-10.5 60.5q0 73 47.5 118.5t126.5 45.5h16q88 0 134 -53
q22 -26 22 -33q0 -6 -7 -9l-34 -17q-10 -5 -13 -5q-4 0 -7 4q-37 55 -95 55h-16q-44 0 -75 -30.5t-31 -75.5q0 -23 10 -41t34.5 -34.5t42.5 -25.5t55 -26q27 -12 45 -22t41 -27.5t36.5 -36.5t23 -47t9.5 -62q0 -73 -47.5 -118.5t-127.5 -45.5zM255 693h-48q-7 0 -11 5
l-56 77l-6 7q-5 8 -5 10q0 5 7 5h43q5 0 10 -6l36 -55q3 -4 6 -4q2 0 6 4l36 55q5 6 11 6h42q7 0 7 -5q0 -2 -18 -26l-49 -68q-4 -5 -11 -5z" />
    <glyph glyph-name="scaron" unicode="&#x161;" horiz-adv-x="438" 
d="M231 -10h-31q-86 0 -134 55q-20 24 -20 31q0 5 7 8l35 17q4 3 9 3t8 -5q34 -56 95 -56h31q44 0 68 22.5t24 54.5q0 14 -8 25.5t-20 19t-33 14t-38 10.5t-44 9q-24 5 -39.5 9t-35.5 12.5t-31 20t-19.5 30t-8.5 43.5q0 64 44 101.5t110 37.5h31q84 0 131 -51q22 -24 22 -32
q0 -5 -7 -9l-30 -15q-2 -1 -4.5 -2t-4.5 -2t-3 -1q-5 0 -8 5q-37 54 -96 54h-31q-89 0 -89 -69q0 -13 4.5 -23t16.5 -18t21.5 -13.5t30.5 -11t31.5 -8t36.5 -7.5q30 -6 50 -12t42.5 -18.5t34 -33.5t11.5 -51q0 -62 -42 -103t-117 -41zM234 505h-31q-4 0 -8 4l-80 105
q-3 5 -3 8q0 8 11 8h35q4 0 8 -4l46 -60q5 -5 8 -5q5 0 8 5l43 60q4 4 8 4h36q11 0 11 -8q0 -4 -3 -8l-81 -105q-4 -4 -8 -4z" />
    <glyph glyph-name="Tcedilla" unicode="&#x162;" horiz-adv-x="396" 
d="M222 0h-47q-10 0 -10 10v552q0 10 -10 10h-121q-10 0 -10 10v37q0 10 10 10h329q10 0 10 -10v-37q0 -10 -10 -10h-121q-10 0 -10 -10v-552q0 -10 -10 -10zM153 -244l-11 13q-7 9 -7 11q0 5 3 8q35 35 35 127v23q0 10 9 10h47q8 0 8 -10v-24q0 -114 -70 -159q-4 -2 -7 -2
q-4 0 -7 3z" />
    <glyph glyph-name="tcedilla" unicode="&#x163;" horiz-adv-x="308" 
d="M253 40v-39q0 -10 -9 -10q-14 0 -41 9q-53 17 -82 57.5t-29 96.5v221q0 10 -10 10h-58q-10 0 -10 10v19l109 115q7 7 12 7h15q10 0 10 -10v-74q0 -10 10 -10h73q10 0 10 -10v-37q0 -10 -10 -10h-73q-10 0 -10 -10v-221q0 -38 23 -66.5t62 -37.5q8 -2 8 -10zM109 -244
l-11 13q-7 9 -7 11q0 5 3 8q35 35 35 127v23q0 10 9 10h47q8 0 8 -10v-24q0 -114 -70 -159q-4 -2 -7 -2q-4 0 -7 3z" />
    <glyph glyph-name="Tcaron" unicode="&#x164;" horiz-adv-x="396" 
d="M222 0h-47q-10 0 -10 10v552q0 10 -10 10h-121q-10 0 -10 10v37q0 10 10 10h329q10 0 10 -10v-37q0 -10 -10 -10h-121q-10 0 -10 -10v-552q0 -10 -10 -10zM222 693h-48q-7 0 -11 5l-56 77l-5 7q-6 8 -6 10q0 5 7 5h43q6 0 10 -6l36 -55q3 -4 6 -4q2 0 6 4l36 55q4 6 11 6
h42q7 0 7 -5q0 -2 -18 -26l-49 -68q-4 -5 -11 -5z" />
    <glyph glyph-name="tcaron" unicode="&#x165;" horiz-adv-x="308" 
d="M253 40v-39q0 -10 -9 -10q-14 0 -41 9q-53 17 -82 57.5t-29 96.5v221q0 10 -10 10h-58q-10 0 -10 10v19l109 115q7 7 12 7h15q10 0 10 -10v-74q0 -10 10 -10h73q10 0 10 -10v-37q0 -10 -10 -10h-73q-10 0 -10 -10v-221q0 -38 23 -66.5t62 -37.5q8 -2 8 -10zM203 496
l-11 12q-2 2 -2 7t2 7q34 40 34 128v23q0 10 8 10h45q7 0 7 -10v-24q0 -113 -66 -158q-4 -2 -7 -2t-10 7z" />
    <glyph glyph-name="Tbar" unicode="&#x166;" horiz-adv-x="396" 
d="M222 0h-47q-10 0 -10 10v346q0 9 -8 9h-61q-10 0 -10 10v35q0 10 10 10h60q9 0 9 9v133q0 10 -10 10h-121q-10 0 -10 10v37q0 10 10 10h329q10 0 10 -10v-37q0 -10 -10 -10h-121q-10 0 -10 -10v-133q0 -9 9 -9h60q10 0 10 -10v-35q0 -10 -10 -10h-61q-8 0 -8 -6v-349
q0 -10 -10 -10z" />
    <glyph glyph-name="tbar" unicode="&#x167;" horiz-adv-x="308" 
d="M253 40v-39q0 -10 -9 -10q-14 0 -41 9q-53 17 -82 57.5t-29 96.5v85q0 7 -8 7h-45q-10 0 -10 10v27q0 10 10 10h47q6 0 6 6v76q0 10 -10 10h-58q-10 0 -10 10v19l109 115q7 7 12 7h15q10 0 10 -10v-74q0 -10 10 -10h73q10 0 10 -10v-37q0 -10 -10 -10h-73q-10 0 -10 -10
v-75q0 -7 7 -7h56q10 0 10 -10v-27q0 -10 -10 -10h-56q-7 0 -7 -7v-85q0 -38 23 -66.5t62 -37.5q8 -2 8 -10z" />
    <glyph glyph-name="Utilde" unicode="&#x168;" 
d="M271 -10h-31q-79 0 -126.5 45.5t-47.5 118.5v465q0 10 10 10h48q10 0 10 -10v-465q0 -44 30.5 -75.5t75.5 -31.5h31q43 0 75 31.5t32 75.5v465q0 10 10 10h48q10 0 10 -10v-465q0 -73 -48 -118.5t-127 -45.5zM145 710l-11 9q-6 5 -6 8t14 21q29 37 61 37q22 0 52 -17.5
t46 -17.5q23 0 48 28q4 4 7 4t8 -5l12 -10q5 -5 5 -8q0 -2 -13 -20q-31 -42 -65 -42q-22 0 -52 18.5t-46 18.5q-20 0 -44 -24q-4 -4 -8 -4q-2 0 -8 4z" />
    <glyph glyph-name="utilde" unicode="&#x169;" horiz-adv-x="479" 
d="M399 0h-37q-10 0 -10 10v43q0 11 -9 11q-5 0 -9 -5q-46 -59 -100 -59q-79 0 -126 45.5t-47 118.5v268q0 10 10 10h47q10 0 10 -10v-268q0 -44 31.5 -75.5t74.5 -31.5q45 0 76.5 31t31.5 76v268q0 10 10 10h47q10 0 10 -10v-422q0 -10 -10 -10zM239 536l-20 13
q-23 15 -42 15q-26 0 -52 -26q-3 -3 -7 -3t-6 2l-10 7q-5 3 -5 8q0 4 14 24q29 40 66 40q29 0 59 -23l21 -16q18 -15 44 -15q27 0 54 27q4 4 7 4t6 -3l9 -7q5 -3 5 -8q0 -3 -18 -28q-30 -37 -63 -37q-22 0 -62 26z" />
    <glyph glyph-name="Umacron" unicode="&#x16a;" 
d="M271 -10h-31q-79 0 -126.5 45.5t-47.5 118.5v465q0 10 10 10h48q10 0 10 -10v-465q0 -44 30.5 -75.5t75.5 -31.5h31q43 0 75 31.5t32 75.5v465q0 10 10 10h48q10 0 10 -10v-465q0 -73 -48 -118.5t-127 -45.5zM352 705h-194q-10 0 -10 10v35q0 10 10 10h194q10 0 10 -10
v-35q0 -10 -10 -10z" />
    <glyph glyph-name="umacron" unicode="&#x16b;" horiz-adv-x="479" 
d="M399 0h-37q-10 0 -10 10v43q0 11 -9 11q-5 0 -9 -5q-46 -59 -100 -59q-79 0 -126 45.5t-47 118.5v268q0 10 10 10h47q10 0 10 -10v-268q0 -44 31.5 -75.5t74.5 -31.5q45 0 76.5 31t31.5 76v268q0 10 10 10h47q10 0 10 -10v-422q0 -10 -10 -10zM336 523h-194q-10 0 -10 10
v37q0 10 10 10h194q10 0 10 -10v-37q0 -10 -10 -10z" />
    <glyph glyph-name="Ubreve" unicode="&#x16c;" 
d="M271 -10h-31q-79 0 -126.5 45.5t-47.5 118.5v465q0 10 10 10h48q10 0 10 -10v-465q0 -44 30.5 -75.5t75.5 -31.5h31q43 0 75 31.5t32 75.5v465q0 10 10 10h48q10 0 10 -10v-465q0 -73 -48 -118.5t-127 -45.5zM267 693h-26q-39 0 -62 17t-23 46v33q0 8 10 8h10q10 0 10 -8
v-18q0 -14 16 -24t39 -10h26q23 0 39.5 10t16.5 24v18q0 8 10 8h11q10 0 10 -8v-33q0 -28 -24 -45.5t-63 -17.5z" />
    <glyph glyph-name="ubreve" unicode="&#x16d;" horiz-adv-x="479" 
d="M399 0h-37q-10 0 -10 10v43q0 11 -9 11q-5 0 -9 -5q-46 -59 -100 -59q-79 0 -126 45.5t-47 118.5v268q0 10 10 10h47q10 0 10 -10v-268q0 -44 31.5 -75.5t74.5 -31.5q45 0 76.5 31t31.5 76v268q0 10 10 10h47q10 0 10 -10v-422q0 -10 -10 -10zM261 505h-46
q-39 0 -62 20.5t-23 54.5v40q0 10 10 10h10q10 0 10 -10v-21q0 -20 16 -35t39 -15h46q23 0 39.5 15t16.5 35v21q0 10 10 10h11q10 0 10 -10v-40q0 -33 -24 -54t-63 -21z" />
    <glyph glyph-name="Uring" unicode="&#x16e;" 
d="M271 -10h-31q-79 0 -126.5 45.5t-47.5 118.5v465q0 10 10 10h48q10 0 10 -10v-465q0 -44 30.5 -75.5t75.5 -31.5h31q43 0 75 31.5t32 75.5v465q0 10 10 10h48q10 0 10 -10v-465q0 -73 -48 -118.5t-127 -45.5zM175 749v31q0 34 21.5 54.5t58.5 20.5q36 0 58.5 -20.5
t22.5 -54.5v-31q0 -34 -22.5 -55t-58.5 -21t-58 21t-22 55zM306 749v31q0 21 -14 33t-37 12t-36.5 -12t-13.5 -33v-31q0 -21 13.5 -33.5t36.5 -12.5t37 12.5t14 33.5z" />
    <glyph glyph-name="uring" unicode="&#x16f;" horiz-adv-x="479" 
d="M399 0h-37q-10 0 -10 10v43q0 11 -9 11q-5 0 -9 -5q-46 -59 -100 -59q-79 0 -126 45.5t-47 118.5v268q0 10 10 10h47q10 0 10 -10v-268q0 -44 31.5 -75.5t74.5 -31.5q45 0 76.5 31t31.5 76v268q0 10 10 10h47q10 0 10 -10v-422q0 -10 -10 -10zM159 567v31q0 34 21.5 54.5
t58.5 20.5q36 0 58.5 -20.5t22.5 -54.5v-31q0 -34 -22.5 -55t-58.5 -21t-58 21t-22 55zM290 567v31q0 21 -14 33t-37 12t-36.5 -12t-13.5 -33v-31q0 -21 13.5 -33.5t36.5 -12.5t37 12.5t14 33.5z" />
    <glyph glyph-name="Uhungarumlaut" unicode="&#x170;" 
d="M271 -10h-31q-79 0 -126.5 45.5t-47.5 118.5v465q0 10 10 10h48q10 0 10 -10v-465q0 -44 30.5 -75.5t75.5 -31.5h31q43 0 75 31.5t32 75.5v465q0 10 10 10h48q10 0 10 -10v-465q0 -73 -48 -118.5t-127 -45.5zM303 693h-6q-10 0 -10 6q0 1 1 3t2 4.5t1 3.5l34 80q2 6 9 6
h35q10 0 10 -7q0 -3 -7 -12l-61 -80q-3 -4 -8 -4zM201 693h-6q-10 0 -10 6q0 1 1 3t2 4.5t1 3.5l34 80q2 6 9 6h35q10 0 10 -7q0 -3 -7 -12l-61 -80q-3 -4 -8 -4z" />
    <glyph glyph-name="uhungarumlaut" unicode="&#x171;" horiz-adv-x="479" 
d="M399 0h-37q-10 0 -10 10v43q0 11 -9 11q-5 0 -9 -5q-46 -59 -100 -59q-79 0 -126 45.5t-47 118.5v268q0 10 10 10h47q10 0 10 -10v-268q0 -44 31.5 -75.5t74.5 -31.5q45 0 76.5 31t31.5 76v268q0 10 10 10h47q10 0 10 -10v-422q0 -10 -10 -10zM287 505h-6q-10 0 -10 8
q0 2 2 7t2 6l34 97q2 7 9 7h35q10 0 10 -8q0 -3 -7 -15l-61 -97q-3 -5 -8 -5zM185 505h-6q-10 0 -10 8q0 2 2 7t2 6l34 97q2 7 9 7h35q10 0 10 -8q0 -3 -7 -15l-61 -97q-3 -5 -8 -5z" />
    <glyph glyph-name="Uogonek" unicode="&#x172;" 
d="M362 -231h-4q-46 11 -74.5 45.5t-28.5 79.5v96h-15q-79 0 -126.5 45.5t-47.5 118.5v465q0 10 10 10h48q10 0 10 -10v-465q0 -44 30.5 -75.5t75.5 -31.5h31q43 0 75 31.5t32 75.5v465q0 10 10 10h48q10 0 10 -10v-465q0 -66 -39.5 -110t-106.5 -52v-105q0 -30 16.5 -51.5
t46.5 -29.5q7 -1 7 -10v-17q0 -10 -8 -10z" />
    <glyph glyph-name="uogonek" unicode="&#x173;" horiz-adv-x="479" 
d="M459 -231h-4q-46 11 -74.5 45.5t-28.5 79.5v159q0 11 -9 11q-5 0 -9 -5q-46 -59 -100 -59q-79 0 -126 45.5t-47 118.5v268q0 10 10 10h47q10 0 10 -10v-268q0 -44 31.5 -75.5t74.5 -31.5q45 0 76.5 31t31.5 76v268q0 10 10 10h47q10 0 10 -10v-422q0 -10 -12 -10v-113
q0 -30 16.5 -51.5t46.5 -29.5q7 -1 7 -10v-17q0 -10 -8 -10z" />
    <glyph glyph-name="Wcircumflex" unicode="&#x174;" horiz-adv-x="674" 
d="M195 0h-36q-8 0 -10 8l-128 590q-4 14 -4 23q0 8 10 8h52q8 0 10 -8l84 -428q2 -12 10 -45h5q0 2 3 12.5t5 19.5t3 12l122 432q1 7 10 7h14q9 0 10 -7l119 -433l6 -24t5 -21h5q1 5 5.5 24.5t4.5 21.5l85 429q2 8 10 8h52q10 0 10 -8q0 -6 -7 -36l-126 -577q-2 -8 -10 -8
h-36q-9 0 -10 7l-118 403q-1 3 -5 22.5t-5 21.5h-4q0 -2 -3 -12.5t-5 -19.5t-3 -12l-120 -403q-1 -7 -10 -7zM284 693h-42q-7 0 -7 5q0 1 1.5 3l3 4t1.5 3l61 84q4 5 11 5h48q7 0 11 -5l61 -84l3 -4q3 -4 3 -6q0 -5 -7 -5h-43q-5 0 -10 6l-36 55q-3 4 -6 4q-2 0 -6 -4
l-36 -55q-5 -6 -11 -6z" />
    <glyph glyph-name="wcircumflex" unicode="&#x175;" horiz-adv-x="611" 
d="M195 0h-36q-9 0 -10 7l-123 402q-1 3 -2.5 9t-3 10t-1.5 6q0 8 11 8h52q9 0 10 -7l73 -283q1 -5 4.5 -18l5.5 -21h4l5.5 21t4.5 18l79 283q1 7 10 7h56q9 0 10 -7l78 -283q7 -23 10 -39h4l5.5 21t4.5 18l73 283q1 7 10 7h52q11 0 11 -8q0 -4 -8 -28l-122 -399
q-1 -7 -10 -7h-36q-9 0 -10 7l-88 298q-5 17 -10 39h-4q-5 -22 -10 -39l-89 -298q-1 -7 -10 -7zM243 505h-34q-11 0 -11 8q0 3 3 8l80 105q4 4 8 4h31q4 0 8 -4l81 -105q3 -4 3 -8q0 -8 -11 -8h-35q-4 0 -8 4l-44 62q-3 5 -8 5q-3 0 -8 -5l-47 -62q-4 -4 -8 -4z" />
    <glyph glyph-name="Ycircumflex" unicode="&#x176;" horiz-adv-x="448" 
d="M248 0h-49q-10 0 -10 10v281l-155 293q-18 32 -18 37q0 8 11 8h57q5 0 9 -6l123 -252q3 -8 9 -8t9 8l121 252q4 6 9 6h57q11 0 11 -8q0 -4 -20 -41l-154 -289v-281q0 -10 -10 -10zM171 693h-42q-7 0 -7 5q0 1 1.5 3l3 4t1.5 3l61 84q4 5 11 5h48q7 0 11 -5l61 -84l3 -4
q3 -4 3 -6q0 -5 -7 -5h-43q-6 0 -10 6l-36 55q-3 4 -6 4q-2 0 -6 -4l-36 -55q-4 -6 -11 -6z" />
    <glyph glyph-name="ycircumflex" unicode="&#x177;" horiz-adv-x="479" 
d="M86 -139l36 18q8 4 10 4q5 0 8 -5q37 -56 94 -56q45 0 76.5 31t31.5 76v119q0 11 -9 11q-5 0 -9 -5q-41 -54 -90 -54q-79 0 -126 45.5t-47 118.5v268q0 10 10 10h47q10 0 10 -10v-268q0 -44 31.5 -75.5t74.5 -31.5q51 0 79.5 34t28.5 73v268q0 10 10 10h47q10 0 10 -10
v-492q0 -79 -45.5 -127t-129.5 -48q-86 0 -132 53q-23 28 -23 34t7 9zM177 505h-34q-11 0 -11 8q0 3 3 8l80 105q4 4 8 4h31q4 0 8 -4l81 -105q3 -4 3 -8q0 -8 -11 -8h-35q-4 0 -8 4l-44 62q-3 5 -8 5q-3 0 -8 -5l-47 -62q-4 -4 -8 -4z" />
    <glyph glyph-name="Ydieresis" unicode="&#x178;" horiz-adv-x="448" 
d="M248 0h-49q-10 0 -10 10v281l-155 293q-18 32 -18 37q0 8 11 8h57q5 0 9 -6l123 -252q3 -8 9 -8t9 8l121 252q4 6 9 6h57q11 0 11 -8q0 -4 -20 -41l-154 -289v-281q0 -10 -10 -10zM340 741q0 -17 -12.5 -30t-29.5 -13q-18 0 -28.5 12.5t-10.5 30.5q0 16 11.5 28.5
t27.5 12.5q18 0 30 -12t12 -29zM189 741q0 -17 -12.5 -30t-29.5 -13q-18 0 -28.5 12.5t-10.5 30.5q0 17 11 29t28 12q18 0 30 -12t12 -29z" />
    <glyph glyph-name="Zacute" unicode="&#x179;" horiz-adv-x="438" 
d="M384 0h-338q-10 0 -10 8q0 3 13 33l221 497q10 25 10 26q0 8 -10 8h-215q-10 0 -10 10v37q0 10 10 10h315q10 0 10 -8q0 -3 -10 -26l-221 -493q-15 -32 -15 -37q0 -8 10 -8h240q10 0 10 -10v-37q0 -10 -10 -10zM204 693h-27q-7 0 -7 5q0 1 2 5l65 86q5 6 13 6h79
q8 0 8 -7q0 -3 -4 -6l-115 -84q-7 -5 -14 -5z" />
    <glyph glyph-name="zacute" unicode="&#x17a;" horiz-adv-x="427" 
d="M377 0h-322q-11 0 -11 8q0 6 9 19l198 342q2 3 2 7q0 8 -11 8h-192q-10 0 -10 10v37q0 10 10 10h303q11 0 11 -8q0 -3 -9 -19l-200 -342q-2 -3 -2 -7q0 -8 11 -8h213q10 0 10 -10v-37q0 -10 -10 -10zM218 505h-20q-11 0 -11 8q0 3 3 8l69 102q4 6 11 6h66q11 0 11 -9
q0 -4 -4 -8l-114 -102q-5 -5 -11 -5z" />
    <glyph glyph-name="Zdotaccent" unicode="&#x17b;" horiz-adv-x="438" 
d="M384 0h-338q-10 0 -10 8q0 3 13 33l221 497q10 25 10 26q0 8 -10 8h-215q-10 0 -10 10v37q0 10 10 10h315q10 0 10 -8q0 -3 -10 -26l-221 -493q-15 -32 -15 -37q0 -8 10 -8h240q10 0 10 -10v-37q0 -10 -10 -10zM250 741q0 -17 -12 -30t-29 -13q-18 0 -29.5 12.5
t-11.5 30.5q0 16 12 28.5t29 12.5q18 0 29.5 -12t11.5 -29z" />
    <glyph glyph-name="zdotaccent" unicode="&#x17c;" horiz-adv-x="427" 
d="M377 0h-322q-11 0 -11 8q0 6 9 19l198 342q2 3 2 7q0 8 -11 8h-192q-10 0 -10 10v37q0 10 10 10h303q11 0 11 -8q0 -3 -9 -19l-200 -342q-2 -3 -2 -7q0 -8 11 -8h213q10 0 10 -10v-37q0 -10 -10 -10zM257 559q0 -19 -12.5 -32t-31.5 -13t-31.5 13t-12.5 32t12.5 31
t31.5 12t31.5 -12t12.5 -31z" />
    <glyph glyph-name="Zcaron" unicode="&#x17d;" horiz-adv-x="438" 
d="M384 0h-338q-10 0 -10 8q0 3 13 33l221 497q10 25 10 26q0 8 -10 8h-215q-10 0 -10 10v37q0 10 10 10h315q10 0 10 -8q0 -3 -10 -26l-221 -493q-15 -32 -15 -37q0 -8 10 -8h240q10 0 10 -10v-37q0 -10 -10 -10zM233 693h-48q-7 0 -11 5l-56 77l-6 7q-5 8 -5 10q0 5 7 5
h43q5 0 10 -6l36 -55q3 -4 6 -4q2 0 6 4l36 55q5 6 11 6h42q7 0 7 -5q0 -2 -18 -26l-49 -68q-4 -5 -11 -5z" />
    <glyph glyph-name="zcaron" unicode="&#x17e;" horiz-adv-x="427" 
d="M377 0h-322q-11 0 -11 8q0 6 9 19l198 342q2 3 2 7q0 8 -11 8h-192q-10 0 -10 10v37q0 10 10 10h303q11 0 11 -8q0 -3 -9 -19l-200 -342q-2 -3 -2 -7q0 -8 11 -8h213q10 0 10 -10v-37q0 -10 -10 -10zM218 505h-31q-4 0 -8 4l-80 105q-3 4 -3 8q0 8 11 8h35q4 0 8 -4
l46 -60q5 -5 8 -5q5 0 8 5l43 60q4 4 8 4h36q11 0 11 -8q0 -4 -3 -8l-81 -105q-4 -4 -8 -4z" />
    <glyph glyph-name="florin" unicode="&#x192;" 
d="M59 -214l12 32q3 6 9 6q2 0 7.5 -1t8.5 -1q44 0 75.5 32t31.5 75v352q0 10 -10 10h-27q-10 0 -10 10v37q0 10 10 10h27q10 0 10 10v108q0 73 51 123.5t123 50.5q13 0 31 -2q9 -1 9 -10l-13 -40q-2 -7 -9 -7q-2 0 -8 0.5t-10 0.5q-44 0 -75 -30.5t-31 -75.5v-118
q0 -10 10 -10h73q10 0 10 -10v-37q0 -10 -10 -10h-73q-10 0 -10 -10v-341q0 -73 -51 -124t-124 -51q-9 0 -31 2q-9 1 -9 8q0 2 1.5 6t1.5 5z" />
    <glyph glyph-name="AEacute" unicode="&#x1fc;" horiz-adv-x="706" 
d="M8 0h-46q-11 0 -11 8q0 4 2 7l360 609q3 5 9 5h325q10 0 10 -10v-37q0 -10 -10 -10h-261q-10 0 -10 -10v-204q0 -10 10 -10h214q10 0 10 -10v-37q0 -10 -10 -10h-214q-10 0 -10 -10v-214q0 -10 10 -10h261q10 0 10 -10v-37q0 -10 -10 -10h-329q-10 0 -10 10v131
q0 10 -10 10h-192q-8 0 -13 -9l-76 -137q-3 -5 -9 -5zM150 208h148q10 0 10 10v66q0 196 3 232l-4 1q-1 -4 -5 -11.5t-8.5 -15t-4.5 -8.5l-148 -259q-2 -6 -2 -7q0 -8 11 -8zM374 693h-27q-7 0 -7 5q0 1 2 5l65 86q5 6 13 6h79q8 0 8 -7q0 -3 -4 -6l-115 -84q-7 -5 -14 -5z
" />
    <glyph glyph-name="aeacute" unicode="&#x1fd;" horiz-adv-x="739" 
d="M234 -10h-52q-54 0 -90 32.5t-36 84.5v31q0 51 35.5 78.5t90.5 27.5h144q10 0 10 10v33q0 43 -31.5 74.5t-75.5 31.5q-57 0 -94 -55q-3 -5 -8 -5q-3 0 -13 5l-34 18q-6 3 -6 8q0 7 17 28q46 58 138 58q83 0 138 -54q6 -4 7 -4q4 0 7 4q54 56 129 56q76 0 125.5 -50.5
t49.5 -112.5v-61q0 -10 -10 -10h-261q-10 0 -10 -10v-54q0 -44 31.5 -75.5t74.5 -31.5q56 0 95 57q3 4 7 4l9 -3l38 -19q7 -4 7 -9q0 -8 -21 -32q-46 -55 -135 -55q-93 0 -147 73q-4 5 -8 5q-6 0 -9 -6q-21 -35 -53.5 -53.5t-58.5 -18.5zM414 265h193q10 0 10 10v14
q0 43 -31.5 74.5t-75.5 31.5t-75 -31t-31 -75v-14q0 -10 10 -10zM182 47h52q32 0 60.5 26.5t41.5 61.5v52q0 10 -10 10h-144q-25 0 -42 -17t-17 -42v-31q0 -24 17.5 -42t41.5 -18zM374 505h-20q-11 0 -11 8q0 3 3 8l69 102q4 6 11 6h66q11 0 11 -9q0 -4 -4 -8l-114 -102
q-5 -5 -11 -5z" />
    <glyph glyph-name="Oslashacute" unicode="&#x1fe;" 
d="M271 -10h-31q-79 0 -126.5 45.5t-47.5 118.5v322q0 73 47.5 118.5t126.5 45.5h31q79 0 127 -45.5t48 -118.5v-322q0 -73 -48 -118.5t-127 -45.5zM154 136l180 417q1 1 1 4q0 5 -5 8q-25 17 -59 17h-31q-45 0 -75.5 -30.5t-30.5 -75.5v-322q0 -12 1 -16q3 -10 10 -10
q6 0 9 8zM240 47h31q43 0 75 31.5t32 75.5v322q0 8 -2 22q-2 10 -9 10t-10 -8l-181 -421q-1 -2 -1 -5q0 -4 3 -7q27 -20 62 -20zM230 693h-27q-7 0 -7 5q0 1 2 5l65 86q5 6 13 6h79q8 0 8 -7q0 -3 -4 -6l-115 -84q-7 -5 -14 -5z" />
    <glyph glyph-name="oslashacute" unicode="&#x1ff;" horiz-adv-x="458" 
d="M56 154v135q0 73 47 118t126 45t127 -45t48 -118v-135q0 -73 -48 -118.5t-127 -45.5t-126 45.5t-47 118.5zM336 154v135q0 27 -17 57q-3 7 -9 7t-9 -8l-111 -262q-7 -14 -7 -18q0 -5 7 -9q19 -9 39 -9q43 0 75 31.5t32 75.5zM151 110l109 253l7 19q0 7 -8 9q-16 4 -30 4
q-44 0 -75 -31t-31 -75v-135q0 -22 10 -44q3 -7 9 -7t9 7zM214 505h-20q-11 0 -11 8q0 3 3 8l69 102q4 6 11 6h66q11 0 11 -9q0 -4 -4 -8l-114 -102q-5 -5 -11 -5z" />
    <glyph glyph-name="Scommaaccent" unicode="&#x218;" horiz-adv-x="462" 
d="M243 -10h-43q-89 0 -135 54q-20 24 -20 33q0 5 6 8l38 20q1 0 3 1q4 2 6 2q5 0 8 -5q37 -56 94 -56h43q45 0 76.5 31t31.5 76q0 25 -10 45.5t-32 37t-41 26.5t-52 25l-47.5 22.5t-42 25.5t-39.5 35t-23.5 44.5t-10.5 60.5q0 73 47.5 118.5t126.5 45.5h16q88 0 134 -53
q22 -26 22 -33q0 -6 -7 -9l-34 -17q-10 -5 -13 -5q-4 0 -7 4q-37 55 -95 55h-16q-44 0 -75 -30.5t-31 -75.5q0 -23 10 -41t34.5 -34.5t42.5 -25.5t55 -26q27 -12 45 -22t41 -27.5t36.5 -36.5t23 -47t9.5 -62q0 -73 -47.5 -118.5t-127.5 -45.5zM186 -244l-11 13q-7 9 -7 11
q0 5 3 8q35 35 35 127v23q0 10 9 10h47q8 0 8 -10v-24q0 -114 -70 -159q-4 -2 -7 -2q-4 0 -7 3z" />
    <glyph glyph-name="scommaaccent" unicode="&#x219;" horiz-adv-x="438" 
d="M231 -10h-31q-86 0 -134 55q-20 24 -20 31q0 5 7 8l35 17q4 3 9 3t8 -5q34 -56 95 -56h31q44 0 68 22.5t24 54.5q0 14 -8 25.5t-20 19t-33 14t-38 10.5t-44 9q-24 5 -39.5 9t-35.5 12.5t-31 20t-19.5 30t-8.5 43.5q0 64 44 101.5t110 37.5h31q84 0 131 -51q22 -24 22 -32
q0 -5 -7 -9l-30 -15q-2 -1 -4.5 -2t-4.5 -2t-3 -1q-5 0 -8 5q-37 54 -96 54h-31q-89 0 -89 -69q0 -13 4.5 -23t16.5 -18t21.5 -13.5t30.5 -11t31.5 -8t36.5 -7.5q30 -6 50 -12t42.5 -18.5t34 -33.5t11.5 -51q0 -62 -42 -103t-117 -41zM174 -244l-11 13q-7 9 -7 11q0 5 3 8
q35 35 35 127v23q0 10 9 10h47q8 0 8 -10v-24q0 -114 -70 -159q-4 -2 -7 -2q-4 0 -7 3z" />
    <glyph glyph-name="Tcommaaccent" unicode="&#x21a;" horiz-adv-x="396" 
d="M222 0h-47q-10 0 -10 10v552q0 10 -10 10h-121q-10 0 -10 10v37q0 10 10 10h329q10 0 10 -10v-37q0 -10 -10 -10h-121q-10 0 -10 -10v-552q0 -10 -10 -10zM153 -244l-11 13q-7 9 -7 11q0 5 3 8q35 35 35 127v23q0 10 9 10h47q8 0 8 -10v-24q0 -114 -70 -159q-4 -2 -7 -2
q-4 0 -7 3z" />
    <glyph glyph-name="tcommaaccent" unicode="&#x21b;" horiz-adv-x="308" 
d="M253 40v-39q0 -10 -9 -10q-14 0 -41 9q-53 17 -82 57.5t-29 96.5v221q0 10 -10 10h-58q-10 0 -10 10v19l109 115q7 7 12 7h15q10 0 10 -10v-74q0 -10 10 -10h73q10 0 10 -10v-37q0 -10 -10 -10h-73q-10 0 -10 -10v-221q0 -38 23 -66.5t62 -37.5q8 -2 8 -10zM109 -244
l-11 13q-7 9 -7 11q0 5 3 8q35 35 35 127v23q0 10 9 10h47q8 0 8 -10v-24q0 -114 -70 -159q-4 -2 -7 -2q-4 0 -7 3z" />
    <glyph glyph-name="circumflex" unicode="&#x2c6;" horiz-adv-x="500" 
d="M188 505h-34q-11 0 -11 8q0 3 3 8l80 105q4 4 8 4h31q4 0 8 -4l81 -105q3 -4 3 -8q0 -8 -11 -8h-35q-4 0 -8 4l-44 62q-3 5 -8 5q-3 0 -8 -5l-47 -62q-4 -4 -8 -4z" />
    <glyph glyph-name="caron" unicode="&#x2c7;" horiz-adv-x="500" 
d="M265 505h-31q-4 0 -8 4l-80 105q-3 5 -3 8q0 8 11 8h35q4 0 8 -4l46 -60q5 -5 8 -5q5 0 8 5l43 60q4 4 8 4h36q11 0 11 -8q0 -4 -3 -8l-81 -105q-4 -4 -8 -4z" />
    <glyph glyph-name="uni02C9" unicode="&#x2c9;" horiz-adv-x="500" 
d="M346 535h-194q-10 0 -10 10v37q0 10 10 10h194q10 0 10 -10v-37q0 -10 -10 -10z" />
    <glyph glyph-name="breve" unicode="&#x2d8;" horiz-adv-x="500" 
d="M272 505h-46q-39 0 -62 20.5t-23 54.5v40q0 10 10 10h10q10 0 10 -10v-21q0 -20 16 -35t39 -15h46q23 0 39.5 15t16.5 35v21q0 10 10 10h11q10 0 10 -10v-40q0 -33 -24 -54t-63 -21z" />
    <glyph glyph-name="dotaccent" unicode="&#x2d9;" horiz-adv-x="500" 
d="M294 559q0 -19 -12.5 -32t-31.5 -13t-31.5 13t-12.5 32t12.5 31t31.5 12t31.5 -12t12.5 -31z" />
    <glyph glyph-name="ring" unicode="&#x2da;" horiz-adv-x="500" 
d="M170 567v31q0 34 21.5 54.5t58.5 20.5q36 0 58.5 -20.5t22.5 -54.5v-31q0 -34 -22.5 -55t-58.5 -21t-58 21t-22 55zM301 567v31q0 21 -14 33t-37 12t-36.5 -12t-13.5 -33v-31q0 -21 13.5 -33.5t36.5 -12.5t37 12.5t14 33.5z" />
    <glyph glyph-name="ogonek" unicode="&#x2db;" horiz-adv-x="500" 
d="M342 -204v-17q0 -10 -8 -10h-4q-46 11 -74.5 45.5t-28.5 79.5v127q0 10 10 10h25q10 0 10 -10v-134q0 -30 16.5 -51.5t46.5 -29.5q7 -1 7 -10z" />
    <glyph glyph-name="tilde" unicode="&#x2dc;" horiz-adv-x="500" 
d="M250 536l-20 13q-23 15 -42 15q-26 0 -52 -26q-3 -3 -7 -3t-6 2l-10 7q-5 3 -5 8q0 4 14 24q29 40 66 40q29 0 59 -23l21 -16q18 -15 44 -15q27 0 54 27q4 4 7 4t6 -3l9 -7q5 -3 5 -8q0 -3 -18 -28q-30 -37 -63 -37q-22 0 -62 26z" />
    <glyph glyph-name="hungarumlaut" unicode="&#x2dd;" horiz-adv-x="500" 
d="M298 505h-6q-10 0 -10 8q0 2 2 7t2 6l34 97q2 7 9 7h35q10 0 10 -8q0 -3 -7 -15l-61 -97q-3 -5 -8 -5zM196 505h-6q-10 0 -10 8q0 2 2 7t2 6l34 97q2 7 9 7h35q10 0 10 -8q0 -3 -7 -15l-61 -97q-3 -5 -8 -5z" />
    <glyph glyph-name="uni03A9" unicode="&#x3a9;" horiz-adv-x="716" 
d="M49 0v57h157q-158 126 -158 328q0 142 87 234.5t223 92.5q143 0 223.5 -89.5t80.5 -235.5q0 -109 -46 -193.5t-112 -136.5h158v-57h-226v57q156 133 156 320q0 121 -61.5 198t-172.5 77q-106 0 -172.5 -77t-66.5 -198q0 -188 157 -320v-57h-227z" />
    <glyph glyph-name="uni03BC" unicode="&#x3bc;" horiz-adv-x="479" 
d="M118 -160h-47q-10 0 -10 10v582q0 10 10 10h47q10 0 10 -10v-268q0 -44 31.5 -75.5t74.5 -31.5q45 0 76.5 31t31.5 76v268q0 10 10 10h47q10 0 10 -10v-422q0 -10 -10 -10h-37q-10 0 -10 10v43q0 11 -9 11q-5 0 -9 -5q-46 -59 -100 -59q-53 0 -94 22q-5 3 -8.5 1t-3.5 -7
v-166q0 -10 -10 -10z" />
    <glyph glyph-name="pi" unicode="&#x3c0;" horiz-adv-x="663" 
d="M217 0h-69q15 52 15 135v310q-55 0 -104 -22l-20 49q56 28 140 28h431v-55h-110v-316q0 -81 64 -81q14 0 32 7l15 -49q-24 -13 -63 -13q-59 0 -87.5 35.5t-28.5 93.5v323h-201v-313q0 -82 -14 -132z" />
    <glyph glyph-name="Wgrave" unicode="&#x1e80;" horiz-adv-x="674" 
d="M195 0h-36q-8 0 -10 8l-128 590q-4 14 -4 23q0 8 10 8h52q8 0 10 -8l84 -428q2 -12 10 -45h5q0 2 3 12.5t5 19.5t3 12l122 432q1 7 10 7h14q9 0 10 -7l119 -433l6 -24t5 -21h5q1 5 5.5 24.5t4.5 21.5l85 429q2 8 10 8h52q10 0 10 -8q0 -6 -7 -36l-126 -577q-2 -8 -10 -8
h-36q-9 0 -10 7l-118 403q-1 3 -5 22.5t-5 21.5h-4q0 -2 -3 -12.5t-5 -19.5t-3 -12l-120 -403q-1 -7 -10 -7zM359 693h-27q-7 0 -14 5l-115 84q-4 3 -4 6q0 7 8 7h79q8 0 13 -6l65 -86q2 -4 2 -5q0 -5 -7 -5z" />
    <glyph glyph-name="wgrave" unicode="&#x1e81;" horiz-adv-x="611" 
d="M195 0h-36q-9 0 -10 7l-123 402q-1 3 -2.5 9t-3 10t-1.5 6q0 8 11 8h52q9 0 10 -7l73 -283q1 -5 4.5 -18l5.5 -21h4l5.5 21t4.5 18l79 283q1 7 10 7h56q9 0 10 -7l78 -283q7 -23 10 -39h4l5.5 21t4.5 18l73 283q1 7 10 7h52q11 0 11 -8q0 -4 -8 -28l-122 -399
q-1 -7 -10 -7h-36q-9 0 -10 7l-88 298q-5 17 -10 39h-4q-5 -22 -10 -39l-89 -298q-1 -7 -10 -7zM320 505h-20q-6 0 -11 5l-114 102q-4 4 -4 8q0 9 11 9h66q7 0 11 -6l69 -102q3 -4 3 -8q0 -8 -11 -8z" />
    <glyph glyph-name="Wacute" unicode="&#x1e82;" horiz-adv-x="674" 
d="M195 0h-36q-8 0 -10 8l-128 590q-4 14 -4 23q0 8 10 8h52q8 0 10 -8l84 -428q2 -12 10 -45h5q0 2 3 12.5t5 19.5t3 12l122 432q1 7 10 7h14q9 0 10 -7l119 -433l6 -24t5 -21h5q1 5 5.5 24.5t4.5 21.5l85 429q2 8 10 8h52q10 0 10 -8q0 -6 -7 -36l-126 -577q-2 -8 -10 -8
h-36q-9 0 -10 7l-118 403q-1 3 -5 22.5t-5 21.5h-4q0 -2 -3 -12.5t-5 -19.5t-3 -12l-120 -403q-1 -7 -10 -7zM342 693h-27q-7 0 -7 5q0 1 2 5l65 86q5 6 13 6h79q8 0 8 -7q0 -3 -4 -6l-115 -84q-7 -5 -14 -5z" />
    <glyph glyph-name="wacute" unicode="&#x1e83;" horiz-adv-x="611" 
d="M195 0h-36q-9 0 -10 7l-123 402q-1 3 -2.5 9t-3 10t-1.5 6q0 8 11 8h52q9 0 10 -7l73 -283q1 -5 4.5 -18l5.5 -21h4l5.5 21t4.5 18l79 283q1 7 10 7h56q9 0 10 -7l78 -283q7 -23 10 -39h4l5.5 21t4.5 18l73 283q1 7 10 7h52q11 0 11 -8q0 -4 -8 -28l-122 -399
q-1 -7 -10 -7h-36q-9 0 -10 7l-88 298q-5 17 -10 39h-4q-5 -22 -10 -39l-89 -298q-1 -7 -10 -7zM310 505h-20q-11 0 -11 8q0 3 3 8l69 102q4 6 11 6h66q11 0 11 -9q0 -4 -4 -8l-114 -102q-5 -5 -11 -5z" />
    <glyph glyph-name="Wdieresis" unicode="&#x1e84;" horiz-adv-x="674" 
d="M195 0h-36q-8 0 -10 8l-128 590q-4 14 -4 23q0 8 10 8h52q8 0 10 -8l84 -428q2 -12 10 -45h5q0 2 3 12.5t5 19.5t3 12l122 432q1 7 10 7h14q9 0 10 -7l119 -433l6 -24t5 -21h5q1 5 5.5 24.5t4.5 21.5l85 429q2 8 10 8h52q10 0 10 -8q0 -6 -7 -36l-126 -577q-2 -8 -10 -8
h-36q-9 0 -10 7l-118 403q-1 3 -5 22.5t-5 21.5h-4q0 -2 -3 -12.5t-5 -19.5t-3 -12l-120 -403q-1 -7 -10 -7zM453 741q0 -17 -12.5 -30t-29.5 -13q-18 0 -28.5 12.5t-10.5 30.5q0 16 11.5 28.5t27.5 12.5q18 0 30 -12t12 -29zM302 741q0 -17 -12.5 -30t-29.5 -13
q-18 0 -28.5 12.5t-10.5 30.5q0 17 11 29t28 12q18 0 30 -12t12 -29z" />
    <glyph glyph-name="wdieresis" unicode="&#x1e85;" horiz-adv-x="611" 
d="M195 0h-36q-9 0 -10 7l-123 402q-1 3 -2.5 9t-3 10t-1.5 6q0 8 11 8h52q9 0 10 -7l73 -283q1 -5 4.5 -18l5.5 -21h4l5.5 21t4.5 18l79 283q1 7 10 7h56q9 0 10 -7l78 -283q7 -23 10 -39h4l5.5 21t4.5 18l73 283q1 7 10 7h52q11 0 11 -8q0 -4 -8 -28l-122 -399
q-1 -7 -10 -7h-36q-9 0 -10 7l-88 298q-5 17 -10 39h-4q-5 -22 -10 -39l-89 -298q-1 -7 -10 -7zM430 559q0 -18 -13.5 -31.5t-31.5 -13.5q-19 0 -31 13t-12 32t12 31t31 12t32 -12t13 -31zM267 559q0 -19 -12.5 -32t-31.5 -13t-31.5 13t-12.5 32t12.5 31t31.5 12t31.5 -12
t12.5 -31z" />
    <glyph glyph-name="Ygrave" unicode="&#x1ef2;" horiz-adv-x="448" 
d="M248 0h-49q-10 0 -10 10v281l-155 293q-18 32 -18 37q0 8 11 8h57q5 0 9 -6l123 -252q3 -8 9 -8t9 8l121 252q4 6 9 6h57q11 0 11 -8q0 -4 -20 -41l-154 -289v-281q0 -10 -10 -10zM266 693h-27q-7 0 -14 5l-115 84q-4 3 -4 6q0 7 8 7h79q9 0 13 -6l65 -86q2 -4 2 -5
q0 -5 -7 -5z" />
    <glyph glyph-name="ygrave" unicode="&#x1ef3;" horiz-adv-x="479" 
d="M86 -139l36 18q8 4 10 4q5 0 8 -5q37 -56 94 -56q45 0 76.5 31t31.5 76v119q0 11 -9 11q-5 0 -9 -5q-41 -54 -90 -54q-79 0 -126 45.5t-47 118.5v268q0 10 10 10h47q10 0 10 -10v-268q0 -44 31.5 -75.5t74.5 -31.5q51 0 79.5 34t28.5 73v268q0 10 10 10h47q10 0 10 -10
v-492q0 -79 -45.5 -127t-129.5 -48q-86 0 -132 53q-23 28 -23 34t7 9zM274 505h-20q-6 0 -11 5l-114 102q-4 4 -4 8q0 9 11 9h66q7 0 11 -6l69 -102q3 -4 3 -8q0 -8 -11 -8z" />
    <glyph glyph-name="endash" unicode="&#x2013;" horiz-adv-x="573" 
d="M513 213h-453q-10 0 -10 10v27q0 10 10 10h453q10 0 10 -10v-27q0 -10 -10 -10z" />
    <glyph glyph-name="emdash" unicode="&#x2014;" horiz-adv-x="854" 
d="M794 213h-734q-10 0 -10 10v27q0 10 10 10h734q10 0 10 -10v-27q0 -10 -10 -10z" />
    <glyph glyph-name="quoteleft" unicode="&#x2018;" horiz-adv-x="164" 
d="M113 459h-63q-10 0 -10 10v53q0 89 44 131q22 22 32 22q5 0 8 -6l6 -13q2 -4 2 -7q0 -4 -4 -7q-37 -29 -37 -99q0 -10 10 -10h12q10 0 10 -10v-54q0 -10 -10 -10z" />
    <glyph glyph-name="quoteright" unicode="&#x2019;" horiz-adv-x="164" 
d="M41 424l-6 13q-2 4 -2 7q0 4 4 7q37 29 37 99q0 10 -10 10h-12q-10 0 -10 10v54q0 10 10 10h63q10 0 10 -10v-53q0 -89 -44 -131q-22 -22 -32 -22q-5 0 -8 6z" />
    <glyph glyph-name="quotesinglbase" unicode="&#x201a;" horiz-adv-x="164" 
d="M41 -117l-6 13q-2 4 -2 7q0 4 4 7q37 29 37 99q0 10 -10 10h-12q-10 0 -10 10v54q0 10 10 10h63q10 0 10 -10v-53q0 -89 -44 -131q-22 -22 -32 -22q-5 0 -8 6z" />
    <glyph glyph-name="quotedblleft" unicode="&#x201c;" horiz-adv-x="293" 
d="M242 459h-63q-10 0 -10 10v53q0 89 44 131q22 22 32 22q5 0 8 -6l6 -13q2 -4 2 -7q0 -4 -4 -7q-37 -29 -37 -99q0 -10 10 -10h12q10 0 10 -10v-54q0 -10 -10 -10zM113 459h-63q-10 0 -10 10v53q0 89 44 131q22 22 32 22q5 0 8 -6l6 -13q2 -4 2 -7q0 -4 -4 -7
q-37 -29 -37 -99q0 -10 10 -10h12q10 0 10 -10v-54q0 -10 -10 -10z" />
    <glyph glyph-name="quotedblright" unicode="&#x201d;" horiz-adv-x="293" 
d="M170 424l-6 13q-2 4 -2 7q0 4 4 7q37 29 37 99q0 10 -10 10h-12q-10 0 -10 10v54q0 10 10 10h63q10 0 10 -10v-53q0 -89 -44 -131q-22 -22 -32 -22q-5 0 -8 6zM41 424l-6 13q-2 4 -2 7q0 4 4 7q37 29 37 99q0 10 -10 10h-12q-10 0 -10 10v54q0 10 10 10h63q10 0 10 -10
v-53q0 -89 -44 -131q-22 -22 -32 -22q-5 0 -8 6z" />
    <glyph glyph-name="quotedblbase" unicode="&#x201e;" horiz-adv-x="293" 
d="M170 -117l-6 13q-2 4 -2 7q0 4 4 7q37 29 37 99q0 10 -10 10h-12q-10 0 -10 10v54q0 10 10 10h63q10 0 10 -10v-53q0 -89 -44 -131q-22 -22 -32 -22q-5 0 -8 6zM41 -117l-6 13q-2 4 -2 7q0 4 4 7q37 29 37 99q0 10 -10 10h-12q-10 0 -10 10v54q0 10 10 10h63q10 0 10 -10
v-53q0 -89 -44 -131q-22 -22 -32 -22q-5 0 -8 6z" />
    <glyph glyph-name="dagger" unicode="&#x2020;" horiz-adv-x="410" 
d="M204 -225h-6q-10 0 -10 10l-20 535l13 82q0 8 -9 8l-162 -13q-10 0 -10 10v45q0 10 10 10l163 -13q9 0 9 9l-13 162q0 10 10 10h44q10 0 10 -10l-13 -162q0 -9 9 -9l162 13q10 0 10 -10v-45q0 -10 -10 -10l-161 13q-9 0 -9 -8l13 -82l-20 -535q0 -10 -10 -10z" />
    <glyph glyph-name="daggerdbl" unicode="&#x2021;" horiz-adv-x="410" 
d="M204 -225h-6q-10 0 -10 10l-13 398q0 5 -3 8t-7 2l-155 -13q-4 -1 -7 2t-3 8v45q0 5 3 8t7 2l155 -13q4 -1 6.5 1.5t2.5 7.5l-6 80l13 81q0 8 -9 8l-162 -13q-10 0 -10 10v45q0 10 10 10l163 -13q9 0 9 9l-13 162q0 10 10 10h44q10 0 10 -10l-13 -162q0 -9 9 -9l162 13
q10 0 10 -10v-45q0 -10 -10 -10l-161 13q-9 0 -9 -8l13 -80l-6 -81q0 -5 2.5 -7.5t6.5 -1.5l154 13q4 1 7 -2t3 -8v-45q0 -5 -3 -8t-7 -2l-154 13q-4 1 -7 -2t-3 -8l-13 -398q0 -10 -10 -10z" />
    <glyph glyph-name="bullet" unicode="&#x2022;" horiz-adv-x="500" 
d="M252 172h-4q-65 0 -104 36.5t-39 96.5v21q0 59 39 95.5t104 36.5h4q64 0 103.5 -36.5t39.5 -95.5v-21q0 -59 -39.5 -96t-103.5 -37z" />
    <glyph glyph-name="ellipsis" unicode="&#x2026;" horiz-adv-x="1000" 
d="M852 34q0 -21 -14.5 -35t-35.5 -14q-19 0 -33.5 14.5t-14.5 34.5t14.5 34.5t33.5 14.5q21 0 35.5 -14t14.5 -35zM548 34q0 -21 -14.5 -35t-35.5 -14q-19 0 -33.5 14.5t-14.5 34.5t14.5 34.5t33.5 14.5q21 0 35.5 -14t14.5 -35zM244 34q0 -21 -14.5 -35t-35.5 -14
q-19 0 -33.5 14.5t-14.5 34.5t14.5 34.5t33.5 14.5q21 0 35.5 -14t14.5 -35z" />
    <glyph glyph-name="perthousand" unicode="&#x2030;" horiz-adv-x="722" 
d="M500 85v100q0 38 24.5 61.5t65.5 23.5t65.5 -23.5t24.5 -61.5v-100q0 -38 -24.5 -61.5t-65.5 -23.5t-65.5 23.5t-24.5 61.5zM43 445v100q0 38 24.5 61.5t65.5 23.5t65.5 -23.5t24.5 -61.5v-100q0 -38 -24.5 -61.5t-65.5 -23.5t-65.5 23.5t-24.5 61.5zM127 0h-24
q-11 0 -11 8l263 616q3 6 9 6h24q11 0 11 -8l-263 -616q-3 -6 -9 -6zM268 85v100q0 38 24.5 61.5t65.5 23.5t65.5 -23.5t24.5 -61.5v-100q0 -38 -24.5 -61.5t-65.5 -23.5t-65.5 23.5t-24.5 61.5zM630 85v100q0 16 -12 28t-28 12t-28 -12t-12 -28v-100q0 -16 12 -28t28 -12
t28 12t12 28zM173 445v100q0 16 -12 28t-28 12t-28 -12t-12 -28v-100q0 -16 12 -28t28 -12t28 12t12 28zM398 85v100q0 16 -12 28t-28 12t-28 -12t-12 -28v-100q0 -16 12 -28t28 -12t28 12t12 28z" />
    <glyph glyph-name="guilsinglleft" unicode="&#x2039;" horiz-adv-x="325" 
d="M249 107l-189 135q-4 4 -4 8v55q0 4 4 8l189 135q5 3 8 3q8 0 8 -11v-42q0 -4 -4 -8l-145 -104q-5 -5 -5 -8t5 -8l145 -105q4 -4 4 -8v-42q0 -11 -8 -11q-3 0 -8 3z" />
    <glyph glyph-name="guilsinglright" unicode="&#x203a;" horiz-adv-x="325" 
d="M67 115v42q0 4 4 8l145 105q5 5 5 8t-5 8l-145 104q-4 4 -4 8v42q0 11 8 11q3 0 8 -3l191 -135q4 -4 4 -8v-55q0 -4 -4 -8l-191 -135q-5 -3 -8 -3q-8 0 -8 11z" />
    <glyph glyph-name="fraction" unicode="&#x2044;" horiz-adv-x="151" 
d="M-41 0h-24q-11 0 -11 8q0 1 19 45l244 571q3 6 9 6h24q10 0 10 -8q0 -3 -20 -51l-242 -565q-3 -6 -9 -6z" />
    <glyph glyph-name="zero.superior" unicode="&#x2070;" horiz-adv-x="337" 
d="M178 375h-20q-54 0 -86 24t-32 63v152q0 39 32 63t86 24h20q54 0 86.5 -24t32.5 -63v-152q0 -39 -32.5 -63t-86.5 -24zM158 423h20q31 0 47.5 17t16.5 43v110q0 26 -16 43t-48 17h-20q-31 0 -47 -17t-16 -43v-110q0 -26 15.5 -43t47.5 -17z" />
    <glyph glyph-name="four.superior" unicode="&#x2074;" horiz-adv-x="337" 
d="M234 380h-30q-8 0 -10 1.5t-2 7.5v54q0 7 -7 7h-142q-7 0 -9 2t-2 8v38l156 196q4 2 8 2h43q8 0 8 -9v-179q0 -7 2 -8.5t8 -1.5h38q12 0 12 -6v-35q0 -7 -12 -7h-39q-9 0 -9 -11v-50q0 -9 -13 -9zM97 498h88q7 0 7 9v111q0 6 -2 6q-3 0 -6 -5l-87 -109q-6 -8 -6 -9
q0 -3 6 -3z" />
    <glyph glyph-name="five.superior" unicode="&#x2075;" horiz-adv-x="337" 
d="M179 375h-20q-52 0 -86 24q-23 19 -23 29q0 6 10 11l21 9q8 4 13 4q3 0 9 -6q23 -23 56 -23h20q26 0 44.5 11.5t18.5 28.5v16q0 17 -18.5 28.5t-44.5 11.5h-103q-8 0 -8 8v160q0 9 8 9h202q13 0 13 -7v-32q0 -9 -13 -9h-148q-7 0 -7 -7v-66q0 -5 1.5 -6.5t6.5 -1.5h48
q54 0 86.5 -25t32.5 -66v-10q0 -42 -32.5 -66.5t-86.5 -24.5z" />
    <glyph glyph-name="six.superior" unicode="&#x2076;" horiz-adv-x="337" 
d="M183 375h-19q-54 0 -86 24t-32 63v152q0 39 32 63t86 24h19q57 0 87 -27q21 -19 21 -29q0 -4 -7 -7l-24 -10q-8 -3 -11 -3t-9 6q-22 22 -57 22h-19q-26 0 -44.5 -11.5t-18.5 -28.5v-64q0 -11 4 -11q1 0 11 8t25 16t30 8h19q47 0 79.5 -25t32.5 -63v-20q0 -39 -32.5 -63
t-86.5 -24zM164 423h19q26 0 44.5 12t18.5 28v19q0 16 -18.5 28t-44.5 12h-19q-26 0 -44.5 -11.5t-18.5 -28.5v-19q0 -17 18.5 -28.5t44.5 -11.5z" />
    <glyph glyph-name="seven.superior" unicode="&#x2077;" horiz-adv-x="337" 
d="M109 380h-31q-12 0 -12 8v64q0 28 14 48.5t28.5 30t41.5 23.5q28 14 41.5 21.5t27.5 21.5t14 28v13q0 10 -11 10h-159q-11 0 -11 8v31q0 9 9 9h219q9 0 9 -8v-53q0 -24 -8 -42.5t-26.5 -33t-30.5 -21t-36 -18.5q-34 -16 -50.5 -31t-16.5 -37v-63q0 -9 -12 -9z" />
    <glyph glyph-name="eight.superior" unicode="&#x2078;" horiz-adv-x="337" 
d="M179 375h-20q-55 0 -86.5 24.5t-31.5 66.5v12q0 30 29 50q13 9 13 12q0 2 -11 11q-31 23 -31 48v10q0 42 31.5 67t86.5 25h20q54 0 86 -25t32 -67v-10q0 -32 -30 -49q-11 -7 -11 -10t10 -11q31 -24 31 -51v-12q0 -42 -32 -66.5t-86 -24.5zM159 564h20q26 0 44 11.5
t18 28.5v9q0 16 -18 28t-44 12h-20q-27 0 -45 -11.5t-18 -28.5v-9q0 -17 18 -28.5t45 -11.5zM159 423h20q26 0 44 12t18 28v14q0 16 -18 28t-44 12h-20q-27 0 -45 -11.5t-18 -28.5v-14q0 -17 18 -28.5t45 -11.5z" />
    <glyph glyph-name="nine.superior" unicode="&#x2079;" horiz-adv-x="337" 
d="M171 375h-19q-39 0 -60.5 9.5t-38.5 31.5q-7 9 -7 14q0 4 7 8l25 11q1 0 3 1q4 2 6 2q3 0 8 -5q21 -24 57 -24h19q26 0 44.5 11.5t18.5 28.5v47q0 13 -7 13q-1 0 -9 -8.5t-22.5 -16.5t-30.5 -8h-19q-48 0 -79.5 24.5t-31.5 62.5v37q0 39 32 63t85 24h19q54 0 86.5 -24
t32.5 -63v-152q0 -39 -32.5 -63t-86.5 -24zM152 538h19q26 0 44.5 11.5t18.5 28.5v35q0 17 -18.5 28.5t-44.5 11.5h-19q-26 0 -44 -11.5t-18 -28.5v-35q0 -16 18 -28t44 -12z" />
    <glyph glyph-name="zero.inferior" unicode="&#x2080;" horiz-adv-x="337" 
d="M178 -77h-20q-54 0 -86 24t-32 63v152q0 39 32 63t86 24h20q54 0 86.5 -24t32.5 -63v-152q0 -39 -32.5 -63t-86.5 -24zM158 -29h20q31 0 47.5 17t16.5 43v110q0 26 -16 43t-48 17h-20q-31 0 -47 -17t-16 -43v-110q0 -26 15.5 -43t47.5 -17z" />
    <glyph glyph-name="one.inferior" unicode="&#x2081;" horiz-adv-x="337" 
d="M283 -72h-204q-6 0 -6 6v36q0 6 6 6h67q8 0 8 7v159q0 7 -6 7q-2 0 -5 -3l-37 -36q-2 -2 -5 -2q-2 0 -10 8l-15 15q-6 6 -6 8q0 3 2 5l105 103q4 2 5 2h21q6 0 6 -7v-259q0 -7 7 -7h67q6 0 6 -6v-36q0 -6 -6 -6z" />
    <glyph glyph-name="two.inferior" unicode="&#x2082;" horiz-adv-x="337" 
d="M279 -72h-224q-6 0 -6 5v41q0 27 8.5 46.5t25.5 32.5t31 19.5t37 14.5q7 3 20 7t18.5 6t14.5 6t13 7.5t8.5 8t6 10.5t1.5 14q0 24 -15.5 39t-45.5 15h-26q-35 0 -58 -36q-3 -3 -5 -3q-3 0 -15 6l-26 12q-5 3 -5 7q0 8 20 28q32 35 89 35h26q55 0 85.5 -29t30.5 -76
q0 -17 -5.5 -30.5t-11 -21.5t-20.5 -16.5t-21 -11t-27 -10t-24 -8.5q-53 -21 -63 -33q-10 -10 -10 -25v-7q0 -5 7 -5h166q6 0 6 -5v-38q0 -5 -6 -5z" />
    <glyph glyph-name="three.inferior" unicode="&#x2083;" horiz-adv-x="337" 
d="M168 -77h-20q-57 0 -89 27q-17 14 -17 28q0 6 11 10l21 9q1 0 3 1q4 2 6 2q3 0 9 -6q23 -23 56 -23h20q26 0 44.5 11.5t18.5 27.5v17q0 16 -18.5 27.5t-44.5 11.5h-45q-12 0 -12 8v31q0 10 12 10h45q27 0 45 11.5t18 28.5v7q0 16 -18.5 27.5t-44.5 11.5h-20
q-36 0 -56 -23q-6 -6 -9 -6q-4 0 -14 5l-23 10q-5 2 -5 7q0 12 17 27q31 28 90 28h20q54 0 86.5 -25t32.5 -67v-7q0 -35 -41 -60q41 -23 41 -61v-15q0 -42 -32.5 -66.5t-86.5 -24.5z" />
    <glyph glyph-name="four.inferior" unicode="&#x2084;" horiz-adv-x="337" 
d="M234 -72h-30q-8 0 -10 1.5t-2 7.5v54q0 7 -7 7h-142q-7 0 -9 2t-2 8v38l156 196q4 2 8 2h43q8 0 8 -9v-179q0 -7 2 -8.5t8 -1.5h38q12 0 12 -6v-35q0 -7 -12 -7h-39q-9 0 -9 -11v-50q0 -9 -13 -9zM97 46h88q7 0 7 9v111q0 6 -2 6q-3 0 -6 -5l-87 -109q-6 -8 -6 -9
q0 -3 6 -3z" />
    <glyph glyph-name="five.inferior" unicode="&#x2085;" horiz-adv-x="337" 
d="M179 -77h-20q-52 0 -86 24q-23 19 -23 29q0 6 10 11l21 9q8 4 13 4q3 0 9 -6q23 -23 56 -23h20q26 0 44.5 11.5t18.5 28.5v16q0 17 -18.5 28.5t-44.5 11.5h-103q-8 0 -8 8v160q0 9 8 9h202q13 0 13 -7v-32q0 -9 -13 -9h-148q-7 0 -7 -7v-66q0 -5 1.5 -6.5t6.5 -1.5h48
q54 0 86.5 -25t32.5 -66v-10q0 -42 -32.5 -66.5t-86.5 -24.5z" />
    <glyph glyph-name="six.inferior" unicode="&#x2086;" horiz-adv-x="337" 
d="M183 -77h-19q-54 0 -86 24t-32 63v152q0 39 32 63t86 24h19q57 0 87 -27q21 -19 21 -29q0 -4 -7 -7l-24 -10q-8 -3 -11 -3t-9 6q-22 22 -57 22h-19q-26 0 -44.5 -11.5t-18.5 -28.5v-64q0 -11 4 -11q1 0 11 8t25 16t30 8h19q47 0 79.5 -25t32.5 -63v-20q0 -39 -32.5 -63
t-86.5 -24zM164 -29h19q26 0 44.5 12t18.5 28v19q0 16 -18.5 28t-44.5 12h-19q-26 0 -44.5 -11.5t-18.5 -28.5v-19q0 -17 18.5 -28.5t44.5 -11.5z" />
    <glyph glyph-name="seven.inferior" unicode="&#x2087;" horiz-adv-x="337" 
d="M109 -72h-31q-12 0 -12 8v64q0 28 14 48.5t28.5 30t41.5 23.5q28 14 41.5 21.5t27.5 21.5t14 28v13q0 10 -11 10h-159q-11 0 -11 8v31q0 9 9 9h219q9 0 9 -8v-53q0 -24 -8 -42.5t-26.5 -33t-30.5 -21t-36 -18.5q-34 -16 -50.5 -31t-16.5 -37v-63q0 -9 -12 -9z" />
    <glyph glyph-name="eight.inferior" unicode="&#x2088;" horiz-adv-x="337" 
d="M179 -77h-20q-55 0 -86.5 24.5t-31.5 66.5v12q0 30 29 50q13 9 13 12q0 2 -11 11q-31 23 -31 48v10q0 42 31.5 67t86.5 25h20q54 0 86 -25t32 -67v-10q0 -32 -30 -49q-11 -7 -11 -10t10 -11q31 -24 31 -51v-12q0 -42 -32 -66.5t-86 -24.5zM159 112h20q26 0 44 11.5
t18 28.5v9q0 16 -18 28t-44 12h-20q-27 0 -45 -11.5t-18 -28.5v-9q0 -17 18 -28.5t45 -11.5zM159 -29h20q26 0 44 12t18 28v14q0 16 -18 28t-44 12h-20q-27 0 -45 -11.5t-18 -28.5v-14q0 -17 18 -28.5t45 -11.5z" />
    <glyph glyph-name="nine.inferior" unicode="&#x2089;" horiz-adv-x="337" 
d="M171 -77h-19q-39 0 -60.5 9.5t-38.5 31.5q-7 9 -7 14q0 4 7 8l25 11q1 0 3 1q4 2 6 2q3 0 8 -5q21 -24 57 -24h19q26 0 44.5 11.5t18.5 28.5v47q0 13 -7 13q-1 0 -9 -8.5t-22.5 -16.5t-30.5 -8h-19q-48 0 -79.5 24.5t-31.5 62.5v37q0 39 32 63t85 24h19q54 0 86.5 -24
t32.5 -63v-152q0 -39 -32.5 -63t-86.5 -24zM152 86h19q26 0 44.5 11.5t18.5 28.5v35q0 17 -18.5 28.5t-44.5 11.5h-19q-26 0 -44 -11.5t-18 -28.5v-35q0 -16 18 -28t44 -12z" />
    <glyph glyph-name="Euro" unicode="&#x20ac;" 
d="M313 -10h-31q-79 0 -126.5 45.5t-47.5 118.5v40q0 10 -10 10h-62q-10 0 -10 10v36q0 10 10 10h62q10 0 10 10v90q0 10 -10 10h-62q-10 0 -10 10v37q0 10 10 10h62q10 0 10 10v39q0 73 47.5 118.5t126.5 45.5h31q70 0 115 -35q11 -9 26 -27t15 -24t-7 -9q-44 -22 -47 -22
q-4 0 -7 4q-40 55 -95 55h-31q-45 0 -75.5 -30.5t-30.5 -75.5v-39q0 -10 10 -10h158q10 0 10 -10v-37q0 -10 -10 -10h-158q-10 0 -10 -10v-90q0 -10 10 -10h158q10 0 10 -10v-36q0 -10 -10 -10h-158q-10 0 -10 -10v-40q0 -44 30.5 -75.5t75.5 -31.5h31q56 0 95 57q3 4 7 4
q3 0 47 -22q7 -4 7 -9q0 -1 -2 -5q-25 -39 -60 -60.5t-94 -21.5z" />
    <glyph glyph-name="litre" unicode="&#x2113;" horiz-adv-x="498" 
d="M161 134v119l-61 -66q-1 1 -32 35l93 102v234q0 83 31 126.5t86 43.5q48 0 71 -32t23 -71q0 -116 -112 -264q-5 -7 -17.5 -22.5l-16.5 -20.5v-186q0 -91 64 -91q43 0 91 52q11 -16 28 -38q-63 -68 -132 -68q-51 0 -81 32q-35 37 -35 115zM226 559v-165q8 10 22 30
q71 107 71 193q0 57 -39 57q-54 0 -54 -115z" />
    <glyph glyph-name="trademark" unicode="&#x2122;" horiz-adv-x="388" 
d="M206 360h-12q-10 0 -10 10v168q0 10 10 10h12q6 0 9 -5l47 -81q5 -7 9 -7t9 7l47 81q3 5 9 5h12q10 0 10 -10v-168q0 -10 -10 -10h-12q-10 0 -10 10v72q0 12 -9 12q-5 0 -10 -7l-25 -41q-3 -5 -9 -5h-4q-5 0 -8 5l-27 41q-5 7 -10 7q-8 0 -8 -12v-72q0 -10 -10 -10z
M89 360h-12q-10 0 -10 10v137q0 10 -10 10h-27q-10 0 -10 10v11q0 10 10 10h106q10 0 10 -10v-11q0 -10 -10 -10h-27q-10 0 -10 -10v-137q0 -10 -10 -10z" />
    <glyph glyph-name="Omega" unicode="&#x2126;" horiz-adv-x="716" 
d="M49 0v57h157q-158 126 -158 328q0 142 87 234.5t223 92.5q143 0 223.5 -89.5t80.5 -235.5q0 -109 -46 -193.5t-112 -136.5h158v-57h-226v57q156 133 156 320q0 121 -61.5 198t-172.5 77q-106 0 -172.5 -77t-66.5 -198q0 -188 157 -320v-57h-227z" />
    <glyph glyph-name="estimated" unicode="&#x212e;" horiz-adv-x="664" 
d="M166 297v-205q68 -66 162 -66q138 0 220 135q12 -8 36 -22q-50 -75 -109 -113t-147 -38q-130 0 -209.5 89t-79.5 220q0 132 79 220.5t211 88.5q134 0 212.5 -88t81.5 -221h-457zM166 334h327v167q-71 68 -164 68q-98 0 -163 -67v-168z" />
    <glyph glyph-name="onethird" unicode="&#x2153;" horiz-adv-x="825" 
d="M283 308h-204q-6 0 -6 6v36q0 6 6 6h67q8 0 8 7v159q0 7 -6 7q-2 0 -5 -3l-37 -36q-2 -2 -5 -2q-2 0 -10 8l-15 15q-6 6 -6 8q0 3 2 5l105 103q4 2 5 2h21q6 0 6 -7v-259q0 -7 7 -7h67q6 0 6 -6v-36q0 -6 -6 -6zM301 0h-24q-11 0 -11 8q0 1 19 45l244 571q3 6 9 6h24
q10 0 10 -8q0 -3 -20 -51l-242 -565q-3 -6 -9 -6zM656 -5h-20q-57 0 -89 27q-17 14 -17 28q0 6 11 10l21 9q1 0 3 1q4 2 6 2q3 0 9 -6q23 -23 56 -23h20q26 0 44.5 11.5t18.5 27.5v17q0 16 -18.5 27.5t-44.5 11.5h-45q-12 0 -12 8v31q0 10 12 10h45q27 0 45 11.5t18 28.5v7
q0 16 -18.5 27.5t-44.5 11.5h-20q-36 0 -56 -23q-6 -6 -9 -6q-4 0 -14 5l-23 10q-5 2 -5 7q0 12 17 27q31 28 90 28h20q54 0 86.5 -25t32.5 -67v-7q0 -35 -41 -60q41 -23 41 -61v-15q0 -42 -32.5 -66.5t-86.5 -24.5z" />
    <glyph glyph-name="twothirds" unicode="&#x2154;" horiz-adv-x="825" 
d="M302 0h-24q-11 0 -11 8q0 1 19 45l244 571q3 6 9 6h24q10 0 10 -8q0 -3 -20 -51l-242 -565q-3 -6 -9 -6zM279 308h-224q-6 0 -6 5v41q0 27 8.5 46.5t25.5 32.5t31 19.5t37 14.5q7 3 20 7t18.5 6t14.5 6t13 7.5t8.5 8t6 10.5t1.5 14q0 24 -15.5 39t-45.5 15h-26
q-35 0 -58 -36q-3 -3 -5 -3q-3 0 -15 6l-26 12q-5 3 -5 7q0 8 20 28q32 35 89 35h26q55 0 85.5 -29t30.5 -76q0 -17 -5.5 -30.5t-11 -21.5t-20.5 -16.5t-21 -11t-27 -10t-24 -8.5q-53 -21 -63 -33q-10 -10 -10 -25v-7q0 -5 7 -5h166q6 0 6 -5v-38q0 -5 -6 -5zM656 -5h-20
q-57 0 -89 27q-17 14 -17 28q0 6 11 10l21 9q1 0 3 1q4 2 6 2q3 0 9 -6q23 -23 56 -23h20q26 0 44.5 11.5t18.5 27.5v17q0 16 -18.5 27.5t-44.5 11.5h-45q-12 0 -12 8v31q0 10 12 10h45q27 0 45 11.5t18 28.5v7q0 16 -18.5 27.5t-44.5 11.5h-20q-36 0 -56 -23q-6 -6 -9 -6
q-4 0 -14 5l-23 10q-5 2 -5 7q0 12 17 27q31 28 90 28h20q54 0 86.5 -25t32.5 -67v-7q0 -35 -41 -60q41 -23 41 -61v-15q0 -42 -32.5 -66.5t-86.5 -24.5z" />
    <glyph glyph-name="oneeighth" unicode="&#x215b;" horiz-adv-x="825" 
d="M283 308h-204q-6 0 -6 6v36q0 6 6 6h67q8 0 8 7v159q0 7 -6 7q-2 0 -5 -3l-37 -36q-2 -2 -5 -2q-2 0 -10 8l-15 15q-6 6 -6 8q0 3 2 5l105 103q4 2 5 2h21q6 0 6 -7v-259q0 -7 7 -7h67q6 0 6 -6v-36q0 -6 -6 -6zM304 0h-24q-11 0 -11 8q0 1 19 45l244 571q3 6 9 6h24
q10 0 10 -8q0 -3 -20 -51l-242 -565q-3 -6 -9 -6zM667 -5h-20q-55 0 -86.5 24.5t-31.5 66.5v12q0 30 29 50q13 9 13 12q0 2 -11 11q-31 23 -31 48v10q0 42 31.5 67t86.5 25h20q54 0 86 -25t32 -67v-10q0 -32 -30 -49q-11 -7 -11 -10t10 -11q31 -24 31 -51v-12
q0 -42 -32 -66.5t-86 -24.5zM647 184h20q26 0 44 11.5t18 28.5v9q0 16 -18 28t-44 12h-20q-27 0 -45 -11.5t-18 -28.5v-9q0 -17 18 -28.5t45 -11.5zM647 43h20q26 0 44 12t18 28v14q0 16 -18 28t-44 12h-20q-27 0 -45 -11.5t-18 -28.5v-14q0 -17 18 -28.5t45 -11.5z" />
    <glyph glyph-name="threeeighths" unicode="&#x215c;" horiz-adv-x="825" 
d="M168 303h-20q-57 0 -89 27q-17 14 -17 28q0 6 11 10l21 9q1 0 3 1q4 2 6 2q3 0 9 -6q23 -23 56 -23h20q26 0 44.5 11.5t18.5 27.5v17q0 16 -18.5 27.5t-44.5 11.5h-45q-12 0 -12 8v31q0 10 12 10h45q27 0 45 11.5t18 28.5v7q0 16 -18.5 27.5t-44.5 11.5h-20
q-36 0 -56 -23q-6 -6 -9 -6q-4 0 -14 5l-23 10q-5 2 -5 7q0 12 17 27q31 28 90 28h20q54 0 86.5 -25t32.5 -67v-7q0 -35 -41 -60q41 -23 41 -61v-15q0 -42 -32.5 -66.5t-86.5 -24.5zM291 0h-24q-11 0 -11 8q0 1 19 45l244 571q3 6 9 6h24q10 0 10 -8q0 -3 -20 -51l-242 -565
q-3 -6 -9 -6zM667 -5h-20q-55 0 -86.5 24.5t-31.5 66.5v12q0 30 29 50q13 9 13 12q0 2 -11 11q-31 23 -31 48v10q0 42 31.5 67t86.5 25h20q54 0 86 -25t32 -67v-10q0 -32 -30 -49q-11 -7 -11 -10t10 -11q31 -24 31 -51v-12q0 -42 -32 -66.5t-86 -24.5zM647 184h20
q26 0 44 11.5t18 28.5v9q0 16 -18 28t-44 12h-20q-27 0 -45 -11.5t-18 -28.5v-9q0 -17 18 -28.5t45 -11.5zM647 43h20q26 0 44 12t18 28v14q0 16 -18 28t-44 12h-20q-27 0 -45 -11.5t-18 -28.5v-14q0 -17 18 -28.5t45 -11.5z" />
    <glyph glyph-name="fiveeighths" unicode="&#x215d;" horiz-adv-x="825" 
d="M294 0h-24q-11 0 -11 8q0 1 19 45l244 571q3 6 9 6h24q10 0 10 -8q0 -3 -20 -51l-242 -565q-3 -6 -9 -6zM179 303h-20q-52 0 -86 24q-23 19 -23 29q0 6 10 11l21 9q8 4 13 4q3 0 9 -6q23 -23 56 -23h20q26 0 44.5 11.5t18.5 28.5v16q0 17 -18.5 28.5t-44.5 11.5h-103
q-8 0 -8 8v160q0 9 8 9h202q13 0 13 -7v-32q0 -9 -13 -9h-148q-7 0 -7 -7v-66q0 -5 1.5 -6.5t6.5 -1.5h48q54 0 86.5 -25t32.5 -66v-10q0 -42 -32.5 -66.5t-86.5 -24.5zM667 -5h-20q-55 0 -86.5 24.5t-31.5 66.5v12q0 30 29 50q13 9 13 12q0 2 -11 11q-31 23 -31 48v10
q0 42 31.5 67t86.5 25h20q54 0 86 -25t32 -67v-10q0 -32 -30 -49q-11 -7 -11 -10t10 -11q31 -24 31 -51v-12q0 -42 -32 -66.5t-86 -24.5zM647 184h20q26 0 44 11.5t18 28.5v9q0 16 -18 28t-44 12h-20q-27 0 -45 -11.5t-18 -28.5v-9q0 -17 18 -28.5t45 -11.5zM647 43h20
q26 0 44 12t18 28v14q0 16 -18 28t-44 12h-20q-27 0 -45 -11.5t-18 -28.5v-14q0 -17 18 -28.5t45 -11.5z" />
    <glyph glyph-name="seveneighths" unicode="&#x215e;" horiz-adv-x="825" 
d="M265 0h-24q-11 0 -11 8q0 1 19 45l244 571q3 6 9 6h24q10 0 10 -8q0 -3 -20 -51l-242 -565q-3 -6 -9 -6zM109 308h-31q-12 0 -12 8v64q0 28 14 48.5t28.5 30t41.5 23.5q28 14 41.5 21.5t27.5 21.5t14 28v13q0 10 -11 10h-159q-11 0 -11 8v31q0 9 9 9h219q9 0 9 -8v-53
q0 -24 -8 -42.5t-26.5 -33t-30.5 -21t-36 -18.5q-34 -16 -50.5 -31t-16.5 -37v-63q0 -9 -12 -9zM667 -5h-20q-55 0 -86.5 24.5t-31.5 66.5v12q0 30 29 50q13 9 13 12q0 2 -11 11q-31 23 -31 48v10q0 42 31.5 67t86.5 25h20q54 0 86 -25t32 -67v-10q0 -32 -30 -49
q-11 -7 -11 -10t10 -11q31 -24 31 -51v-12q0 -42 -32 -66.5t-86 -24.5zM647 184h20q26 0 44 11.5t18 28.5v9q0 16 -18 28t-44 12h-20q-27 0 -45 -11.5t-18 -28.5v-9q0 -17 18 -28.5t45 -11.5zM647 43h20q26 0 44 12t18 28v14q0 16 -18 28t-44 12h-20q-27 0 -45 -11.5
t-18 -28.5v-14q0 -17 18 -28.5t45 -11.5z" />
    <glyph glyph-name="partialdiff" unicode="&#x2202;" horiz-adv-x="582" 
d="M457 423h2q4 40 4 72q0 86 -37.5 131t-105.5 45q-52 0 -98 -27q-16 43 -19 50q53 32 126 32q92 0 147 -61.5t55 -175.5q0 -91 -26 -193q-15 -58 -39 -110t-58 -97.5t-81.5 -72.5t-101.5 -27q-77 0 -125.5 51.5t-48.5 135.5q0 141 81.5 232t184.5 91q51 0 87 -22t53 -54z
M448 353q-12 41 -44 67t-82 26q-81 0 -142 -79.5t-61 -192.5q0 -59 30 -94t78 -35q76 0 135 83.5t86 224.5z" />
    <glyph glyph-name="Delta" unicode="&#x2206;" horiz-adv-x="616" 
d="M28 0v36l245 664h82l243 -664v-36h-570zM107 59h409l-187 516q-4 13 -9 31t-7 24h-3q-4 -18 -15 -55z" />
    <glyph glyph-name="product" unicode="&#x220f;" horiz-adv-x="726" 
d="M89 -230v930h549v-930h-69v871h-411v-871h-69z" />
    <glyph glyph-name="summation" unicode="&#x2211;" horiz-adv-x="637" 
d="M22 -230v30l342 439l-318 425v36h531v-57h-438l301 -403l-321 -413h484v-57h-581z" />
    <glyph glyph-name="minus" unicode="&#x2212;" 
d="M456 213h-401q-10 0 -10 10v27q0 10 10 10h401q10 0 10 -10v-27q0 -10 -10 -10z" />
    <glyph glyph-name="uni2215" unicode="&#x2215;" horiz-adv-x="151" 
d="M-41 0h-24q-11 0 -11 8q0 1 19 45l244 571q3 6 9 6h24q10 0 10 -8q0 -3 -20 -51l-242 -565q-3 -6 -9 -6z" />
    <glyph glyph-name="uni2219" unicode="&#x2219;" 
d="M304 237q0 -20 -15 -35t-35 -15q-19 0 -33.5 15t-14.5 35t14.5 34.5t33.5 14.5q21 0 35.5 -14t14.5 -35z" />
    <glyph glyph-name="radical" unicode="&#x221a;" horiz-adv-x="522" 
d="M325 -12h-57l-144 348l-55 -33q-7 14 -23 42l111 66l138 -333l174 651h56z" />
    <glyph glyph-name="infinity" unicode="&#x221e;" horiz-adv-x="792" 
d="M395 245h-2q-77 -114 -180 -114q-74 0 -118.5 45t-44.5 114q0 71 44 116.5t116 45.5q108 0 183 -113h2q77 113 180 113q72 0 118 -43.5t46 -114.5q0 -68 -44 -115.5t-116 -47.5q-57 0 -104.5 32t-79.5 82zM679 293q0 46 -27 76t-78 30q-82 0 -151 -107q64 -108 151 -108
q52 0 78.5 31.5t26.5 77.5zM366 292q-29 48 -70 77.5t-82 29.5q-51 0 -77.5 -31t-26.5 -78q0 -46 29.5 -76t74.5 -30q83 0 152 108z" />
    <glyph glyph-name="integral" unicode="&#x222b;" horiz-adv-x="495" 
d="M211 -69v657q0 74 39.5 117.5t109.5 43.5q42 0 68 -13q-8 -23 -16 -53q-18 10 -47 10q-86 0 -86 -103v-655q0 -77 -39.5 -119.5t-108.5 -42.5q-44 0 -68 12q3 9 7.5 27l6.5 26q22 -9 48 -9q86 0 86 102z" />
    <glyph glyph-name="approxequal" unicode="&#x2248;" horiz-adv-x="560" 
d="M110 342l-30 32q48 76 113 76q45 0 95 -31q48 -31 80 -31q48 0 83 61l30 -32q-47 -75 -112 -75q-48 0 -96 31q-47 30 -81 30q-21 0 -43.5 -16t-38.5 -45zM110 136l-30 33q47 74 113 74q48 0 95 -31q48 -31 80 -31q48 0 83 62l30 -32q-47 -76 -112 -76q-46 0 -96 32
q-50 30 -81 30q-21 0 -43.5 -16.5t-38.5 -44.5z" />
    <glyph glyph-name="notequal" unicode="&#x2260;" horiz-adv-x="560" 
d="M135 33l61 133h-105v46h126l74 161h-200v46h221l60 132h47l-61 -132h112v-46h-133l-74 -161h207v-46h-228l-61 -133h-46z" />
    <glyph glyph-name="lessequal" unicode="&#x2264;" horiz-adv-x="560" 
d="M91 0v46h379v-46h-379zM470 131l-379 198v24l379 199v-53l-308 -156v-2l308 -157v-53z" />
    <glyph glyph-name="greaterequal" unicode="&#x2265;" horiz-adv-x="560" 
d="M91 0v46h379v-46h-379zM91 131v53l308 156v3l-308 157v52l379 -198v-24z" />
    <glyph glyph-name="lozenge" unicode="&#x25ca;" horiz-adv-x="566" 
d="M297 0h-37l-208 349l208 351h37l209 -350zM445 350l-166 278l-166 -278l166 -278z" />
    <glyph glyph-name="a.sc" unicode="&#xe000;" horiz-adv-x="407" 
d="M87 0h-53q-8 0 -8 6q0 2 1 3l150 456q1 5 7 5h39q7 0 7 -5l150 -456q0 -1 0.5 -2t0.5 -2q0 -5 -8 -5h-54q-7 0 -7 5l-31 94q-1 4 -8 4h-139q-7 0 -8 -4l-31 -94q-1 -5 -8 -5zM150 153h106q8 0 8 5v2l-1 2l-48 167l-3.5 14.5t-4 18t-2.5 9.5h-2q-5 -27 -10 -42l-50 -167
q-1 -1 -1 -4q0 -5 8 -5z" />
    <glyph glyph-name="ae.sc" unicode="&#xe001;" horiz-adv-x="594" 
d="M52 0h-52q-8 0 -8 5q0 2 2 6l274 455q3 4 8 4h251q8 0 8 -7v-39q0 -7 -8 -7h-191q-9 0 -9 -9v-135q0 -7 9 -7h157q7 0 7 -7v-39q0 -8 -7 -8h-157q-9 0 -9 -8v-142q0 -8 9 -8h191q8 0 8 -8v-39q0 -7 -8 -7h-258q-7 0 -7 7v95q0 7 -8 7h-129q-5 0 -8 -4l-58 -100
q-1 -5 -7 -5zM160 160h95q7 0 7 7v51q0 30 1 88t1 61h-2q-12 -24 -14 -30l-94 -166q-2 -4 -2 -6q0 -5 8 -5z" />
    <glyph glyph-name="aacute.sc" unicode="&#xe002;" horiz-adv-x="407" 
d="M87 0h-53q-8 0 -8 6q0 2 1 3l150 456q1 5 7 5h39q7 0 7 -5l150 -456q0 -1 0.5 -2t0.5 -2q0 -5 -8 -5h-54q-7 0 -7 5l-31 94q-1 4 -8 4h-139q-7 0 -8 -4l-31 -94q-1 -5 -8 -5zM150 153h106q8 0 8 5v2l-1 2l-48 167l-3.5 14.5t-4 18t-2.5 9.5h-2q-5 -27 -10 -42l-50 -167
q-1 -1 -1 -4q0 -5 8 -5zM188 534h-20q-11 0 -11 8q0 4 3 8l69 102q4 6 11 6h66q11 0 11 -9q0 -4 -4 -8l-114 -102q-5 -5 -11 -5z" />
    <glyph glyph-name="acircumflex.sc" unicode="&#xe003;" horiz-adv-x="407" 
d="M87 0h-53q-8 0 -8 6q0 2 1 3l150 456q1 5 7 5h39q7 0 7 -5l150 -456q0 -1 0.5 -2t0.5 -2q0 -5 -8 -5h-54q-7 0 -7 5l-31 94q-1 4 -8 4h-139q-7 0 -8 -4l-31 -94q-1 -5 -8 -5zM150 153h106q8 0 8 5v2l-1 2l-48 167l-3.5 14.5t-4 18t-2.5 9.5h-2q-5 -27 -10 -42l-50 -167
q-1 -1 -1 -4q0 -5 8 -5zM141 534h-34q-11 0 -11 8q0 4 3 8l80 105q4 4 8 4h31q4 0 8 -4l81 -105q3 -4 3 -8q0 -8 -11 -8h-35q-4 0 -8 4l-44 62q-3 5 -8 5q-3 0 -8 -5l-47 -62q-4 -4 -8 -4z" />
    <glyph glyph-name="adieresis.sc" unicode="&#xe004;" horiz-adv-x="407" 
d="M87 0h-53q-8 0 -8 6q0 2 1 3l150 456q1 5 7 5h39q7 0 7 -5l150 -456q0 -1 0.5 -2t0.5 -2q0 -5 -8 -5h-54q-7 0 -7 5l-31 94q-1 4 -8 4h-139q-7 0 -8 -4l-31 -94q-1 -5 -8 -5zM150 153h106q8 0 8 5v2l-1 2l-48 167l-3.5 14.5t-4 18t-2.5 9.5h-2q-5 -27 -10 -42l-50 -167
q-1 -1 -1 -4q0 -5 8 -5zM328 588q0 -18 -13.5 -31.5t-31.5 -13.5q-19 0 -31 13t-12 32t12 31t31 12t32 -12t13 -31zM165 588q0 -19 -12.5 -32t-31.5 -13t-31.5 13t-12.5 32t12.5 31t31.5 12t31.5 -12t12.5 -31z" />
    <glyph glyph-name="agrave.sc" unicode="&#xe005;" horiz-adv-x="407" 
d="M87 0h-53q-8 0 -8 6q0 2 1 3l150 456q1 5 7 5h39q7 0 7 -5l150 -456q0 -1 0.5 -2t0.5 -2q0 -5 -8 -5h-54q-7 0 -7 5l-31 94q-1 4 -8 4h-139q-7 0 -8 -4l-31 -94q-1 -5 -8 -5zM150 153h106q8 0 8 5v2l-1 2l-48 167l-3.5 14.5t-4 18t-2.5 9.5h-2q-5 -27 -10 -42l-50 -167
q-1 -1 -1 -4q0 -5 8 -5zM238 534h-20q-6 0 -11 5l-114 102q-4 4 -4 8q0 9 11 9h66q7 0 11 -6l69 -102q3 -4 3 -8q0 -8 -11 -8z" />
    <glyph glyph-name="aring.sc" unicode="&#xe006;" horiz-adv-x="407" 
d="M87 0h-53q-8 0 -8 6q0 5 6 17l142 432q-50 16 -50 71v31q0 34 21.5 54.5t58.5 20.5q36 0 58.5 -20.5t22.5 -54.5v-31q0 -26 -14 -45t-38 -27l144 -435q4 -11 4 -14q0 -5 -8 -5h-54q-6 0 -7 5l-31 94q-1 4 -8 4h-139q-7 0 -8 -4l-31 -94q-1 -5 -8 -5zM255 526v31
q-1 21 -14.5 33t-36.5 12t-36.5 -12t-13.5 -33v-31q0 -21 13.5 -33.5t36.5 -12.5t37 12.5t14 33.5zM150 153h106q8 0 8 5l-5 18l-44 153l-3.5 14.5t-4 18t-2.5 9.5h-2q-5 -27 -10 -42l-46 -154q0 -1 -2.5 -8t-2.5 -9q0 -5 8 -5z" />
    <glyph glyph-name="atilde.sc" unicode="&#xe007;" horiz-adv-x="407" 
d="M87 0h-53q-8 0 -8 6q0 2 1 3l150 456q1 5 7 5h39q7 0 7 -5l150 -456q0 -1 0.5 -2t0.5 -2q0 -5 -8 -5h-54q-7 0 -7 5l-31 94q-1 4 -8 4h-139q-7 0 -8 -4l-31 -94q-1 -5 -8 -5zM150 153h106q8 0 8 5v2l-1 2l-48 167l-3.5 14.5t-4 18t-2.5 9.5h-2q-5 -27 -10 -42l-50 -167
q-1 -1 -1 -4q0 -5 8 -5zM203 565l-20 13q-23 15 -42 15q-26 0 -52 -26q-3 -3 -7 -3t-6 2l-10 7q-5 3 -5 8q0 4 14 24q29 40 66 40q29 0 59 -23l21 -16q18 -15 44 -15q27 0 54 27q4 4 7 4t6 -3l9 -7q5 -3 5 -8q0 -3 -18 -28q-30 -37 -63 -37q-22 0 -62 26z" />
    <glyph glyph-name="b.sc" unicode="&#xe008;" horiz-adv-x="481" 
d="M270 0h-170q-8 0 -8 7v456q0 7 8 7h170q63 0 99.5 -34.5t36.5 -95.5v-11q0 -23 -15 -48t-37 -36q-14 -6 -1 -13q22 -10 37.5 -34.5t15.5 -53.5v-14q0 -59 -36.5 -94.5t-99.5 -35.5zM166 264h104q31 0 51.5 21t20.5 51v8q0 30 -21 51.5t-51 21.5h-104q-8 0 -8 -9v-136
q0 -8 8 -8zM166 54h104q30 0 51 21.5t21 50.5v17q0 28 -21 49t-51 21h-104q-8 0 -8 -7v-144q0 -8 8 -8z" />
    <glyph glyph-name="c.sc" unicode="&#xe009;" horiz-adv-x="443" 
d="M259 -10h-41q-62 0 -99.5 34.5t-37.5 90.5v239q0 57 37 92t100 35h41q46 0 73 -16.5t49 -49.5q3 -4 3 -6q0 -5 -5 -8l-32 -15q-7 -7 -15 -7q-3 0 -7 4q-30 44 -67 44h-40q-30 0 -50.5 -21.5t-20.5 -51.5v-239q0 -29 20.5 -50.5t50.5 -21.5h40q39 0 67 45q3 4 6 4
q2 0 10 -4l38 -18q5 -3 5 -8q0 -3 -5 -10q-21 -31 -47.5 -46.5t-72.5 -15.5z" />
    <glyph glyph-name="ccedilla.sc" unicode="&#xe00a;" horiz-adv-x="443" 
d="M180 -234h-36q-10 0 -10 10v16q0 10 10 10h36q20 0 34 14t14 34v9q0 34 -51 48q-7 1 -7 8q0 3 1 5l29 61q1 2 1 6q0 5 -6 6q-114 22 -114 122v239q0 57 37 92t100 35h41q78 0 117 -58q8 -12 8 -14q0 -5 -5 -8q-44 -22 -47 -22t-7 4q-30 44 -67 44h-40q-30 0 -50.5 -21.5
t-20.5 -51.5v-239q0 -29 20.5 -50.5t50.5 -21.5h40q39 0 67 45q3 4 6 4q4 0 48 -22q5 -3 5 -8q0 -1 -8 -14q-38 -55 -117 -58q-11 0 -16 -9l-19 -39q-2 -6 -2 -7q0 -5 6 -8q45 -21 45 -63v-14q0 -37 -27 -60.5t-66 -23.5z" />
    <glyph glyph-name="d.sc" unicode="&#xe00b;" horiz-adv-x="488" 
d="M270 0h-170q-8 0 -8 7v456q0 7 8 7h170q62 0 99 -36t37 -97v-203q0 -61 -37 -97.5t-99 -36.5zM166 54h104q30 0 51 21.5t21 50.5v218q0 29 -21 51t-51 22h-104q-8 0 -8 -9v-346q0 -8 8 -8z" />
    <glyph glyph-name="eth.sc" unicode="&#xe00c;" horiz-adv-x="488" 
d="M270 0h-170q-8 0 -8 7v194q0 10 -7 10h-41q-9 0 -9 10v35q0 10 9 10h41q7 0 7 10v187q0 7 8 7h170q62 0 99 -36t37 -97v-203q0 -61 -37 -97.5t-99 -36.5zM166 54h104q30 0 51 21.5t21 50.5v218q0 29 -21 51t-51 22h-104q-8 0 -8 -9v-133q0 -9 9 -9h80q9 0 9 -10v-35
q0 -10 -9 -10h-81q-8 0 -8 -9v-140q0 -8 8 -8z" />
    <glyph glyph-name="e.sc" unicode="&#xe00d;" horiz-adv-x="437" 
d="M370 0h-270q-8 0 -8 7v456q0 7 8 7h270q8 0 8 -7v-39q0 -7 -8 -7h-204q-8 0 -8 -9v-135q0 -7 8 -7h170q7 0 7 -7v-39q0 -8 -7 -8h-170q-8 0 -8 -8v-142q0 -8 8 -8h204q8 0 8 -8v-39q0 -7 -8 -7z" />
    <glyph glyph-name="eacute.sc" unicode="&#xe00e;" horiz-adv-x="437" 
d="M370 0h-270q-8 0 -8 7v456q0 7 8 7h270q8 0 8 -7v-39q0 -7 -8 -7h-204q-8 0 -8 -9v-135q0 -7 8 -7h170q7 0 7 -7v-39q0 -8 -7 -8h-170q-8 0 -8 -8v-142q0 -8 8 -8h204q8 0 8 -8v-39q0 -7 -8 -7zM219 534h-20q-11 0 -11 8q0 4 3 8l69 102q4 6 11 6h66q11 0 11 -9
q0 -4 -4 -8l-114 -102q-5 -5 -11 -5z" />
    <glyph glyph-name="ecircumflex.sc" unicode="&#xe00f;" horiz-adv-x="437" 
d="M370 0h-270q-8 0 -8 7v456q0 7 8 7h270q8 0 8 -7v-39q0 -7 -8 -7h-204q-8 0 -8 -9v-135q0 -7 8 -7h170q7 0 7 -7v-39q0 -8 -7 -8h-170q-8 0 -8 -8v-142q0 -8 8 -8h204q8 0 8 -8v-39q0 -7 -8 -7zM172 534h-34q-11 0 -11 8q0 4 3 8l80 105q4 4 8 4h31q4 0 8 -4l81 -105
q3 -4 3 -8q0 -8 -11 -8h-35q-4 0 -8 4l-44 62q-3 5 -8 5q-3 0 -8 -5l-47 -62q-4 -4 -8 -4z" />
    <glyph glyph-name="edieresis.sc" unicode="&#xe010;" horiz-adv-x="437" 
d="M370 0h-270q-8 0 -8 7v456q0 7 8 7h270q8 0 8 -7v-39q0 -7 -8 -7h-204q-8 0 -8 -9v-135q0 -7 8 -7h170q7 0 7 -7v-39q0 -8 -7 -8h-170q-8 0 -8 -8v-142q0 -8 8 -8h204q8 0 8 -8v-39q0 -7 -8 -7zM359 588q0 -18 -13.5 -31.5t-31.5 -13.5q-19 0 -31 13t-12 32t12 31t31 12
t32 -12t13 -31zM196 588q0 -19 -12.5 -32t-31.5 -13t-31.5 13t-12.5 32t12.5 31t31.5 12t31.5 -12t12.5 -31z" />
    <glyph glyph-name="egrave.sc" unicode="&#xe011;" horiz-adv-x="437" 
d="M370 0h-270q-8 0 -8 7v456q0 7 8 7h270q8 0 8 -7v-39q0 -7 -8 -7h-204q-8 0 -8 -9v-135q0 -7 8 -7h170q7 0 7 -7v-39q0 -8 -7 -8h-170q-8 0 -8 -8v-142q0 -8 8 -8h204q8 0 8 -8v-39q0 -7 -8 -7zM269 534h-20q-6 0 -11 5l-114 102q-4 4 -4 8q0 9 11 9h66q7 0 11 -6
l69 -102q3 -4 3 -8q0 -8 -11 -8z" />
    <glyph glyph-name="f.sc" unicode="&#xe012;" horiz-adv-x="420" 
d="M150 0h-50q-8 0 -8 7v456q0 7 8 7h270q8 0 8 -7v-39q0 -7 -8 -7h-204q-8 0 -8 -9v-135q0 -7 8 -7h170q7 0 7 -7v-39q0 -8 -7 -8h-170q-8 0 -8 -8v-197q0 -7 -8 -7z" />
    <glyph glyph-name="g.sc" unicode="&#xe013;" horiz-adv-x="471" 
d="M259 -10h-41q-62 0 -99.5 34.5t-37.5 90.5v239q0 57 37 92t100 35h54q84 0 123 -69q1 -1 1 -4q0 -4 -5 -7l-44 -21q-1 -1 -3 -1q-5 0 -6 4q-29 44 -67 44h-53q-30 0 -50.5 -21.5t-20.5 -51.5v-239q0 -29 20.5 -50.5t50.5 -21.5h41q29 0 50 21.5t21 50.5v57q0 7 -8 7h-86
q-7 0 -7 8v36q0 7 7 7h153q7 0 7 -7v-108q0 -57 -37 -91t-100 -34z" />
    <glyph glyph-name="h.sc" unicode="&#xe014;" horiz-adv-x="511" 
d="M150 0h-50q-8 0 -8 7v456q0 7 8 7h50q8 0 8 -7v-190q0 -7 8 -7h179q8 0 8 7v190q0 7 7 7h50q8 0 8 -7v-456q0 -7 -8 -7h-50q-7 0 -7 7v197q0 8 -8 8h-179q-8 0 -8 -8v-197q0 -7 -8 -7z" />
    <glyph glyph-name="i.sc" unicode="&#xe015;" horiz-adv-x="251" 
d="M150 0h-50q-8 0 -8 7v456q0 7 8 7h50q8 0 8 -7v-456q0 -7 -8 -7z" />
    <glyph glyph-name="iacute.sc" unicode="&#xe016;" horiz-adv-x="251" 
d="M150 0h-50q-8 0 -8 7v456q0 7 8 7h50q8 0 8 -7v-456q0 -7 -8 -7zM130 534h-20q-11 0 -11 8q0 4 3 8l69 102q4 6 11 6h66q11 0 11 -9q0 -4 -4 -8l-114 -102q-5 -5 -11 -5z" />
    <glyph glyph-name="icircumflex.sc" unicode="&#xe017;" horiz-adv-x="251" 
d="M150 0h-50q-8 0 -8 7v456q0 7 8 7h50q8 0 8 -7v-456q0 -7 -8 -7zM63 534h-34q-11 0 -11 8q0 4 3 8l80 105q4 4 8 4h31q4 0 8 -4l81 -105q3 -4 3 -8q0 -8 -11 -8h-35q-4 0 -8 4l-44 62q-3 5 -8 5q-3 0 -8 -5l-47 -62q-4 -4 -8 -4z" />
    <glyph glyph-name="idieresis.sc" unicode="&#xe018;" horiz-adv-x="251" 
d="M150 0h-50q-8 0 -8 7v456q0 7 8 7h50q8 0 8 -7v-456q0 -7 -8 -7zM250 588q0 -18 -13.5 -31.5t-31.5 -13.5q-19 0 -31 13t-12 32t12 31t31 12t32 -12t13 -31zM87 588q0 -19 -12.5 -32t-31.5 -13t-31.5 13t-12.5 32t12.5 31t31.5 12t31.5 -12t12.5 -31z" />
    <glyph glyph-name="igrave.sc" unicode="&#xe019;" horiz-adv-x="251" 
d="M150 0h-50q-8 0 -8 7v456q0 7 8 7h50q8 0 8 -7v-456q0 -7 -8 -7zM140 534h-20q-6 0 -11 5l-114 102q-4 4 -4 8q0 9 11 9h66q7 0 11 -6l69 -102q3 -4 3 -8q0 -8 -11 -8z" />
    <glyph glyph-name="j.sc" unicode="&#xe01a;" horiz-adv-x="363" 
d="M24 72l34 16q12 6 15 6t6 -5q25 -43 67 -43q28 0 49 21t21 49v347q0 7 7 7h51q8 0 8 -7v-339q0 -57 -39 -95.5t-99 -38.5q-76 0 -121 68q-4 6 -4 7q0 4 5 7z" />
    <glyph glyph-name="k.sc" unicode="&#xe01b;" horiz-adv-x="462" 
d="M150 0h-50q-8 0 -8 7v456q0 7 8 7h50q8 0 8 -7v-200q0 -15 7 -15q3 0 58 72l112 146q3 4 7 4h59q8 0 8 -6q0 -4 -2 -6l-146 -176q-1 -1 -1 -3q0 -3 1 -5l166 -263q2 -4 2 -6q0 -5 -8 -5h-65q-6 0 -8 5l-129 209q-3 5 -7 5q-2 0 -6 -4l-48 -60v-148q0 -7 -8 -7z" />
    <glyph glyph-name="l.sc" unicode="&#xe01c;" horiz-adv-x="401" 
d="M370 0h-270q-8 0 -8 7v456q0 7 8 7h50q8 0 8 -7v-401q0 -8 8 -8h204q8 0 8 -8v-39q0 -7 -8 -7z" />
    <glyph glyph-name="lslash.sc" unicode="&#xe01d;" horiz-adv-x="401" 
d="M371 0h-270q-8 0 -8 7v149q0 10 -4 10q-3 0 -7 -4l-29 -30q-4 -3 -8 -3t-7 3l-25 26q-4 4 -4 6q0 4 4 8l71 70q9 9 9 24v197q0 7 8 7h50q7 0 7 -7v-131q0 -8 6 -8q3 0 6 3l31 31q3 3 7 3q3 0 6 -3l26 -25q3 -3 3 -7t-3 -7l-71 -70q-11 -11 -11 -25v-162q0 -8 9 -8h204
q7 0 7 -8v-39q0 -7 -7 -7z" />
    <glyph glyph-name="m.sc" unicode="&#xe01e;" horiz-adv-x="574" 
d="M149 0h-49q-8 0 -8 7v456q0 7 8 7h50q4 0 7 -4l120 -273q2 -4 5.5 -16t4.5 -14h2q0 1 11 30l117 273q3 4 8 4h49q8 0 8 -7v-456q0 -7 -8 -7h-48q-8 0 -8 7v162q0 67 7 165l-3 1q0 -1 -8.5 -25t-11.5 -31l-94 -207q-1 -4 -8 -4h-26q-7 0 -8 4l-94 208q-15 45 -19 55l-3 -1
q6 -84 6 -165v-162q0 -7 -7 -7z" />
    <glyph glyph-name="n.sc" unicode="&#xe01f;" horiz-adv-x="501" 
d="M150 0h-50q-8 0 -8 7v456q0 7 8 7h46q5 0 8 -4l175 -308q1 -4 7 -15.5l7 -13.5l3 1q-3 42 -3 163v170q0 7 7 7h50q8 0 8 -7v-456q0 -7 -8 -7h-46q-6 0 -7 5l-176 303l-14 28l-3 -1q3 -19 3 -162v-166q0 -7 -7 -7z" />
    <glyph glyph-name="ntilde.sc" unicode="&#xe020;" horiz-adv-x="501" 
d="M150 0h-50q-8 0 -8 7v456q0 7 8 7h46q5 0 8 -4l175 -308q1 -4 7 -15.5l7 -13.5l3 1q-3 42 -3 163v170q0 7 7 7h50q8 0 8 -7v-456q0 -7 -8 -7h-46q-6 0 -7 5l-176 303l-14 28l-3 -1q3 -19 3 -162v-166q0 -7 -7 -7zM250 565l-20 13q-23 15 -42 15q-26 0 -52 -26
q-3 -3 -7 -3t-6 2l-10 7q-5 3 -5 8q0 4 14 24q29 40 66 40q29 0 59 -23l21 -16q18 -15 44 -15q27 0 54 27q4 4 7 4t6 -3l9 -7q5 -3 5 -8q0 -3 -18 -28q-30 -37 -63 -37q-22 0 -62 26z" />
    <glyph glyph-name="o.sc" unicode="&#xe021;" horiz-adv-x="476" 
d="M258 -10h-40q-62 0 -99.5 34.5t-37.5 90.5v239q0 57 37.5 92t99.5 35h40q61 0 99 -35t38 -92v-239q0 -56 -38 -90.5t-99 -34.5zM218 43h40q29 0 50 20.5t21 49.5v244q0 29 -21 49.5t-50 20.5h-40q-30 0 -50.5 -20.5t-20.5 -49.5v-244q0 -29 20.5 -49.5t50.5 -20.5z" />
    <glyph glyph-name="oe.sc" unicode="&#xe022;" horiz-adv-x="662" 
d="M259 -8h-42q-61 0 -98.5 35t-37.5 91v234q0 56 37.5 91t98.5 35h42q29 0 53 -8h284q7 0 7 -7v-39q0 -7 -7 -7h-206q-11 0 -7 -11q13 -29 13 -57v-76q0 -7 8 -7h157q8 0 8 -7v-39q0 -8 -8 -8h-157q-8 0 -8 -8v-85q0 -26 -13 -55q-3 -10 7 -10h206q7 0 7 -8v-39q0 -7 -7 -7
h-286q-22 -8 -51 -8zM217 46h42q29 0 50 20.5t21 48.5v239q0 30 -20.5 50t-50.5 20h-42q-29 0 -49.5 -20.5t-20.5 -49.5v-239q0 -29 20 -49t50 -20z" />
    <glyph glyph-name="oacute.sc" unicode="&#xe023;" horiz-adv-x="476" 
d="M258 -10h-40q-62 0 -99.5 34.5t-37.5 90.5v239q0 57 37.5 92t99.5 35h40q61 0 99 -35t38 -92v-239q0 -56 -38 -90.5t-99 -34.5zM218 43h40q29 0 50 20.5t21 49.5v244q0 29 -21 49.5t-50 20.5h-40q-30 0 -50.5 -20.5t-20.5 -49.5v-244q0 -29 20.5 -49.5t50.5 -20.5z
M213 534h-20q-11 0 -11 8q0 4 3 8l69 102q4 6 11 6h66q11 0 11 -9q0 -4 -4 -8l-114 -102q-5 -5 -11 -5z" />
    <glyph glyph-name="ocircumflex.sc" unicode="&#xe024;" horiz-adv-x="476" 
d="M258 -10h-40q-62 0 -99.5 34.5t-37.5 90.5v239q0 57 37.5 92t99.5 35h40q61 0 99 -35t38 -92v-239q0 -56 -38 -90.5t-99 -34.5zM218 43h40q29 0 50 20.5t21 49.5v244q0 29 -21 49.5t-50 20.5h-40q-30 0 -50.5 -20.5t-20.5 -49.5v-244q0 -29 20.5 -49.5t50.5 -20.5z
M176 534h-34q-11 0 -11 8q0 4 3 8l80 105q4 4 8 4h31q4 0 8 -4l81 -105q3 -4 3 -8q0 -8 -11 -8h-35q-4 0 -8 4l-44 62q-3 5 -8 5q-3 0 -8 -5l-47 -62q-4 -4 -8 -4z" />
    <glyph glyph-name="odieresis.sc" unicode="&#xe025;" horiz-adv-x="476" 
d="M258 -10h-40q-62 0 -99.5 34.5t-37.5 90.5v239q0 57 37.5 92t99.5 35h40q61 0 99 -35t38 -92v-239q0 -56 -38 -90.5t-99 -34.5zM218 43h40q29 0 50 20.5t21 49.5v244q0 29 -21 49.5t-50 20.5h-40q-30 0 -50.5 -20.5t-20.5 -49.5v-244q0 -29 20.5 -49.5t50.5 -20.5z
M363 588q0 -18 -13.5 -31.5t-31.5 -13.5q-19 0 -31 13t-12 32t12 31t31 12t32 -12t13 -31zM200 588q0 -19 -12.5 -32t-31.5 -13t-31.5 13t-12.5 32t12.5 31t31.5 12t31.5 -12t12.5 -31z" />
    <glyph glyph-name="ograve.sc" unicode="&#xe026;" horiz-adv-x="476" 
d="M258 -10h-40q-62 0 -99.5 34.5t-37.5 90.5v239q0 57 37.5 92t99.5 35h40q61 0 99 -35t38 -92v-239q0 -56 -38 -90.5t-99 -34.5zM218 43h40q29 0 50 20.5t21 49.5v244q0 29 -21 49.5t-50 20.5h-40q-30 0 -50.5 -20.5t-20.5 -49.5v-244q0 -29 20.5 -49.5t50.5 -20.5z
M273 534h-20q-6 0 -11 5l-114 102q-4 4 -4 8q0 9 11 9h66q7 0 11 -6l69 -102q3 -4 3 -8q0 -8 -11 -8z" />
    <glyph glyph-name="oslash.sc" unicode="&#xe027;" horiz-adv-x="476" 
d="M258 -8h-40q-62 0 -99.5 35t-37.5 91v234q0 56 37.5 91t99.5 35h40q61 0 99 -35t38 -91v-234q0 -56 -38 -91t-99 -35zM160 117l134 289q3 5 -4 8q-15 10 -38 10h-34q-30 0 -50.5 -20.5t-20.5 -49.5v-223v-12q1 -6 6 -6.5t7 4.5zM224 46h34q29 0 50 20.5t21 48.5v223
q0 2 -0.5 8t-0.5 9q-1 6 -5 6.5t-7 -5.5l-134 -289q-4 -8 2 -9q15 -12 40 -12z" />
    <glyph glyph-name="otilde.sc" unicode="&#xe028;" horiz-adv-x="476" 
d="M258 -10h-40q-62 0 -99.5 34.5t-37.5 90.5v239q0 57 37.5 92t99.5 35h40q61 0 99 -35t38 -92v-239q0 -56 -38 -90.5t-99 -34.5zM218 43h40q29 0 50 20.5t21 49.5v244q0 29 -21 49.5t-50 20.5h-40q-30 0 -50.5 -20.5t-20.5 -49.5v-244q0 -29 20.5 -49.5t50.5 -20.5z
M238 565l-20 13q-23 15 -42 15q-26 0 -52 -26q-3 -3 -7 -3t-6 2l-10 7q-5 3 -5 8q0 4 14 24q29 40 66 40q29 0 59 -23l21 -16q18 -15 44 -15q27 0 54 27q4 4 7 4t6 -3l9 -7q5 -3 5 -8q0 -3 -18 -28q-30 -37 -63 -37q-22 0 -62 26z" />
    <glyph glyph-name="p.sc" unicode="&#xe029;" horiz-adv-x="437" 
d="M150 0h-50q-8 0 -8 7v456q0 7 8 7h163q62 0 100 -34.5t38 -91.5v-11q0 -53 -38 -87t-100 -34h-97q-8 0 -8 -8v-197q0 -7 -8 -7zM166 264h99q31 0 51.5 20.5t20.5 49.5v11q0 29 -21 50.5t-51 21.5h-99q-8 0 -8 -9v-137q0 -7 8 -7z" />
    <glyph glyph-name="thorn.sc" unicode="&#xe02a;" horiz-adv-x="437" 
d="M150 0h-50q-8 0 -8 7v456q0 7 8 7h51q7 0 7 -7v-47q0 -7 8 -7h98q62 0 99.5 -34t37.5 -91v-11q0 -54 -37.5 -88t-99.5 -34h-98q-8 0 -8 -7v-137q0 -7 -8 -7zM166 204h99q31 0 51.5 20.5t20.5 49.5v10q0 30 -21 51t-51 21h-99q-8 0 -8 -8v-137q0 -7 8 -7z" />
    <glyph glyph-name="q.sc" unicode="&#xe02b;" horiz-adv-x="476" 
d="M259 -94h-43q-7 0 -7 8v68q0 6 -7 8q-56 8 -88.5 41t-32.5 83v238q0 56 37.5 91t99.5 35h41q61 0 98.5 -35t37.5 -91v-238q0 -52 -33 -83.5t-89 -40.5q-6 -1 -6 -8v-68q0 -8 -8 -8zM211 52v59q1 8 8 8h37q9 0 9 -8v-58q1 -8 10 -5q23 3 38.5 22t15.5 40v244
q0 30 -20.5 50t-49.5 20h-41q-30 0 -50.5 -20.5t-20.5 -49.5v-244q0 -22 15 -39.5t39 -24.5q9 -3 10 6z" />
    <glyph glyph-name="r.sc" unicode="&#xe02c;" horiz-adv-x="478" 
d="M150 0h-50q-8 0 -8 7v456q0 7 8 7h170q62 0 99 -36t37 -97v-8q0 -29 -20 -57.5t-47 -40.5q-4 -3 -4 -10l79 -199q6 -15 6 -16q0 -6 -9 -6h-55q-6 0 -6 5l-81 202q0 5 -6 5h-97q-8 0 -8 -8v-197q0 -7 -8 -7zM166 264h104q30 0 51 21t21 51v8q0 30 -21 51.5t-51 21.5h-104
q-8 0 -8 -9v-136q0 -8 8 -8z" />
    <glyph glyph-name="s.sc" unicode="&#xe02d;" horiz-adv-x="428" 
d="M227 -10h-41q-79 0 -120 62q-4 6 -4 8q0 3 4 6l34 20q5 5 11 5t7 -4q29 -44 68 -44h41q30 0 51 22.5t21 53.5q0 29 -24 49.5t-58 34t-67.5 29.5t-57.5 46t-24 73q0 58 37 94t100 36h22q85 0 123 -65q2 -4 2 -5q0 -4 -5 -7l-31 -17q-14 -7 -15 -7q-2 0 -5 4q-28 43 -68 43
h-23q-30 0 -50.5 -22.5t-20.5 -53.5q0 -26 24 -44.5t57.5 -32t67.5 -29.5t58 -48t24 -78q0 -58 -37.5 -93.5t-100.5 -35.5z" />
    <glyph glyph-name="scaron.sc" unicode="&#xe02e;" horiz-adv-x="428" 
d="M227 -10h-41q-79 0 -120 62q-4 6 -4 8q0 3 4 6l34 20q5 5 11 5t7 -4q29 -44 68 -44h41q30 0 51 22.5t21 53.5q0 29 -24 49.5t-58 34t-67.5 29.5t-57.5 46t-24 73q0 58 37 94t100 36h22q85 0 123 -65q2 -4 2 -5q0 -4 -5 -7l-31 -17q-14 -7 -15 -7q-2 0 -5 4q-28 43 -68 43
h-23q-30 0 -50.5 -22.5t-20.5 -53.5q0 -26 24 -44.5t57.5 -32t67.5 -29.5t58 -48t24 -78q0 -58 -37.5 -93.5t-100.5 -35.5zM229 534h-31q-4 0 -8 4l-80 105q-3 5 -3 8q0 8 11 8h35q4 0 8 -4l46 -60q5 -5 8 -5q5 0 8 5l43 60q4 4 8 4h36q11 0 11 -8q0 -3 -3 -8l-81 -105
q-4 -4 -8 -4z" />
    <glyph glyph-name="t.sc" unicode="&#xe02f;" horiz-adv-x="341" 
d="M196 0h-50q-8 0 -8 7v401q0 9 -8 9h-102q-8 0 -8 7v39q0 7 8 7h286q7 0 7 -7v-39q0 -7 -7 -7h-103q-8 0 -8 -9v-401q0 -7 -7 -7z" />
    <glyph glyph-name="u.sc" unicode="&#xe030;" horiz-adv-x="480" 
d="M260 -10h-41q-62 0 -99 34.5t-37 90.5v348q0 7 7 7h51q7 0 7 -7v-350q0 -29 20.5 -49.5t50.5 -20.5h41q30 0 50.5 20.5t20.5 49.5v350q0 7 8 7h51q7 0 7 -7v-348q0 -56 -37.5 -90.5t-99.5 -34.5z" />
    <glyph glyph-name="uacute.sc" unicode="&#xe031;" horiz-adv-x="480" 
d="M260 -10h-41q-62 0 -99 34.5t-37 90.5v348q0 7 7 7h51q7 0 7 -7v-350q0 -29 20.5 -49.5t50.5 -20.5h41q30 0 50.5 20.5t20.5 49.5v350q0 7 8 7h51q7 0 7 -7v-348q0 -56 -37.5 -90.5t-99.5 -34.5zM215 534h-20q-11 0 -11 8q0 4 3 8l69 102q4 6 11 6h66q11 0 11 -9
q0 -4 -4 -8l-114 -102q-5 -5 -11 -5z" />
    <glyph glyph-name="ucircumflex.sc" unicode="&#xe032;" horiz-adv-x="480" 
d="M260 -10h-41q-62 0 -99 34.5t-37 90.5v348q0 7 7 7h51q7 0 7 -7v-350q0 -29 20.5 -49.5t50.5 -20.5h41q30 0 50.5 20.5t20.5 49.5v350q0 7 8 7h51q7 0 7 -7v-348q0 -56 -37.5 -90.5t-99.5 -34.5zM178 534h-34q-11 0 -11 8q0 4 3 8l80 105q4 4 8 4h31q4 0 8 -4l81 -105
q3 -4 3 -8q0 -8 -11 -8h-35q-4 0 -8 4l-44 62q-3 5 -8 5q-3 0 -8 -5l-47 -62q-4 -4 -8 -4z" />
    <glyph glyph-name="udieresis.sc" unicode="&#xe033;" horiz-adv-x="480" 
d="M260 -10h-41q-62 0 -99 34.5t-37 90.5v348q0 7 7 7h51q7 0 7 -7v-350q0 -29 20.5 -49.5t50.5 -20.5h41q30 0 50.5 20.5t20.5 49.5v350q0 7 8 7h51q7 0 7 -7v-348q0 -56 -37.5 -90.5t-99.5 -34.5zM365 588q0 -18 -13.5 -31.5t-31.5 -13.5q-19 0 -31 13t-12 32t12 31t31 12
t32 -12t13 -31zM202 588q0 -19 -12.5 -32t-31.5 -13t-31.5 13t-12.5 32t12.5 31t31.5 12t31.5 -12t12.5 -31z" />
    <glyph glyph-name="ugrave.sc" unicode="&#xe034;" horiz-adv-x="480" 
d="M260 -10h-41q-62 0 -99 34.5t-37 90.5v348q0 7 7 7h51q7 0 7 -7v-350q0 -29 20.5 -49.5t50.5 -20.5h41q30 0 50.5 20.5t20.5 49.5v350q0 7 8 7h51q7 0 7 -7v-348q0 -56 -37.5 -90.5t-99.5 -34.5zM275 534h-20q-6 0 -11 5l-114 102q-4 4 -4 8q0 9 11 9h66q7 0 11 -6
l69 -102q3 -4 3 -8q0 -8 -11 -8z" />
    <glyph glyph-name="v.sc" unicode="&#xe035;" horiz-adv-x="407" 
d="M222 0h-37q-7 0 -8 5q-151 455 -151 459q0 6 8 6h54q7 0 8 -5l99 -320q6 -17 8 -37h4q2 15 9 37l95 320q1 5 8 5h54q8 0 8 -6q0 -1 -13 -41l-138 -418q-1 -5 -8 -5z" />
    <glyph glyph-name="w.sc" unicode="&#xe036;" horiz-adv-x="568" 
d="M186 0h-39q-7 0 -8 6l-108 455q-1 1 -1 3q0 6 8 6h54q6 0 7 -6l66 -301q1 -4 4 -19t3 -16h3q1 2 2.5 9t3 15t2.5 11l83 303q0 5 7 5h25q7 0 7 -5l80 -304l7 -35h4l6 36l67 301q1 6 8 6h53q8 0 8 -9l-109 -455q-1 -6 -8 -6h-39q-6 0 -7 5l-81 286q-1 3 -2.5 11t-3 14.5
t-2.5 8.5h-3q0 -1 -1.5 -8.5t-3.5 -15t-3 -10.5l-82 -286q-1 -5 -7 -5z" />
    <glyph glyph-name="x.sc" unicode="&#xe037;" horiz-adv-x="427" 
d="M113 0h-58q-8 0 -8 5q0 2 2 6l118 214q0 1 2 5t2 5q0 5 -3 9l-114 206l-7 14q0 6 8 6h58q5 0 8 -5l88 -166q2 -5 6 -5q3 0 6 5l84 166q3 5 8 5h58q8 0 8 -6q0 -4 -6 -13l-114 -207q-4 -8 -4 -9q0 -2 6 -12q118 -216 118 -217q0 -6 -8 -6h-58q-6 0 -8 5l-84 164q-3 5 -6 5
t-6 -5l-87 -164q-5 -5 -9 -5z" />
    <glyph glyph-name="y.sc" unicode="&#xe038;" horiz-adv-x="358" 
d="M204 0h-51q-7 0 -7 7v209l-138 243q-1 2 -1 5q0 6 8 6h59q5 0 8 -5l91 -172q3 -5 6 -5q5 0 7 5l90 172q5 5 9 5h58q9 0 9 -6q0 -1 -2 -5l-138 -243v-209q0 -7 -8 -7z" />
    <glyph glyph-name="yacute.sc" unicode="&#xe039;" horiz-adv-x="358" 
d="M204 0h-51q-7 0 -7 7v209l-138 243q-1 2 -1 5q0 6 8 6h59q5 0 8 -5l91 -172q3 -5 6 -5q5 0 7 5l90 172q5 5 9 5h58q9 0 9 -6q0 -1 -2 -5l-138 -243v-209q0 -7 -8 -7zM164 534h-20q-11 0 -11 8q0 4 3 8l69 102q4 6 11 6h66q11 0 11 -9q0 -4 -4 -8l-114 -102q-5 -5 -11 -5z
" />
    <glyph glyph-name="ydieresis.sc" unicode="&#xe03a;" horiz-adv-x="358" 
d="M204 0h-51q-7 0 -7 7v209l-138 243q-1 2 -1 5q0 6 8 6h59q5 0 8 -5l91 -172q3 -5 6 -5q5 0 7 5l90 172q5 5 9 5h58q9 0 9 -6q0 -1 -2 -5l-138 -243v-209q0 -7 -8 -7zM304 588q0 -18 -13.5 -31.5t-31.5 -13.5q-19 0 -31 13t-12 32t12 31t31 12t32 -12t13 -31zM141 588
q0 -19 -12.5 -32t-31.5 -13t-31.5 13t-12.5 32t12.5 31t31.5 12t31.5 -12t12.5 -31z" />
    <glyph glyph-name="z.sc" unicode="&#xe03b;" horiz-adv-x="392" 
d="M333 0h-281q-8 0 -8 6q0 2 1 4l192 395q1 1 1 4q0 8 -8 8h-168q-7 0 -7 7v39q0 7 7 7h265q8 0 8 -6q0 -3 -1 -4l-193 -395q-1 -2 -1 -5q0 -6 7 -6h186q8 0 8 -8v-39q0 -7 -8 -7z" />
    <glyph glyph-name="zcaron.sc" unicode="&#xe03c;" horiz-adv-x="392" 
d="M333 0h-281q-8 0 -8 6q0 2 1 4l192 395q1 1 1 4q0 8 -8 8h-168q-7 0 -7 7v39q0 7 7 7h265q8 0 8 -6q0 -3 -1 -4l-193 -395q-1 -2 -1 -5q0 -6 7 -6h186q8 0 8 -8v-39q0 -7 -8 -7zM211 534h-31q-4 0 -8 4l-80 105q-3 5 -3 8q0 8 11 8h35q4 0 8 -4l46 -60q5 -5 8 -5q5 0 8 5
l43 60q4 4 8 4h36q11 0 11 -8q0 -3 -3 -8l-81 -105q-4 -4 -8 -4z" />
    <glyph glyph-name="germandbls.sc" unicode="&#xe03d;" horiz-adv-x="847" 
d="M227 -10h-41q-79 0 -120 62q-4 6 -4 8q0 3 4 6l34 20q5 5 11 5t7 -4q29 -44 68 -44h41q30 0 51 22.5t21 53.5q0 29 -24 49.5t-58 34t-67.5 29.5t-57.5 46t-24 73q0 58 37 94t100 36h22q85 0 123 -65q2 -4 2 -5q0 -4 -5 -7l-31 -17q-14 -7 -15 -7q-2 0 -5 4q-28 43 -68 43
h-23q-30 0 -50.5 -22.5t-20.5 -53.5q0 -26 24 -44.5t57.5 -32t67.5 -29.5t58 -48t24 -78q0 -58 -37.5 -93.5t-100.5 -35.5zM646 -10h-41q-79 0 -120 62q-4 6 -4 8q0 3 4 6l34 20q5 5 11 5t7 -4q29 -44 68 -44h41q30 0 51 22.5t21 53.5q0 29 -24 49.5t-58 34t-67.5 29.5
t-57.5 46t-24 73q0 58 37 94t100 36h22q85 0 123 -65q2 -4 2 -5q0 -4 -5 -7l-31 -17q-14 -7 -15 -7q-2 0 -5 4q-28 43 -68 43h-23q-30 0 -50.5 -22.5t-20.5 -53.5q0 -26 24 -44.5t57.5 -32t67.5 -29.5t58 -48t24 -78q0 -58 -37.5 -93.5t-100.5 -35.5z" />
    <glyph glyph-name="f_i.sc" unicode="&#xe03e;" horiz-adv-x="671" 
d="M150 0h-50q-8 0 -8 7v456q0 7 8 7h270q8 0 8 -7v-39q0 -7 -8 -7h-204q-8 0 -8 -9v-135q0 -7 8 -7h170q7 0 7 -7v-39q0 -8 -7 -8h-170q-8 0 -8 -8v-197q0 -7 -8 -7zM570 0h-50q-8 0 -8 7v456q0 7 8 7h50q8 0 8 -7v-456q0 -7 -8 -7z" />
    <glyph glyph-name="f_l.sc" unicode="&#xe03f;" horiz-adv-x="821" 
d="M150 0h-50q-8 0 -8 7v456q0 7 8 7h270q8 0 8 -7v-39q0 -7 -8 -7h-204q-8 0 -8 -9v-135q0 -7 8 -7h170q7 0 7 -7v-39q0 -8 -7 -8h-170q-8 0 -8 -8v-197q0 -7 -8 -7zM790 0h-270q-8 0 -8 7v456q0 7 8 7h50q8 0 8 -7v-401q0 -8 8 -8h204q8 0 8 -8v-39q0 -7 -8 -7z" />
    <glyph glyph-name="abreve.sc" unicode="&#xe040;" horiz-adv-x="407" 
d="M87 0h-53q-8 0 -8 6q0 2 1 3l150 456q1 5 7 5h39q7 0 7 -5l150 -456q0 -1 0.5 -2t0.5 -2q0 -5 -8 -5h-54q-7 0 -7 5l-31 94q-1 4 -8 4h-139q-7 0 -8 -4l-31 -94q-1 -5 -8 -5zM150 153h106q8 0 8 5v2l-1 2l-48 167l-3.5 14.5t-4 18t-2.5 9.5h-2q-5 -27 -10 -42l-50 -167
q-1 -1 -1 -4q0 -5 8 -5zM225 534h-46q-39 0 -62 20.5t-23 54.5v40q0 10 10 10h10q10 0 10 -10v-21q0 -20 16 -35t39 -15h46q23 0 39.5 15t16.5 35v21q0 10 10 10h11q10 0 10 -10v-40q0 -33 -24 -54t-63 -21z" />
    <glyph glyph-name="amacron.sc" unicode="&#xe041;" horiz-adv-x="407" 
d="M87 0h-53q-8 0 -8 6q0 2 1 3l150 456q1 5 7 5h39q7 0 7 -5l150 -456q0 -1 0.5 -2t0.5 -2q0 -5 -8 -5h-54q-7 0 -7 5l-31 94q-1 4 -8 4h-139q-7 0 -8 -4l-31 -94q-1 -5 -8 -5zM150 153h106q8 0 8 5v2l-1 2l-48 167l-3.5 14.5t-4 18t-2.5 9.5h-2q-5 -27 -10 -42l-50 -167
q-1 -1 -1 -4q0 -5 8 -5zM300 552h-194q-10 0 -10 10v37q0 10 10 10h194q10 0 10 -10v-37q0 -10 -10 -10z" />
    <glyph glyph-name="aogonek.sc" unicode="&#xe042;" horiz-adv-x="407" 
d="M419 -231h-4q-46 11 -74.5 45.5t-28.5 79.5v111l-31 94q-1 4 -8 4h-139q-7 0 -8 -4l-31 -94q-1 -5 -8 -5h-53q-8 0 -8 6q0 2 1 3l150 456q1 5 7 5h39q7 0 7 -5l146 -444q5 -15 5 -16q0 -5 -8 -5h-16v-113q0 -30 16.5 -51.5t46.5 -29.5q7 -1 7 -10v-17q0 -10 -8 -10z
M150 153h106q8 0 8 5v2l-1 2l-48 167l-3.5 14.5t-4 18t-2.5 9.5h-2q-5 -27 -10 -42l-50 -167q-1 -1 -1 -4q0 -5 8 -5z" />
    <glyph glyph-name="aeacute.sc" unicode="&#xe043;" horiz-adv-x="594" 
d="M52 0h-52q-8 0 -8 5q0 2 2 6l274 455q3 4 8 4h251q8 0 8 -7v-39q0 -7 -8 -7h-191q-9 0 -9 -9v-135q0 -7 9 -7h157q7 0 7 -7v-39q0 -8 -7 -8h-157q-9 0 -9 -8v-142q0 -8 9 -8h191q8 0 8 -8v-39q0 -7 -8 -7h-258q-7 0 -7 7v95q0 7 -8 7h-129q-5 0 -8 -4l-58 -100
q-1 -5 -7 -5zM160 160h95q7 0 7 7v51q0 30 1 88t1 61h-2q-12 -24 -14 -30l-94 -166q-2 -4 -2 -6q0 -5 8 -5zM324 534h-20q-11 0 -11 8q0 4 3 8l69 102q4 6 11 6h66q11 0 11 -9q0 -4 -4 -8l-114 -102q-5 -5 -11 -5z" />
    <glyph glyph-name="cacute.sc" unicode="&#xe044;" horiz-adv-x="443" 
d="M259 -10h-41q-62 0 -99.5 34.5t-37.5 90.5v239q0 57 37 92t100 35h41q46 0 73 -16.5t49 -49.5q3 -4 3 -6q0 -5 -5 -8l-32 -15q-7 -7 -15 -7q-3 0 -7 4q-30 44 -67 44h-40q-30 0 -50.5 -21.5t-20.5 -51.5v-239q0 -29 20.5 -50.5t50.5 -21.5h40q39 0 67 45q3 4 6 4
q2 0 10 -4l38 -18q5 -3 5 -8q0 -3 -5 -10q-21 -31 -47.5 -46.5t-72.5 -15.5zM222 534h-20q-11 0 -11 8q0 4 3 8l69 102q4 6 11 6h66q11 0 11 -9q0 -4 -4 -8l-114 -102q-5 -5 -11 -5z" />
    <glyph glyph-name="ccaron.sc" unicode="&#xe045;" horiz-adv-x="443" 
d="M259 -10h-41q-62 0 -99.5 34.5t-37.5 90.5v239q0 57 37 92t100 35h41q46 0 73 -16.5t49 -49.5q3 -4 3 -6q0 -5 -5 -8l-32 -15q-7 -7 -15 -7q-3 0 -7 4q-30 44 -67 44h-40q-30 0 -50.5 -21.5t-20.5 -51.5v-239q0 -29 20.5 -50.5t50.5 -21.5h40q39 0 67 45q3 4 6 4
q2 0 10 -4l38 -18q5 -3 5 -8q0 -3 -5 -10q-21 -31 -47.5 -46.5t-72.5 -15.5zM252 534h-31q-4 0 -8 4l-80 105q-3 5 -3 8q0 8 11 8h35q4 0 8 -4l46 -60q5 -5 8 -5q5 0 8 5l43 60q4 4 8 4h36q11 0 11 -8q0 -3 -3 -8l-81 -105q-4 -4 -8 -4z" />
    <glyph glyph-name="ccircumflex.sc" unicode="&#xe046;" horiz-adv-x="443" 
d="M259 -10h-41q-62 0 -99.5 34.5t-37.5 90.5v239q0 57 37 92t100 35h41q46 0 73 -16.5t49 -49.5q3 -4 3 -6q0 -5 -5 -8l-32 -15q-7 -7 -15 -7q-3 0 -7 4q-30 44 -67 44h-40q-30 0 -50.5 -21.5t-20.5 -51.5v-239q0 -29 20.5 -50.5t50.5 -21.5h40q39 0 67 45q3 4 6 4
q2 0 10 -4l38 -18q5 -3 5 -8q0 -3 -5 -10q-21 -31 -47.5 -46.5t-72.5 -15.5zM175 534h-34q-11 0 -11 8q0 4 3 8l80 105q4 4 8 4h31q4 0 8 -4l81 -105q3 -4 3 -8q0 -8 -11 -8h-35q-4 0 -8 4l-44 62q-3 5 -8 5q-3 0 -8 -5l-47 -62q-4 -4 -8 -4z" />
    <glyph glyph-name="cdotaccent.sc" unicode="&#xe047;" horiz-adv-x="443" 
d="M259 -10h-41q-62 0 -99.5 34.5t-37.5 90.5v239q0 57 37 92t100 35h41q46 0 73 -16.5t49 -49.5q3 -4 3 -6q0 -5 -5 -8l-32 -15q-7 -7 -15 -7q-3 0 -7 4q-30 44 -67 44h-40q-30 0 -50.5 -21.5t-20.5 -51.5v-239q0 -29 20.5 -50.5t50.5 -21.5h40q39 0 67 45q3 4 6 4
q2 0 10 -4l38 -18q5 -3 5 -8q0 -3 -5 -10q-21 -31 -47.5 -46.5t-72.5 -15.5zM281 588q0 -19 -12.5 -32t-31.5 -13t-31.5 13t-12.5 32t12.5 31t31.5 12t31.5 -12t12.5 -31z" />
    <glyph glyph-name="dcaron.sc" unicode="&#xe048;" horiz-adv-x="488" 
d="M270 0h-170q-8 0 -8 7v456q0 7 8 7h170q62 0 99 -36t37 -97v-203q0 -61 -37 -97.5t-99 -36.5zM166 54h104q30 0 51 21.5t21 50.5v218q0 29 -21 51t-51 22h-104q-8 0 -8 -9v-346q0 -8 8 -8zM249 534h-31q-4 0 -8 4l-80 105q-3 5 -3 8q0 8 11 8h35q4 0 8 -4l46 -60
q5 -5 8 -5q5 0 8 5l43 60q4 4 8 4h36q11 0 11 -8q0 -3 -3 -8l-81 -105q-4 -4 -8 -4z" />
    <glyph glyph-name="dcroat.sc" unicode="&#xe049;" horiz-adv-x="488" 
d="M270 0h-170q-8 0 -8 7v194q0 10 -7 10h-41q-9 0 -9 10v35q0 10 9 10h41q7 0 7 10v187q0 7 8 7h170q62 0 99 -36t37 -97v-203q0 -61 -37 -97.5t-99 -36.5zM166 54h104q30 0 51 21.5t21 50.5v218q0 29 -21 51t-51 22h-104q-8 0 -8 -9v-133q0 -9 9 -9h80q9 0 9 -10v-35
q0 -10 -9 -10h-81q-8 0 -8 -9v-140q0 -8 8 -8z" />
    <glyph glyph-name="ebreve.sc" unicode="&#xe04a;" horiz-adv-x="437" 
d="M370 0h-270q-8 0 -8 7v456q0 7 8 7h270q8 0 8 -7v-39q0 -7 -8 -7h-204q-8 0 -8 -9v-135q0 -7 8 -7h170q7 0 7 -7v-39q0 -8 -7 -8h-170q-8 0 -8 -8v-142q0 -8 8 -8h204q8 0 8 -8v-39q0 -7 -8 -7zM256 534h-46q-39 0 -62 20.5t-23 54.5v40q0 10 10 10h10q10 0 10 -10v-21
q0 -20 16 -35t39 -15h46q23 0 39.5 15t16.5 35v21q0 10 10 10h11q10 0 10 -10v-40q0 -33 -24 -54t-63 -21z" />
    <glyph glyph-name="ecaron.sc" unicode="&#xe04b;" horiz-adv-x="437" 
d="M370 0h-270q-8 0 -8 7v456q0 7 8 7h270q8 0 8 -7v-39q0 -7 -8 -7h-204q-8 0 -8 -9v-135q0 -7 8 -7h170q7 0 7 -7v-39q0 -8 -7 -8h-170q-8 0 -8 -8v-142q0 -8 8 -8h204q8 0 8 -8v-39q0 -7 -8 -7zM249 534h-31q-4 0 -8 4l-80 105q-3 5 -3 8q0 8 11 8h35q4 0 8 -4l46 -60
q5 -5 8 -5q5 0 8 5l43 60q4 4 8 4h36q11 0 11 -8q0 -3 -3 -8l-81 -105q-4 -4 -8 -4z" />
    <glyph glyph-name="edotaccent.sc" unicode="&#xe04c;" horiz-adv-x="437" 
d="M370 0h-270q-8 0 -8 7v456q0 7 8 7h270q8 0 8 -7v-39q0 -7 -8 -7h-204q-8 0 -8 -9v-135q0 -7 8 -7h170q7 0 7 -7v-39q0 -8 -7 -8h-170q-8 0 -8 -8v-142q0 -8 8 -8h204q8 0 8 -8v-39q0 -7 -8 -7zM278 588q0 -19 -12.5 -32t-31.5 -13t-31.5 13t-12.5 32t12.5 31t31.5 12
t31.5 -12t12.5 -31z" />
    <glyph glyph-name="emacron.sc" unicode="&#xe04d;" horiz-adv-x="437" 
d="M370 0h-270q-8 0 -8 7v456q0 7 8 7h270q8 0 8 -7v-39q0 -7 -8 -7h-204q-8 0 -8 -9v-135q0 -7 8 -7h170q7 0 7 -7v-39q0 -8 -7 -8h-170q-8 0 -8 -8v-142q0 -8 8 -8h204q8 0 8 -8v-39q0 -7 -8 -7zM331 552h-194q-10 0 -10 10v37q0 10 10 10h194q10 0 10 -10v-37
q0 -10 -10 -10z" />
    <glyph glyph-name="eng.sc" unicode="&#xe04e;" horiz-adv-x="501" 
d="M250 -166v38q0 8 8 10q39 9 62 37.5t23 66.5v26l-172 296l-14 28l-3 -1q3 -19 3 -162v-166q0 -7 -7 -7h-50q-8 0 -8 7v456q0 7 8 7h46q5 0 8 -4l175 -308l14 -29l3 1q-3 42 -3 163v170q0 7 7 7h50q8 0 8 -7v-466q0 -54 -27.5 -96.5t-76.5 -63.5q-28 -13 -45 -13
q-9 0 -9 10z" />
    </font>
</defs>
</svg>
